<svg width="15" height="15" viewBox="0 0 15 15" fill="none" xmlns="http://www.w3.org/2000/svg">
<path d="M7.49999 0C3.375 0 0 3.38102 0 7.54519C0 11.3102 2.745 14.4352 6.32999 15V9.72892H4.42499V7.54519H6.32999V5.88102C6.32999 3.99096 7.44749 2.9518 9.16499 2.9518C9.98249 2.9518 10.8375 3.09488 10.8375 3.09488V4.95481H9.89249C8.96249 4.95481 8.66999 5.53463 8.66999 6.12953V7.54519H10.755L10.4175 9.72892H8.66999V15C10.4373 14.7197 12.0466 13.8144 13.2074 12.4473C14.3682 11.0803 15.004 9.34157 15 7.54519C15 3.38102 11.625 0 7.49999 0Z" fill="white"/>
</svg>
