<svg width="56" height="56" viewBox="0 0 56 56" fill="none" xmlns="http://www.w3.org/2000/svg">
<path fill-rule="evenodd" clip-rule="evenodd" d="M28.4954 26.8996L26.8513 28.5438L42.8473 44.5436L43.2352 44.9318L43.1585 45.4773L42.62 49.2054L51.6655 54.9916L54.9393 51.7177L49.1532 42.6685L45.429 43.207L44.8831 43.2876L44.495 42.8993L28.4954 26.8996ZM25.247 30.0416L23.8482 31.4406C22.4141 32.875 20.4341 33.0648 18.9922 32.3195C18.4631 32.046 17.9946 31.6563 17.6263 31.1805L12.7302 36.0768L12.3089 36.498L11.7264 36.3734C8.60973 35.7134 5.21082 36.5647 2.80192 38.9736C0.0365262 41.7387 -0.657458 45.7349 0.611917 49.1799L6.3834 43.4084C8.01032 41.7822 10.6854 41.6969 12.3014 43.313C13.9176 44.9293 13.7655 47.5768 12.1584 49.1834L6.38692 54.9549C9.832 56.224 13.8281 55.5298 16.5934 52.7649C19.009 50.3491 19.888 46.9826 19.2412 43.8844L19.1205 43.3057L19.5377 42.8882L28.8178 33.6086L25.247 30.0416Z" fill="#082D53"/>
<path d="M45.5972 0.00144898C43.194 0.0412927 40.8117 0.96766 38.9725 2.80657C36.5634 5.21571 35.712 8.61438 36.3724 11.7311L36.4933 12.3098L36.0722 12.7309L30.9855 17.8176C31.4379 18.1581 31.8254 18.5791 32.1246 19.0627C32.9643 20.4209 32.8634 22.4248 31.3957 23.8929L29.9929 25.2954L33.5599 28.8661L42.8837 19.5423L43.3012 19.1212L43.8834 19.2454C46.9818 19.8929 50.3447 19.0134 52.7604 16.5978C55.5255 13.8327 56.2195 9.83653 54.9504 6.39157L49.1824 12.163C47.5758 13.7695 44.9285 13.922 43.3121 12.306C41.6961 10.6897 41.7805 8.01485 43.4075 6.38805L49.1755 0.616566C48.1741 0.247426 47.1276 0.0388317 46.077 0.00484734C45.9168 -0.000426101 45.7573 -0.00112915 45.5972 0.00144898Z" fill="#082D53"/>
<path d="M6.09055 0.261254C4.50465 0.280238 3.06043 0.980082 1.99637 2.09993C-0.132107 4.33914 -0.766326 8.08586 2.53074 11.3833L12.6236 21.4759C16.1686 21.7962 18.835 24.6004 18.9407 28.218L18.9628 28.9101C19.0663 29.5727 19.4679 30.0967 19.9992 30.3714C20.6711 30.7186 21.4508 30.74 22.299 29.8915L29.8465 22.3439C30.7509 21.4393 30.6546 20.8538 30.2601 20.2162C29.8659 19.5784 28.9392 19.0369 28.0558 19.0369H28.0336L28.0118 19.0334C24.4815 18.8813 21.7508 16.281 21.3907 12.8225L11.2428 2.67461C9.45184 0.883519 7.67668 0.242504 6.09055 0.261254Z" fill="#F9DA75"/>
</svg>
