<svg width="70" height="66" viewBox="0 0 70 66" fill="none" xmlns="http://www.w3.org/2000/svg">
<path d="M15 57L9 51L5.5 54.5L11 60.5L15 57Z" stroke="#F9DA75" stroke-width="6"/>
<path d="M52.5 20.5L48.5 25L53 30L57.5 25.5L52.5 20.5Z" fill="#F9DA75" stroke="#F9DA75"/>
<path d="M60.7786 19.2991L58.8983 20.2226L58.0439 19.3683L58.9673 17.4878L46.2813 4.80021C38.0416 -3.44037 24.5082 1.38238 23.936 1.59156L19.5274 3.20853L23.5242 5.67904C23.6072 5.73031 31.4871 10.6851 34.8733 19.6626L0 54.5403L11.4192 65.9607L46.9934 30.3822L47.0678 30.3457L47.9221 31.2001L46.9987 33.0805L56.2203 42.303L70 28.5215L60.7786 19.2991ZM11.4192 59.5043L6.45586 54.5403L37.4963 23.496L42.4599 28.4595L14 57L11.4192 59.5043ZM56.2203 35.8463L52.5358 32.1616L53.4592 30.2812L47.9869 24.808L46.1613 25.7048L39.496 19.0395C37.2783 12.4369 33.0448 7.678 29.8879 4.8508C33.7527 4.27794 39.3313 4.30583 43.0531 8.02787L53.4304 18.4065L52.507 20.2869L57.9793 25.76L59.8596 24.8365L63.544 28.5215L56.2203 35.8463Z" fill="#082D53"/>
</svg>
