<svg width="104" height="100" viewBox="0 0 104 100" fill="none" xmlns="http://www.w3.org/2000/svg">
<g clip-path="url(#clip0_370_904)">
<path d="M14 91H47.5L51.4215 96H14V91Z" fill="#F9DA75"/>
<path fill-rule="evenodd" clip-rule="evenodd" d="M71.5 60.5L92.3237 5.77721C92.7715 4.60056 93.4114 3.50636 94.2173 2.5392L94.3079 2.43047C95.0846 1.49844 96.1318 0.819488 97.2983 0.486189C98.344 0.187433 99.4769 0.476915 100.246 1.24589L100.537 1.53662C101.474 2.47361 102 3.74443 102 5.06953C102 6.01688 101.846 6.95793 101.544 7.85589L82.5 64.5L81.7316 66.8052C80.9159 69.2524 80.5 71.8151 80.5 74.3947V76.0103C80.5 77.0017 80.5819 77.9915 80.7449 78.9695L80.8151 79.3906C81.2605 82.0633 82.5299 84.5299 84.4458 86.4458L86.1222 88.1222C86.7064 88.7064 87.3379 89.2413 88.0102 89.7216L89.9621 91.1158C92.639 93.0279 95.5867 94.5289 98.7075 95.5692L100.816 96.2721C101.225 96.4082 101.5 96.7903 101.5 97.2208V98.9884C101.5 99.5452 101.045 99.9948 100.489 99.9884L61.7551 99.5432C59.2784 99.5147 56.8342 98.9754 54.5754 97.9589L53.0544 97.2745C49.8915 95.8512 47.6354 92.9581 47.0257 89.5438C46.0697 84.1906 47.7918 78.7082 51.6369 74.8631L52.4628 74.0372C56.134 70.366 60.3284 67.2582 64.9095 64.8149L65.5 64.5L68.286 62.9522C69.4231 62.3205 70.4666 61.5334 71.3865 60.6135L71.5 60.5ZM78.5 64L98.6866 5.90203C98.862 5.39727 98.6095 4.84381 98.1134 4.64535L97.4409 4.37638C96.9233 4.16933 96.3363 4.42553 96.1362 4.94587L74 62.5L78.5 64ZM77.7685 66.9261C77.898 66.4078 77.5974 65.8792 77.0857 65.7257L74.578 64.9734C73.5672 64.6702 72.4775 64.7787 71.5463 65.2753L65.9497 68.2602C60.7182 71.0503 56.1881 74.9914 52.7008 79.7864C50.9749 82.1595 50.2881 85.1323 50.798 88.022L51.0414 89.4014C51.3343 91.0611 52.2933 92.5288 53.6956 93.4637L54.4214 93.9476C54.4736 93.9824 54.5297 94.0111 54.5884 94.0332L57.4532 95.1074C57.8268 95.2475 58.1785 94.8569 58 94.5C57.0185 92.8641 56.5 90.9923 56.5 89.0845V88L56.735 85.6501C56.9086 83.9136 57.5337 82.2528 58.548 80.8328L59.4519 79.5673C59.4839 79.5225 59.5196 79.4804 59.5585 79.4415L62.7071 76.2929C62.8946 76.1054 63.149 76 63.4142 76H64.963C65.8706 76 66.3088 77.1118 65.6453 77.7311L64.4475 78.849C61.6107 81.4967 60 85.2032 60 89.0837V89.5C60.3097 92.2869 62.0751 94.7 64.6375 95.8389L65 96H71.5C71.8998 96 72.1199 95.5355 71.8668 95.226L71.2499 94.4721C70.5869 93.6618 70.0474 92.758 69.6488 91.7899C68.9105 89.9968 68.8785 87.9906 69.5594 86.1749L69.872 85.3414C69.953 85.1255 70.1271 84.9576 70.3459 84.8847L71.1724 84.6092C71.941 84.353 72.6792 85.0693 72.4464 85.8452L72.2615 86.4615C71.7765 88.0785 71.995 89.825 72.8635 91.2726L73.8522 92.9204C74.2769 93.6282 74.8764 94.2151 75.5931 94.6247C77.1704 95.5259 78.9555 96 80.7721 96H90.5L84 91L81.6853 89.0711C79.2906 87.0755 77.5925 84.3702 76.8365 81.3461C75.959 77.836 75.959 74.164 76.8365 70.6539L77.7685 66.9261Z" fill="#183A5D"/>
<path d="M78.5 64L98.6866 5.90203C98.862 5.39727 98.6095 4.84381 98.1134 4.64535L97.4409 4.37638C96.9233 4.16933 96.3363 4.42553 96.1362 4.94587L74 62.5M78.5 64L74 62.5M78.5 64L82.5 64.5M74 62.5L71.5 60.5M71.5 60.5L92.3237 5.77721M71.5 60.5L71.3865 60.6135M82.5 64.5L101.544 7.85589M82.5 64.5L81.7316 66.8052M92.3237 5.77721C92.7715 4.60056 93.4114 3.50636 94.2173 2.5392M92.3237 5.77721V5.77721C92.7715 4.60056 93.4114 3.50636 94.2173 2.5392V2.5392M94.2173 2.5392L94.3079 2.43047M94.3079 2.43047C95.0846 1.49844 96.1318 0.819488 97.2983 0.486189M94.3079 2.43047V2.43047C95.0846 1.49844 96.1318 0.819487 97.2983 0.486189V0.486189M97.2983 0.486189C98.344 0.187433 99.4769 0.476915 100.246 1.24589M97.2983 0.486189V0.486189C98.344 0.187432 99.4769 0.476915 100.246 1.24589V1.24589M100.246 1.24589L100.537 1.53662M100.537 1.53662C101.474 2.47361 102 3.74443 102 5.06953M100.537 1.53662V1.53662C101.474 2.47361 102 3.74443 102 5.06953V5.06953M102 5.06953C102 6.01688 101.846 6.95793 101.544 7.85589M102 5.06953V5.06953C102 6.01688 101.846 6.95793 101.544 7.85589V7.85589M81.7316 66.8052C80.9159 69.2524 80.5 71.8151 80.5 74.3947M81.7316 66.8052V66.8052C80.9159 69.2524 80.5 71.8151 80.5 74.3947V74.3947M80.5 74.3947V76.0103M80.5 76.0103C80.5 77.0017 80.5819 77.9915 80.7449 78.9695M80.5 76.0103V76.0103C80.5 77.0017 80.5819 77.9915 80.7449 78.9695V78.9695M80.7449 78.9695L80.8151 79.3906M80.8151 79.3906C81.2605 82.0633 82.5299 84.5299 84.4458 86.4458M80.8151 79.3906V79.3906C81.2605 82.0633 82.5299 84.5299 84.4458 86.4458V86.4458M84.4458 86.4458L86.1222 88.1222M86.1222 88.1222C86.7064 88.7064 87.3379 89.2413 88.0102 89.7216M86.1222 88.1222V88.1222C86.7064 88.7064 87.3379 89.2413 88.0102 89.7216V89.7216M88.0102 89.7216L89.9621 91.1158M89.9621 91.1158C92.639 93.0279 95.5867 94.5289 98.7075 95.5692M89.9621 91.1158V91.1158C92.639 93.0279 95.5867 94.5289 98.7075 95.5692V95.5692M98.7075 95.5692L100.816 96.2721M100.816 96.2721C101.225 96.4082 101.5 96.7903 101.5 97.2208M100.816 96.2721V96.2721C101.225 96.4082 101.5 96.7903 101.5 97.2208V97.2208M101.5 97.2208V98.9884M101.5 98.9884C101.5 99.5452 101.045 99.9948 100.489 99.9884M101.5 98.9884V98.9884C101.5 99.5452 101.045 99.9948 100.489 99.9884V99.9884M100.489 99.9884L61.7551 99.5432M61.7551 99.5432C59.2784 99.5147 56.8342 98.9754 54.5754 97.9589M61.7551 99.5432V99.5432C59.2784 99.5147 56.8342 98.9754 54.5754 97.9589V97.9589M54.5754 97.9589L53.0544 97.2745M53.0544 97.2745C49.8915 95.8512 47.6354 92.9581 47.0257 89.5438M53.0544 97.2745V97.2745C49.8915 95.8512 47.6354 92.9581 47.0257 89.5438V89.5438M47.0257 89.5438C46.0697 84.1906 47.7918 78.7082 51.6369 74.8631M47.0257 89.5438V89.5438C46.0697 84.1906 47.7918 78.7082 51.6369 74.8631V74.8631M51.6369 74.8631L52.4628 74.0372M52.4628 74.0372C56.134 70.366 60.3284 67.2582 64.9095 64.8149M52.4628 74.0372V74.0372C56.134 70.366 60.3284 67.2582 64.9095 64.8149V64.8149M64.9095 64.8149L65.5 64.5L68.286 62.9522M68.286 62.9522C69.4231 62.3205 70.4666 61.5334 71.3865 60.6135M68.286 62.9522V62.9522C69.4231 62.3205 70.4666 61.5334 71.3865 60.6135V60.6135M90.5 96L84 91L81.6853 89.0711C79.2906 87.0755 77.5925 84.3702 76.8365 81.3461V81.3461C75.959 77.836 75.959 74.164 76.8365 70.6539L77.7685 66.9261C77.8981 66.4078 77.5974 65.8792 77.0857 65.7257L74.578 64.9734C73.5672 64.6702 72.4775 64.7787 71.5463 65.2753L65.9497 68.2602C60.7182 71.0503 56.1881 74.9914 52.7008 79.7864V79.7864C50.9749 82.1595 50.2881 85.1323 50.798 88.022L51.0414 89.4014C51.3343 91.0611 52.2933 92.5288 53.6956 93.4637L54.4214 93.9476C54.4736 93.9824 54.5297 94.0111 54.5884 94.0332L57.4532 95.1074C57.8268 95.2475 58.1785 94.8569 58 94.5V94.5V94.5C57.0185 92.8641 56.5 90.9923 56.5 89.0845V88L56.735 85.6501C56.9086 83.9136 57.5337 82.2528 58.548 80.8328L59.4519 79.5673C59.4839 79.5225 59.5196 79.4804 59.5585 79.4415L62.7071 76.2929C62.8946 76.1054 63.149 76 63.4142 76H64.963C65.8706 76 66.3088 77.1118 65.6453 77.7311L64.4475 78.849C61.6107 81.4967 60 85.2032 60 89.0837V89.5V89.5C60.3097 92.2869 62.0751 94.7 64.6375 95.8389L65 96H71.5V96C71.8998 96 72.1199 95.5355 71.8668 95.226L71.2499 94.4721C70.5869 93.6618 70.0474 92.758 69.6488 91.7899V91.7899C68.9105 89.9968 68.8785 87.9906 69.5594 86.1749L69.872 85.3414C69.953 85.1255 70.1271 84.9576 70.3459 84.8847L71.1724 84.6092C71.941 84.353 72.6792 85.0693 72.4464 85.8452L72.2615 86.4615C71.7765 88.0785 71.995 89.825 72.8635 91.2726L73.8522 92.9204C74.2769 93.6282 74.8764 94.2151 75.5931 94.6247V94.6247C77.1704 95.5259 78.9555 96 80.7721 96H90.5Z" stroke="#183A5D"/>
<path d="M8.23082 29.5H9.6802C10.1569 29.5 10.5673 29.1635 10.6608 28.6961L10.7137 28.4315C10.9018 27.4909 11.3127 26.6091 11.912 25.86L12.2594 25.4258C12.6465 24.9419 13.376 24.923 13.7877 25.3861L17 29L18.1332 30.3598C18.676 31.0111 18.2128 32 17.365 32H16.5H5.5H5.45903C3.63338 32 2.23099 33.617 2.48918 35.4243L2.5 35.5L12 96L12.2724 97.0896C12.7 98.8 14.2369 100 16 100H47.5H48.382C49.1253 100 49.6088 99.2177 49.2764 98.5528L49 98L48.4142 97.4142C47.5087 96.5087 46.2806 96 45 96H18C16.5202 96 15.2197 95.019 14.8132 93.5962L14.5 92.5L6.78039 37.9802C6.63234 36.9346 7.44396 36 8.5 36H21H21.9945C22.3241 36 22.6463 36.0976 22.9206 36.2804C23.6363 36.7575 24.2779 37.3374 24.8247 38.0014L30.5083 44.9029C30.8162 45.2768 30.9206 45.7781 30.7875 46.2437L30.7708 46.3023C30.3116 47.9094 30.9608 49.6405 32.3516 50.5677C33.6821 51.4547 35.3862 51.6202 36.856 50.9903L36.9332 50.9572C37.601 50.671 38.0851 50.0744 38.2276 49.3619L38.404 48.4801C38.7513 46.7433 37.8346 45.0006 36.2066 44.3028C35.7404 44.103 35.2384 44 34.7312 44H33.9404C33.3428 44 32.7743 43.742 32.3808 43.2923L26 36L22.5 32L6.70201 13.3296C6.32411 12.883 5.6452 12.8548 5.23152 13.2685L5.14198 13.358C4.77784 13.7222 4.74978 14.3033 5.07716 14.7008L11.074 21.9828C11.3044 22.2625 11.2496 22.6788 10.9547 22.8895C9.07438 24.2326 7.8542 26.3122 7.59901 28.6089L7.58071 28.7736C7.53765 29.1611 7.84096 29.5 8.23082 29.5Z" fill="#183A5D" stroke="#183A5D"/>
<path d="M19.6675 19.834L18.7568 19.1055C18.3351 18.7681 18.2575 18.1567 18.5815 17.7246L20.4586 15.2219C22.7471 12.1705 26.0314 10.0163 29.7419 9.13289C32.8578 8.391 36.115 8.49152 39.1792 9.42411L40.2307 9.74412C43.9746 10.8836 47.2452 13.2122 49.547 16.3772L49.6572 16.5286C49.8836 16.84 50.048 17.192 50.1414 17.5655L50.5 19C50.7939 20.1754 51.85 21 53.0616 21H53.5H55C55.6543 21 56.2964 21.1778 56.8575 21.5145L57.6811 22.0087C58.2203 22.3322 58.6809 22.7714 59.0297 23.2946L59.5 24L59.8314 24.4972C60.2752 25.1628 60.6282 25.8845 60.8811 26.6434L61.5613 28.6838C61.7771 29.3313 61.2951 30 60.6126 30H59.2208C58.7903 30 58.4082 29.7246 58.2721 29.3162L57.754 27.7621C57.5852 27.2556 57.3614 26.769 57.0867 26.3112C56.3972 25.162 55.2385 24.3731 53.9166 24.1528L53.0816 24.0136C53.0273 24.0046 52.9723 24 52.9172 24H50.5H49.8326C49.0526 24 48.3758 23.4616 48.2004 22.7015C47.4333 19.3777 45.3476 16.5086 42.4225 14.7535L40.5568 13.6341C39.8537 13.2122 39.1138 12.8552 38.3461 12.5673L38.0966 12.4737C36.3868 11.8326 34.5543 11.5788 32.7346 11.7305C30.6115 11.9074 28.5609 12.5976 26.7635 13.7414C24.9391 14.9024 23.3617 16.4119 22.1215 18.1835L21.1114 19.6266C20.7803 20.0996 20.1184 20.1947 19.6675 19.834Z" fill="#183A5D" stroke="#183A5D"/>
<path d="M62.1303 62.7465L59.854 64.264C59.1359 64.7428 58.1893 64.148 58.3089 63.2933L61.5 40.5L61.8766 37.1104C61.9424 36.5181 61.4787 36 60.8827 36H58H31.9538C31.6654 36 31.3911 35.8755 31.2012 35.6585L29.4512 33.6585C28.8854 33.0119 29.3446 32 30.2038 32H65.8416C66.452 32 66.92 32.5421 66.8309 33.146L62.5649 62.0604C62.5236 62.3403 62.3657 62.5896 62.1303 62.7465Z" fill="#183A5D" stroke="#183A5D"/>
</g>
<defs>
<clipPath id="clip0_370_904">
<rect width="104" height="100" fill="white"/>
</clipPath>
</defs>
</svg>
