<svg width="34" height="34" viewBox="0 0 34 34" fill="none" xmlns="http://www.w3.org/2000/svg">
<g clip-path="url(#clip0_349_553)">
<circle cx="17" cy="17" r="16" stroke="#185488"/>
<path fill-rule="evenodd" clip-rule="evenodd" d="M14.6896 19.3472V15.3388C16.4826 16.0084 17.8712 16.6552 19.5136 17.3526C18.159 17.9488 16.4826 18.6178 14.6896 19.3472ZM24.6819 13.3452C24.3726 13.0218 23.8455 12.7701 23.2843 12.6867C21.6347 12.4381 11.3439 12.4374 9.69524 12.6867C9.2452 12.7537 8.84445 12.9155 8.5002 13.167C7.04967 14.2355 7.5042 19.9655 7.85383 20.8937C8.00086 21.2954 8.19092 21.5852 8.43028 21.7754C8.73868 22.0268 9.16092 22.2 9.64592 22.2776C11.0041 22.5006 18.0012 22.6252 23.2556 22.3111C23.7397 22.2441 24.1682 22.0654 24.5062 21.8033C25.8473 20.739 25.7559 14.6872 24.6819 13.3452Z" fill="#185488"/>
</g>
<defs>
<clipPath id="clip0_349_553">
<rect width="33" height="33" fill="white" transform="translate(0.5 0.5)"/>
</clipPath>
</defs>
</svg>
