<svg width="105" height="104" viewBox="0 0 105 104" fill="none" xmlns="http://www.w3.org/2000/svg">
<g clip-path="url(#clip0_370_910)">
<rect x="77.1826" y="67" width="35.2579" height="13.0532" transform="rotate(44.1965 77.1826 67)" fill="#F9DA75"/>
<rect x="64.4238" y="9.64099" width="81.602" height="6" transform="rotate(134.18 64.4238 9.64099)" fill="#F9DA75"/>
<path fill-rule="evenodd" clip-rule="evenodd" d="M62.7626 4.09152L69.939 11.0557L73.421 7.46754C73.8057 7.0712 74.4388 7.0617 74.8351 7.44632L90.1036 22.2634C91.454 23.5739 91.7084 25.6484 90.7147 27.2463L68.4094 63.1152C67.9126 63.9141 68.0398 64.9514 68.715 65.6066L71.1464 67.9661C71.5427 68.3507 72.1758 68.3412 72.5605 67.9449L76.3908 63.9979C76.7747 63.6023 77.4072 63.5949 77.8003 63.9813L103.392 89.1393C104.561 90.2886 104.591 92.1636 103.46 93.3497L94.6492 102.583C93.4986 103.789 91.5856 103.826 90.3895 102.665L64.5728 77.6117C64.1765 77.2271 64.167 76.594 64.5516 76.1977L68.0337 72.6095C68.4184 72.2132 68.4089 71.5801 68.0125 71.1955L64.3512 67.6424C63.3449 66.6658 63.1493 65.1224 63.8803 63.9258L86.6452 26.6543C87.1325 25.8565 87.0021 24.8275 86.3313 24.1765L74.92 13.1025C74.5236 12.7179 73.8905 12.7274 73.5059 13.1238L72.8095 13.8414L82.1387 22.8948C82.5351 23.2795 82.5446 23.9126 82.16 24.3089L23.6607 84.5902C23.2761 84.9866 22.643 84.9961 22.2467 84.6115L0.717635 63.7189C0.321296 63.3343 0.311798 62.7012 0.69642 62.3048L59.1956 2.02348C59.5803 1.62714 60.2134 1.61764 60.6097 2.00226L62.7626 4.09152ZM22.1618 78.9552C22.5582 79.3399 23.1913 79.3304 23.5759 78.934L76.5037 24.3938C76.8884 23.9974 76.8789 23.3643 76.4825 22.9797L60.6946 7.65848C60.2982 7.27386 59.6651 7.28336 59.2805 7.6797L6.35264 62.22C5.96801 62.6163 5.97751 63.2494 6.37385 63.634L22.1618 78.9552ZM78.5967 69.6223C78.2004 69.2377 77.5673 69.2472 77.1827 69.6435L75.0934 71.7964L70.2185 76.8199C69.8338 77.2162 69.8433 77.8493 70.2397 78.2339L91.7687 99.1265C92.1651 99.5111 92.7982 99.5016 93.1828 99.1053L100.147 91.9289C100.532 91.5326 100.522 90.8995 100.126 90.5149L78.5967 69.6223Z" fill="#183A5D"/>
<path d="M69.939 11.0557L62.7626 4.09152L60.6097 2.00226M69.939 11.0557L72.8095 13.8414M69.939 11.0557L73.421 7.46754M72.8095 13.8414L73.5059 13.1238M72.8095 13.8414L82.1387 22.8948M60.6097 2.00226C60.2134 1.61764 59.5803 1.62714 59.1956 2.02348M60.6097 2.00226V2.00226C60.2134 1.61764 59.5803 1.62714 59.1956 2.02348V2.02348M73.421 7.46754C73.8057 7.0712 74.4388 7.0617 74.8351 7.44632M73.421 7.46754V7.46754C73.8057 7.0712 74.4388 7.0617 74.8351 7.44632V7.44632M74.8351 7.44632L90.1036 22.2634M90.1036 22.2634C91.454 23.5739 91.7084 25.6484 90.7147 27.2463M90.1036 22.2634V22.2634C91.454 23.5739 91.7084 25.6484 90.7147 27.2463V27.2463M90.7147 27.2463L68.4094 63.1152M68.4094 63.1152C67.9126 63.9141 68.0398 64.9514 68.715 65.6066M68.4094 63.1152V63.1152C67.9126 63.9141 68.0398 64.9514 68.715 65.6066V65.6066M68.715 65.6066L71.1464 67.9661M71.1464 67.9661C71.5427 68.3507 72.1758 68.3412 72.5605 67.9449M71.1464 67.9661V67.9661C71.5427 68.3507 72.1758 68.3412 72.5605 67.9449V67.9449M72.5605 67.9449L76.3908 63.9979M76.3908 63.9979V63.9979C76.7747 63.6023 77.4072 63.5949 77.8003 63.9813V63.9813M76.3908 63.9979C76.7747 63.6023 77.4072 63.5949 77.8003 63.9813M64.5728 77.6117C64.1765 77.2271 64.167 76.594 64.5516 76.1977M64.5728 77.6117V77.6117C64.1765 77.2271 64.167 76.594 64.5516 76.1977V76.1977M64.5728 77.6117L90.3895 102.665M64.5516 76.1977L68.0337 72.6095M68.0337 72.6095C68.4184 72.2132 68.4089 71.5801 68.0125 71.1955M68.0337 72.6095V72.6095C68.4184 72.2132 68.4089 71.5801 68.0125 71.1955V71.1955M68.0125 71.1955L64.3512 67.6424M64.3512 67.6424C63.3449 66.6658 63.1493 65.1224 63.8803 63.9258M64.3512 67.6424V67.6424C63.3449 66.6658 63.1493 65.1224 63.8803 63.9258V63.9258M63.8803 63.9258L86.6452 26.6543M86.6452 26.6543C87.1325 25.8565 87.0021 24.8275 86.3313 24.1765M86.6452 26.6543V26.6543C87.1325 25.8565 87.0021 24.8275 86.3313 24.1765V24.1765M86.3313 24.1765L74.92 13.1025M74.92 13.1025C74.5236 12.7179 73.8905 12.7274 73.5059 13.1238M74.92 13.1025V13.1025C74.5236 12.7179 73.8905 12.7274 73.5059 13.1238V13.1238M82.1387 22.8948C82.5351 23.2795 82.5446 23.9126 82.16 24.3089M82.1387 22.8948V22.8948C82.5351 23.2795 82.5446 23.9126 82.16 24.3089V24.3089M82.16 24.3089L23.6607 84.5902M23.6607 84.5902C23.2761 84.9866 22.643 84.9961 22.2467 84.6115M23.6607 84.5902V84.5902C23.2761 84.9866 22.643 84.9961 22.2467 84.6115V84.6115M22.2467 84.6115L0.717635 63.7189M0.717635 63.7189C0.321296 63.3343 0.311798 62.7012 0.69642 62.3048M0.717635 63.7189V63.7189C0.321296 63.3343 0.311798 62.7012 0.69642 62.3048V62.3048M0.69642 62.3048L59.1956 2.02348M77.8003 63.9813L103.392 89.1393M103.392 89.1393C104.561 90.2886 104.591 92.1636 103.46 93.3497M103.392 89.1393V89.1393C104.561 90.2886 104.591 92.1636 103.46 93.3497V93.3497M103.46 93.3497L94.6492 102.583M94.6492 102.583C93.4986 103.789 91.5856 103.826 90.3895 102.665M94.6492 102.583V102.583C93.4986 103.789 91.5856 103.826 90.3895 102.665V102.665M75.0934 71.7964L77.1827 69.6435C77.5673 69.2472 78.2004 69.2377 78.5967 69.6223L100.126 90.5149C100.522 90.8995 100.532 91.5326 100.147 91.9289L93.1828 99.1053C92.7982 99.5016 92.1651 99.5111 91.7687 99.1265L70.2397 78.2339C69.8433 77.8493 69.8338 77.2162 70.2185 76.8199L75.0934 71.7964ZM6.35264 62.22L59.2805 7.6797C59.6651 7.28336 60.2982 7.27386 60.6946 7.65848L76.4825 22.9797C76.8789 23.3643 76.8884 23.9974 76.5037 24.3938L23.5759 78.934C23.1913 79.3304 22.5582 79.3399 22.1618 78.9552L6.37385 63.634C5.97751 63.2494 5.96801 62.6163 6.35264 62.22Z" stroke="#183A5D"/>
</g>
<defs>
<clipPath id="clip0_370_910">
<rect width="105" height="104" fill="white"/>
</clipPath>
</defs>
</svg>
