<svg width="34" height="34" viewBox="0 0 34 34" fill="none" xmlns="http://www.w3.org/2000/svg">
<g clip-path="url(#clip0_349_550)">
<circle cx="17" cy="17" r="16" stroke="#185488"/>
<path fill-rule="evenodd" clip-rule="evenodd" d="M14.2175 24.5C19.8778 24.5 22.9738 18.7283 22.9738 13.7236C22.9738 13.5593 22.9737 13.3963 22.9647 13.2338C23.567 12.6985 24.0868 12.0338 24.5 11.2732C23.939 11.5797 23.3427 11.7806 22.733 11.8692C23.375 11.3957 23.8558 10.6518 24.086 9.77401C23.4815 10.2152 22.8207 10.5266 22.1315 10.6937C20.966 9.16884 19.0168 9.09496 17.777 10.5293C16.9783 11.4542 16.6385 12.8332 16.8868 14.1485C14.4125 13.9952 12.107 12.5572 10.544 10.1915C9.72725 11.9222 10.145 14.1353 11.4973 15.2466C11.0075 15.2291 10.5283 15.0668 10.1 14.7733V14.8214C10.1008 16.624 11.1335 18.1762 12.569 18.5334C12.116 18.6857 11.6405 18.7078 11.18 18.598C11.5827 20.1413 12.7385 21.1983 14.0547 21.2288C12.965 22.2829 11.6188 22.8552 10.2328 22.8534C9.98825 22.8525 9.74375 22.8349 9.5 22.7989C10.9078 23.9102 12.545 24.5 14.2175 24.4973" fill="#185488"/>
</g>
<defs>
<clipPath id="clip0_349_550">
<rect width="33" height="33" fill="white" transform="translate(0.5 0.5)"/>
</clipPath>
</defs>
</svg>
