<svg width="46" height="46" viewBox="0 0 46 46" fill="none" xmlns="http://www.w3.org/2000/svg">
<g clip-path="url(#clip0_107_14)">
<circle cx="23" cy="23" r="23" fill="#F9DA75"/>
<path d="M22.7836 10C20.5629 10.0024 18.3812 10.5824 16.4528 11.683C14.5243 12.7835 12.9157 14.3668 11.7849 16.2771C10.6542 18.1874 10.0403 20.359 10.0036 22.5783C9.9669 24.7976 10.5087 26.9883 11.5756 28.9349L10 35.5556L16.6237 33.9806C18.3321 34.9174 20.2321 35.4514 22.1785 35.5418C24.125 35.6322 26.0664 35.2767 27.8543 34.5023C29.6423 33.728 31.2295 32.5554 32.4946 31.074C33.7597 29.5927 34.6694 27.8419 35.1539 25.9554C35.6385 24.069 35.6852 22.0967 35.2905 20.1894C34.8958 18.2821 34.0701 16.4902 32.8765 14.9507C31.6829 13.4112 30.153 12.1648 28.4038 11.3068C26.6545 10.4487 24.7321 10.0018 22.7836 10ZM16.3918 15.8065H19.876C20.0337 15.8065 20.185 15.8691 20.2965 15.9805C20.408 16.092 20.4706 16.2432 20.4706 16.4008C20.4511 17.1934 20.5844 17.9823 20.8631 18.7245C20.9831 18.973 21.0095 19.2564 20.9374 19.5228C20.8653 19.7891 20.6996 20.0206 20.4706 20.1747L19.2517 21.3633C19.7922 22.4182 20.4989 23.3794 21.3447 24.2101C22.169 25.0693 23.1267 25.7898 24.1808 26.3437L25.37 25.1253C25.9646 24.531 26.2381 24.531 26.8208 24.7331C27.5634 25.0116 28.3527 25.1448 29.1456 25.1253C29.301 25.1326 29.448 25.1975 29.558 25.3074C29.668 25.4173 29.733 25.5643 29.7402 25.7196V29.2023C29.733 29.3576 29.668 29.5046 29.558 29.6145C29.448 29.7245 29.301 29.7894 29.1456 29.7966C25.648 29.6443 22.3327 28.195 19.8463 25.7315C17.3778 23.2489 15.9272 19.9335 15.7794 16.4364C15.7808 16.2728 15.8452 16.1161 15.9593 15.9988C16.0733 15.8814 16.2282 15.8126 16.3918 15.8065Z" stroke="black" stroke-width="0.7" stroke-linecap="round" stroke-linejoin="round"/>
</g>
<defs>
<clipPath id="clip0_107_14">
<rect width="46" height="46" fill="white"/>
</clipPath>
</defs>
</svg>
