<svg width="70" height="70" viewBox="0 0 70 70" fill="none" xmlns="http://www.w3.org/2000/svg">
<path d="M29.245 43.6436V46.425C29.245 47.3542 28.6862 48.1923 27.8284 48.5498L18.639 52.3788C16.6976 53.1877 15.4331 55.3864 15.4331 57.4896V68.5718H54.567V57.4896C54.567 55.3864 53.3023 53.1876 51.3611 52.3788L42.1717 48.5498C41.3138 48.1925 40.7551 47.3541 40.7551 46.425V43.6436H29.245Z" fill="white"/>
<path d="M51.3609 52.3789L42.1715 48.5499C41.4609 48.2539 40.9567 47.6275 40.8042 46.893C39.5902 48.815 37.4483 50.0927 35.007 50.0927C32.5585 50.0927 30.4112 48.8076 29.199 46.8762C29.0508 47.6178 28.5445 48.2515 27.8284 48.5499L18.639 52.3789C16.6976 53.1878 15.4331 55.3865 15.4331 57.4897V68.5719H54.5669V57.4895C54.5669 55.3867 53.3022 53.1878 51.3609 52.3789Z" fill="#F9DA75"/>
<path d="M29.199 46.8762C29.0508 47.6178 28.5445 48.2515 27.8284 48.5499L27.606 48.6426L30.2711 56.1077L35.0069 50.0927C32.5584 50.0927 30.4111 48.8076 29.199 46.8762Z" fill="#F9DA75"/>
<path d="M40.8153 46.8762C40.9636 47.6178 41.4697 48.2515 42.1859 48.5499L42.4083 48.6426L39.7431 56.1077L35.0073 50.0927C37.4557 50.0927 39.603 48.8076 40.8153 46.8762Z" fill="#F9DA75"/>
<path d="M47.8507 27.2502V23.0897C47.8507 16.0063 42.1084 10.2642 35.0252 10.2642C27.9418 10.2642 22.1996 16.0065 22.1996 23.0897H22.1493V27.2502C20.3829 27.2502 18.9509 28.6822 18.9509 30.4486C18.9509 32.215 20.3829 33.647 22.1493 33.647V36.0348C22.3033 38.0485 23.2852 39.8413 24.7721 40.8232L32.5038 45.2433C34.0563 46.2687 35.9441 46.2687 37.4966 45.2433L45.2051 40.8232C46.6919 39.8413 47.6968 38.0485 47.8509 36.0348V33.647C49.6173 33.647 51.0493 32.215 51.0493 30.4486C51.049 28.6819 49.6172 27.2502 47.8507 27.2502Z" fill="white"/>
<path d="M50.7284 19.5995H49.848C49.6102 15.8744 48.0138 12.4079 45.3195 9.79341C43.3311 7.8639 40.8956 6.54757 38.2542 5.93972V3.83166C38.2542 3.51584 38.0265 3.25977 37.7457 3.25977H32.2543C31.9735 3.25977 31.7458 3.51584 31.7458 3.83166V5.87998C29.0001 6.45843 26.4656 7.79814 24.4094 9.79341C21.7151 12.4079 20.1185 15.8744 19.8807 19.5995H19.2716C18.9908 19.5995 18.7632 19.8272 18.7632 20.108V22.9554C18.7632 23.2362 18.9908 23.4639 19.2716 23.4639H50.7285C51.0093 23.4639 51.237 23.2362 51.237 22.9554V20.108C51.237 19.8272 51.0093 19.5995 50.7284 19.5995Z" fill="#F9DA75"/>
<path d="M61.2772 14.9193L59.331 23.5012C59.2177 24.0011 59.3716 24.071 59.673 23.6563L67.6424 12.6937C67.9436 12.279 67.7708 11.94 67.2581 11.94H63.0644L64.2266 3.4231C64.2957 2.91533 64.1309 2.85613 63.8602 3.29144L57.1211 14.1279C56.8507 14.5632 57.0485 14.9193 57.5613 14.9193H61.2772Z" fill="#F9DA75"/>
<path d="M50.522 63.8602H45.1649C44.3765 63.8602 43.7371 63.2209 43.7371 62.4323C43.7371 61.6437 44.3765 61.0044 45.1649 61.0044H50.522C51.3104 61.0044 51.9499 61.6437 51.9499 62.4323C51.9499 63.2209 51.3104 63.8602 50.522 63.8602Z" fill="#082D53"/>
<path d="M24.8001 63.8602H19.443C18.6546 63.8602 18.0151 63.2209 18.0151 62.4323C18.0151 61.6437 18.6546 61.0044 19.443 61.0044H24.8001C25.5885 61.0044 26.228 61.6437 26.228 62.4323C26.228 63.2209 25.5887 63.8602 24.8001 63.8602Z" fill="#082D53"/>
<path d="M55 69V57.6315C55 54.8995 53.3734 52.3047 51.0448 51.3212L42.1462 47.563C41.8298 47.4294 41.6254 47.1185 41.6254 46.7709V44.5886L45.2397 42.4881C45.2649 42.4733 45.2896 42.4579 45.3138 42.4416C47.1235 41.2302 48.3117 39.076 48.4924 36.6788C48.4952 36.6434 48.4964 36.6076 48.4964 36.572V35.4085C50.2919 34.8166 51.5934 33.1038 51.5934 31.0889C51.5934 29.0739 50.2919 27.3613 48.4964 26.7692V25.6346H49.9004C50.9344 25.6346 51.7756 24.782 51.7756 23.7339V20.939C51.7756 20.0293 51.1419 19.2669 50.2983 19.0815C49.7995 15.5636 48.1673 12.3088 45.6255 9.80887C43.8058 8.01909 41.6034 6.70115 39.2037 5.95716V4.96276C39.2037 3.88033 38.3625 3 37.3285 3H32.0109C30.9769 3 30.1357 3.8806 30.1357 4.96276V5.87812C27.6334 6.60533 25.3406 7.95052 23.4513 9.80874C20.8896 12.3284 19.2517 15.6148 18.7671 19.1643C18.064 19.4387 17.564 20.1306 17.564 20.9387V23.7337C17.564 24.7817 18.4052 25.6343 19.4391 25.6343H20.8432V26.7689C19.0477 27.3609 17.7461 29.0736 17.7461 31.0886C17.7461 33.1035 19.0477 34.8162 20.8432 35.4082V36.5717C20.8432 36.6073 20.8445 36.6431 20.8471 36.6785C21.0286 39.0855 22.2086 41.2398 24.0035 42.4414C24.0282 42.458 24.0534 42.4737 24.0792 42.4886L27.7141 44.5949V46.7707C27.7141 47.1181 27.5096 47.4289 27.1933 47.5627L18.2948 51.321C15.966 52.3045 14.3396 54.8995 14.3396 57.6312V67.1075L14.3393 69C13.5758 69 14.3393 68.226 14.3393 69H55ZM20.3293 21.8083C20.9178 21.676 21.369 21.1631 21.4087 20.5294C21.617 17.2259 23.0262 14.1331 25.3772 11.8209C27.1644 10.063 29.3865 8.86131 31.8037 8.34506C32.4434 8.20844 32.9012 7.63636 32.9012 6.9737V5.80324H36.4383V7.03234C36.4383 7.68534 36.8832 8.25166 37.5108 8.39806C39.8343 8.94022 41.9744 10.1236 43.6997 11.8208C46.0507 14.133 47.4599 17.2257 47.6682 20.5293C47.7138 21.2544 48.2978 21.8215 49.0102 21.841V22.8316H20.3293V21.8083ZM25.4934 40.0796C24.4369 39.3544 23.7355 38.0284 23.6083 36.5156V34.2282C23.6083 33.4542 22.9891 32.8267 22.2256 32.8267C21.2803 32.8267 20.5112 32.047 20.5112 31.089C20.5112 30.131 21.2804 29.3513 22.2256 29.3513C22.9891 29.3513 23.6083 28.7238 23.6083 27.9497V25.6348H45.7309V27.9497C45.7309 28.7238 46.3501 29.3513 47.1136 29.3513C48.0588 29.3513 48.8279 30.131 48.8279 31.089C48.8279 32.047 48.0587 32.8267 47.1136 32.8267C46.3501 32.8267 45.7309 33.4542 45.7309 34.2282V36.5154C45.6054 37.9974 44.8783 39.3556 43.8227 40.0802L36.3993 44.3947C36.3741 44.4095 36.3493 44.4249 36.3251 44.4412C35.2884 45.1351 34.051 45.1351 33.0143 44.4412C32.9895 44.4246 32.9644 44.4088 32.9386 44.3939L25.4934 40.0796ZM33.2939 67.1078H17.1048V57.6315C17.1048 56.0519 18.0737 54.4513 19.3584 53.9086L26.6972 50.8091L28.7885 56.7463C28.9577 57.2267 29.371 57.5759 29.8676 57.6583C29.9421 57.6707 30.0167 57.6767 30.0908 57.6767C30.5105 57.6767 30.9124 57.4828 31.1771 57.1422L33.2939 54.4169V67.1078ZM29.2031 49.5872C30.0487 50.3909 31.0518 50.9948 32.1471 51.3617L30.5517 53.4158L29.2031 49.5872ZM30.477 46.8391C30.4774 46.8163 30.4795 46.7939 30.4795 46.7708V46.1974L31.5302 46.8062C32.5009 47.4451 33.5853 47.7645 34.67 47.7645C35.7549 47.7645 36.8397 47.4449 37.8106 46.8056L38.8602 46.1955V46.7707C38.8602 46.7993 38.8627 46.8273 38.8632 46.8556C37.8714 48.1858 36.3384 48.9691 34.6766 48.9691C33.0065 48.9694 31.4682 48.1797 30.477 46.8391ZM40.1503 49.5864L38.8015 53.4157L37.2057 51.361C38.3009 50.9941 39.3045 50.3902 40.1503 49.5864ZM52.2347 67.1078L36.0591 67.1075V54.4164L38.1761 57.1419C38.4407 57.4827 38.8427 57.6764 39.2624 57.6764C39.3364 57.6764 39.411 57.6704 39.4856 57.6581C39.9822 57.5758 40.3955 57.2265 40.5647 56.7461L42.6542 50.8139L49.9813 53.9085C51.2659 54.451 52.2347 56.0516 52.2347 57.6314V67.1078Z" fill="#082D53"/>
<path d="M36.6637 12.9191H36.4338L37.0629 12.143C37.5595 11.5304 37.4653 10.6312 36.8528 10.1347C36.2404 9.63832 35.3408 9.73238 34.8445 10.3449L32.3293 13.448C31.9826 13.8758 31.9129 14.4646 32.1497 14.9614C32.3865 15.4583 32.888 15.7749 33.4385 15.7749H33.5549L32.6245 16.8579C32.1106 17.456 32.1792 18.3575 32.7771 18.8715C33.0467 19.1029 33.3776 19.2163 33.7069 19.2163C34.1087 19.2163 34.5082 19.0476 34.7908 18.7187L37.7469 15.2774C38.1105 14.8541 38.1942 14.258 37.9613 13.7511C37.7285 13.2441 37.2217 12.9191 36.6637 12.9191Z" fill="#082D53"/>
<path d="M64.0656 45.7926H62.9349V40.1514L64.6547 38.6634C64.9075 38.4448 65.0047 38.1166 64.9071 37.8124L63.879 34.6109C63.7628 34.249 63.3971 34 62.9816 34H61.0188C60.6033 34 60.2376 34.2489 60.1214 34.6109L59.0933 37.8124C58.9956 38.1165 59.0929 38.4448 59.3456 38.6634L61.0654 40.1514V45.7926H59.9347C59.4186 45.7926 59 46.1723 59 46.6407V54.278C59 55.7789 60.3458 57 62 57C63.6542 57 65 55.7789 65 54.278V46.6407C65.0003 46.1723 64.5818 45.7926 64.0656 45.7926ZM61.7201 35.6962H62.2805L62.9535 37.7917L62.0003 38.6164L61.047 37.7917L61.7201 35.6962ZM63.1309 54.278C63.1309 54.8436 62.6236 55.3039 62.0002 55.3039C61.3767 55.3039 60.8695 54.8436 60.8695 54.278V47.4888H63.1308L63.1309 54.278Z" fill="#082D53"/>
</svg>
