<svg width="101" height="103" viewBox="0 0 101 103" fill="none" xmlns="http://www.w3.org/2000/svg">
<g clip-path="url(#clip0_370_914)">
<rect x="53.1826" y="18" width="45.7237" height="6" transform="rotate(44.1965 53.1826 18)" fill="#F9DA75"/>
<rect x="20.1826" y="47" width="45.7237" height="6" transform="rotate(44.1965 20.1826 47)" fill="#F9DA75"/>
<path fill-rule="evenodd" clip-rule="evenodd" d="M13.0172 95.2357L15.168 97.3271C15.5639 97.7121 16.197 97.7032 16.582 97.3073L24.9477 88.704C25.3327 88.3081 25.9658 88.2992 26.3618 88.6842L30.3049 92.5185C34.6604 96.7537 41.6245 96.6562 45.8598 92.3007L55.2711 82.622C55.6561 82.2261 56.2892 82.2172 56.6852 82.6022L59.1945 85.0422C59.5904 85.4272 60.2235 85.4184 60.6085 85.0224L62.3514 83.2301C62.7364 82.8341 62.7275 82.201 62.3316 81.816L20.3908 41.0334C19.9948 40.6484 19.3617 40.6573 18.9767 41.0532L17.2338 42.8456C16.8488 43.2415 16.8577 43.8746 17.2536 44.2597L19.4045 46.3511C19.8004 46.7361 19.8093 47.3692 19.4243 47.7651L10.0129 57.4438C5.77769 61.7993 5.8752 68.7634 10.2307 72.9986L15.2492 77.8786C15.6452 78.2636 15.6541 78.8967 15.269 79.2927L6.90339 87.8959C6.51837 88.2919 6.52724 88.925 6.92319 89.31L8.35707 90.7043C8.75302 91.0893 9.38612 91.0804 9.77114 90.6845L18.1368 82.0812C18.5218 81.6853 19.1549 81.6764 19.5509 82.0614L21.3432 83.8043C21.7392 84.1893 21.748 84.8224 21.363 85.2183L12.9974 93.8216C12.6123 94.2175 12.6212 94.8506 13.0172 95.2357ZM14.0946 71.1766C10.927 68.0964 10.8561 63.0316 13.9362 59.864L22.6505 50.9023C23.0355 50.5063 23.6686 50.4974 24.0645 50.8825L51.6666 77.7223C52.0626 78.1073 52.0714 78.7404 51.6864 79.1363L42.9722 88.0981C39.8921 91.2657 34.8272 91.3366 31.6596 88.2565L14.0946 71.1766Z" fill="#183A5D"/>
<path d="M15.168 97.3271L13.0172 95.2357M15.168 97.3271C15.5639 97.7121 16.197 97.7032 16.582 97.3073M15.168 97.3271V97.3271C15.5639 97.7121 16.197 97.7032 16.582 97.3073V97.3073M13.0172 95.2357C12.6212 94.8506 12.6123 94.2175 12.9974 93.8216M13.0172 95.2357V95.2357C12.6212 94.8506 12.6123 94.2175 12.9974 93.8216V93.8216M12.9974 93.8216L21.363 85.2183M21.363 85.2183C21.748 84.8224 21.7392 84.1893 21.3432 83.8043M21.363 85.2183V85.2183C21.748 84.8224 21.7392 84.1893 21.3432 83.8043V83.8043M21.3432 83.8043L19.5509 82.0614M19.5509 82.0614C19.1549 81.6764 18.5218 81.6853 18.1368 82.0812M19.5509 82.0614V82.0614C19.1549 81.6764 18.5218 81.6853 18.1368 82.0812V82.0812M18.1368 82.0812L9.77114 90.6845M9.77114 90.6845C9.38612 91.0804 8.75302 91.0893 8.35707 90.7043M9.77114 90.6845V90.6845C9.38612 91.0804 8.75302 91.0893 8.35707 90.7043V90.7043M8.35707 90.7043L6.92319 89.31M6.92319 89.31C6.52724 88.925 6.51837 88.2919 6.90339 87.8959M6.92319 89.31V89.31C6.52724 88.925 6.51837 88.2919 6.90339 87.8959V87.8959M6.90339 87.8959L15.269 79.2927M15.269 79.2927C15.6541 78.8967 15.6452 78.2636 15.2492 77.8786M15.269 79.2927V79.2927C15.6541 78.8967 15.6452 78.2636 15.2492 77.8786V77.8786M15.2492 77.8786L10.2307 72.9986M10.2307 72.9986C5.8752 68.7634 5.77769 61.7993 10.0129 57.4438M10.2307 72.9986V72.9986C5.8752 68.7634 5.77769 61.7993 10.0129 57.4438V57.4438M10.0129 57.4438L19.4243 47.7651M19.4243 47.7651C19.8093 47.3692 19.8004 46.7361 19.4045 46.3511M19.4243 47.7651V47.7651C19.8093 47.3692 19.8004 46.7361 19.4045 46.3511V46.3511M19.4045 46.3511L17.2536 44.2597M17.2536 44.2597C16.8577 43.8746 16.8488 43.2415 17.2338 42.8456M17.2536 44.2597V44.2597C16.8577 43.8746 16.8488 43.2415 17.2338 42.8456V42.8456M17.2338 42.8456L18.9767 41.0532M18.9767 41.0532C19.3617 40.6573 19.9948 40.6484 20.3908 41.0334M18.9767 41.0532V41.0532C19.3617 40.6573 19.9948 40.6484 20.3908 41.0334V41.0334M20.3908 41.0334L62.3316 81.816M62.3316 81.816C62.7275 82.201 62.7364 82.8341 62.3514 83.2301M62.3316 81.816V81.816C62.7275 82.201 62.7364 82.8341 62.3514 83.2301V83.2301M62.3514 83.2301L60.6085 85.0224M60.6085 85.0224C60.2235 85.4184 59.5904 85.4272 59.1945 85.0422M60.6085 85.0224V85.0224C60.2235 85.4184 59.5904 85.4272 59.1945 85.0422V85.0422M59.1945 85.0422L56.6852 82.6022M56.6852 82.6022C56.2892 82.2172 55.6561 82.2261 55.2711 82.622M56.6852 82.6022V82.6022C56.2892 82.2172 55.6561 82.2261 55.2711 82.622V82.622M55.2711 82.622L45.8598 92.3007M45.8598 92.3007C41.6245 96.6562 34.6604 96.7537 30.3049 92.5185M45.8598 92.3007V92.3007C41.6245 96.6562 34.6604 96.7537 30.3049 92.5185V92.5185M30.3049 92.5185L26.3618 88.6842M26.3618 88.6842C25.9658 88.2992 25.3327 88.3081 24.9477 88.704M26.3618 88.6842V88.6842C25.9658 88.2992 25.3327 88.3081 24.9477 88.704V88.704M24.9477 88.704L16.582 97.3073M51.6864 79.1363L42.9722 88.0981C39.8921 91.2657 34.8272 91.3366 31.6596 88.2565L14.0946 71.1766C10.927 68.0964 10.8561 63.0316 13.9362 59.864L22.6505 50.9023C23.0355 50.5063 23.6686 50.4974 24.0645 50.8825L51.6666 77.7223C52.0626 78.1073 52.0714 78.7404 51.6864 79.1363Z" stroke="#183A5D"/>
<path fill-rule="evenodd" clip-rule="evenodd" d="M89.9225 6.82268L87.7717 4.73127C87.3757 4.34625 86.7426 4.35511 86.3576 4.75107L77.992 13.3543C77.6069 13.7503 76.9738 13.7591 76.5779 13.3741L72.6347 9.53985C68.2792 5.30465 61.3151 5.40216 57.0799 9.75765L47.6685 19.4363C47.2835 19.8323 46.6504 19.8411 46.2545 19.4561L43.7452 17.0161C43.3492 16.6311 42.7161 16.64 42.3311 17.0359L40.5883 18.8283C40.2033 19.2242 40.2121 19.8573 40.6081 20.2423L50.6452 30.0023L53.5129 32.7908L68.9271 47.7793L71.7948 50.5678L82.5489 61.0249C82.9448 61.4099 83.5779 61.401 83.963 61.0051L85.7058 59.2128C86.0908 58.8168 86.082 58.1837 85.686 57.7987L83.5352 55.7073C83.1392 55.3222 83.1304 54.6891 83.5154 54.2932L92.9268 44.6145C97.162 40.259 97.0645 33.2949 92.709 29.0597L87.6904 24.1797C87.2945 23.7947 87.2856 23.1616 87.6706 22.7657L96.0363 14.1624C96.4213 13.7665 96.4124 13.1334 96.0165 12.7484L94.5826 11.3541C94.1866 10.9691 93.5535 10.9779 93.1685 11.3739L84.8029 19.9771C84.4178 20.3731 83.7847 20.3819 83.3888 19.9969L81.5964 18.2541C81.2005 17.8691 81.1916 17.236 81.5766 16.84L89.9423 8.23676C90.3273 7.8408 90.3185 7.2077 89.9225 6.82268ZM88.845 30.8818C92.0126 33.9619 92.0836 39.0267 89.0034 42.1944L80.2892 51.1561C79.9042 51.552 79.2711 51.5609 78.8751 51.1759L74.932 47.3416L53.7823 26.776L51.273 24.3361C50.8771 23.951 50.8682 23.3179 51.2532 22.922L59.9675 13.9603C63.0476 10.7926 68.1124 10.7217 71.2801 13.8019L88.845 30.8818Z" fill="#183A5D"/>
<path d="M68.9271 47.7793L57.4243 59.6087C57.0393 60.0047 57.0482 60.6378 57.4441 61.0228L58.878 62.4171C59.2739 62.8021 59.907 62.7932 60.2921 62.3973L71.7948 50.5678L68.9271 47.7793Z" fill="#183A5D"/>
<path d="M50.6452 30.0023L39.1424 41.8317C38.7574 42.2277 38.7663 42.8608 39.1622 43.2458L40.5961 44.6401C40.992 45.0251 41.6251 45.0162 42.0102 44.6203L53.5129 32.7908L50.6452 30.0023Z" fill="#183A5D"/>
<path d="M87.7717 4.73127L89.9225 6.82268M87.7717 4.73127C87.3757 4.34625 86.7426 4.35511 86.3576 4.75107M87.7717 4.73127V4.73127C87.3757 4.34625 86.7426 4.35511 86.3576 4.75107V4.75107M89.9225 6.82268C90.3185 7.2077 90.3273 7.8408 89.9423 8.23676M89.9225 6.82268V6.82268C90.3185 7.2077 90.3273 7.8408 89.9423 8.23676V8.23676M89.9423 8.23676L81.5766 16.84M81.5766 16.84C81.1916 17.236 81.2005 17.8691 81.5964 18.2541M81.5766 16.84V16.84C81.1916 17.236 81.2005 17.8691 81.5964 18.2541V18.2541M81.5964 18.2541L83.3888 19.9969M83.3888 19.9969C83.7847 20.3819 84.4178 20.3731 84.8029 19.9771M83.3888 19.9969V19.9969C83.7847 20.3819 84.4178 20.3731 84.8029 19.9771V19.9771M84.8029 19.9771L93.1685 11.3739M93.1685 11.3739C93.5535 10.9779 94.1866 10.9691 94.5826 11.3541M93.1685 11.3739V11.3739C93.5535 10.9779 94.1866 10.9691 94.5826 11.3541V11.3541M94.5826 11.3541L96.0165 12.7484M96.0165 12.7484C96.4124 13.1334 96.4213 13.7665 96.0363 14.1624M96.0165 12.7484V12.7484C96.4124 13.1334 96.4213 13.7665 96.0363 14.1624V14.1624M96.0363 14.1624L87.6706 22.7657M87.6706 22.7657C87.2856 23.1616 87.2945 23.7947 87.6904 24.1797M87.6706 22.7657V22.7657C87.2856 23.1616 87.2945 23.7947 87.6904 24.1797V24.1797M87.6904 24.1797L92.709 29.0597M92.709 29.0597C97.0645 33.2949 97.162 40.2591 92.9268 44.6145M92.709 29.0597V29.0597C97.0645 33.2949 97.162 40.2591 92.9268 44.6145V44.6145M92.9268 44.6145L83.5154 54.2932M83.5154 54.2932C83.1304 54.6891 83.1392 55.3222 83.5352 55.7073M83.5154 54.2932V54.2932C83.1304 54.6891 83.1392 55.3222 83.5352 55.7073V55.7073M83.5352 55.7073L85.686 57.7987M85.686 57.7987C86.082 58.1837 86.0908 58.8168 85.7058 59.2128M85.686 57.7987V57.7987C86.082 58.1837 86.0908 58.8168 85.7058 59.2128V59.2128M85.7058 59.2128L83.963 61.0051M83.963 61.0051C83.5779 61.401 82.9448 61.4099 82.5489 61.0249M83.963 61.0051V61.0051C83.5779 61.401 82.9448 61.4099 82.5489 61.0249V61.0249M82.5489 61.0249L71.7948 50.5678M40.6081 20.2423C40.2121 19.8573 40.2033 19.2242 40.5883 18.8283M40.6081 20.2423V20.2423C40.2121 19.8573 40.2033 19.2242 40.5883 18.8283V18.8283M40.6081 20.2423L50.6452 30.0023M40.5883 18.8283L42.3311 17.0359M42.3311 17.0359C42.7161 16.64 43.3492 16.6311 43.7452 17.0161M42.3311 17.0359V17.0359C42.7161 16.64 43.3492 16.6311 43.7452 17.0161V17.0161M43.7452 17.0161L46.2545 19.4561M46.2545 19.4561C46.6504 19.8411 47.2835 19.8323 47.6685 19.4363M46.2545 19.4561V19.4561C46.6504 19.8411 47.2835 19.8323 47.6685 19.4363V19.4363M47.6685 19.4363L57.0799 9.75765M57.0799 9.75765C61.3151 5.40216 68.2792 5.30465 72.6347 9.53985M57.0799 9.75765V9.75765C61.3151 5.40216 68.2792 5.30465 72.6347 9.53985V9.53985M72.6347 9.53985L76.5779 13.3741M76.5779 13.3741C76.9738 13.7591 77.6069 13.7503 77.992 13.3543M76.5779 13.3741V13.3741C76.9738 13.7591 77.6069 13.7503 77.992 13.3543V13.3543M77.992 13.3543L86.3576 4.75107M50.6452 30.0023L39.1424 41.8317C38.7574 42.2277 38.7663 42.8608 39.1622 43.2458L40.5961 44.6401C40.992 45.0251 41.6251 45.0162 42.0102 44.6203L53.5129 32.7908M50.6452 30.0023L53.5129 32.7908M50.6452 30.0023L53.7823 26.776M53.5129 32.7908L68.9271 47.7793M68.9271 47.7793L57.4243 59.6087C57.0393 60.0047 57.0482 60.6378 57.4441 61.0228L58.878 62.4171C59.2739 62.8021 59.907 62.7932 60.2921 62.3973L71.7948 50.5678M68.9271 47.7793L71.7948 50.5678M53.7823 26.776L51.273 24.3361C50.8771 23.951 50.8682 23.3179 51.2532 22.922L59.9675 13.9603C63.0476 10.7926 68.1124 10.7217 71.2801 13.8019L88.845 30.8818C92.0126 33.9619 92.0836 39.0267 89.0034 42.1944L80.2892 51.1561C79.9042 51.552 79.2711 51.5609 78.8751 51.1759L74.932 47.3416L53.7823 26.776Z" stroke="#183A5D"/>
</g>
<defs>
<clipPath id="clip0_370_914">
<rect width="101" height="103" fill="white"/>
</clipPath>
</defs>
</svg>
