<svg width="36" height="37" viewBox="0 0 36 37" fill="none" xmlns="http://www.w3.org/2000/svg">
<g clip-path="url(#clip0_349_573)">
<path d="M35 18.5C35 28.191 27.3632 36 18 36C8.63681 36 1 28.191 1 18.5C1 8.80901 8.63681 1 18 1C27.3632 1 35 8.80901 35 18.5Z" stroke="white" stroke-width="2"/>
<path d="M21.0467 11.5021L23.1409 13.3614H21.0467V11.5021ZM25.0949 24.755C24.667 24.755 24.3186 25.109 24.3186 25.5486V26.4432H12.7988V10.5568H19.4979V14.1511C19.4979 14.5907 19.8463 14.9446 20.2742 14.9446H24.3224V19.7059C24.3224 20.1455 24.6708 20.4994 25.0987 20.4994C25.5266 20.4994 25.875 20.1455 25.875 19.7059V14.0422C25.875 13.8127 25.7765 13.591 25.6061 13.4431L20.7816 9.16422C20.6415 9.03975 20.4597 8.96973 20.2742 8.96973H12.0263C11.5984 8.96973 11.25 9.32371 11.25 9.76327V27.2368C11.25 27.6763 11.5984 28.0303 12.0263 28.0303H25.0987C25.5266 28.0303 25.875 27.6763 25.875 27.2368V25.5486C25.8712 25.109 25.5228 24.755 25.0949 24.755Z" fill="white"/>
<path d="M21.2392 15.4191H15.348C14.9371 15.4191 14.6025 15.7314 14.6025 16.1193C14.6025 16.5071 14.9371 16.8194 15.348 16.8194H21.2428C21.6537 16.8194 21.9883 16.5071 21.9883 16.1193C21.9883 15.7314 21.6501 15.4191 21.2392 15.4191Z" fill="white"/>
<path d="M21.2392 18.8685H15.348C14.9371 18.8685 14.6025 19.1809 14.6025 19.5687C14.6025 19.9566 14.9371 20.2689 15.348 20.2689H21.2428C21.6537 20.2689 21.9883 19.9566 21.9883 19.5687C21.9847 19.1843 21.6501 18.8685 21.2392 18.8685Z" fill="white"/>
<path d="M28.0676 20.8197C28.0313 20.4352 27.6676 20.1504 27.2603 20.1847C25.5802 20.3254 23.9838 22.0587 23.162 23.1124L22.6783 22.5942C22.4056 22.3024 21.9365 22.2749 21.6274 22.5324C21.3183 22.7898 21.2892 23.2326 21.5619 23.5209L22.6783 24.7153C23.1147 25.1237 23.5947 25.0482 23.8674 24.6226C24.3547 23.8641 26.0748 21.6915 27.3912 21.5816C27.8022 21.5439 28.104 21.2041 28.0676 20.8197Z" fill="white"/>
</g>
<defs>
<clipPath id="clip0_349_573">
<rect width="36" height="37" fill="white"/>
</clipPath>
</defs>
</svg>
