<svg width="83" height="92" viewBox="0 0 83 92" fill="none" xmlns="http://www.w3.org/2000/svg">
<g clip-path="url(#clip0_370_940)">
<path d="M25.5 4.5H52.5001L59.5001 8.5L66.5 5.5L78.0001 4.5L80.0001 27L67.0001 24L57.0001 22V29H40.0001L37 19.5L9 18L25.5 4.5Z" fill="#F9DA75"/>
<path fill-rule="evenodd" clip-rule="evenodd" d="M52.1818 91H40.7515C38.0068 91 35.7818 88.8222 35.7818 86.1357V24.8458C35.7818 22.6966 34.0018 20.9544 31.8061 20.9544H26.8364H19.8788H13.6481C10.2287 20.9544 6.85623 21.7336 3.79783 23.2304C3.6045 23.325 3.37207 23.297 3.20796 23.1593L0.848337 21.1797C0.396713 20.8008 0.383936 20.1211 0.821014 19.7262L6.46061 14.6308L14.4121 8.307L20.3148 4.45534C22.3207 3.14647 24.5805 2.27622 26.9461 1.90163L29.5 1.49724L42 1H53.9817C55.1834 1 56.1576 2.45077 56.1576 3.627C56.1576 4.86859 57.1859 5.87509 58.4544 5.87509H58.6424H61.4296C62.3605 5.87509 63.1152 5.13646 63.1152 4.22531C63.1152 3.16522 63.7745 2.21193 64.7801 1.81822L65.2424 1.63723C65.4786 1.54475 65.7307 1.49724 65.9851 1.49724H76.5333C79.5525 1.49724 82 3.89283 82 6.84795V23.3865C82 25.5357 80.22 26.7915 78.0242 26.7915H65.103V26.7915C64.2796 26.7915 63.6121 26.124 63.6121 25.3006V24.391C63.6121 23.5676 62.9446 22.9001 62.1212 22.9001V22.9001C62.1212 22.9001 59.979 22.9001 59.1394 22.9001C58.0415 22.9001 57.1515 23.7712 57.1515 24.8458V86.1357C57.1515 88.8222 54.9265 91 52.1818 91ZM55.6606 9.76652C54.5833 9.76652 53.7292 8.85773 53.796 7.78247L53.8215 7.37264C53.9182 5.8158 52.6817 4.5 51.1218 4.5H51H41.5L28.8242 4.9779V4.9779C25.5602 5.56717 22.4886 6.94192 19.8745 8.9835L18 10.4475L12.7732 15.6454C12.1331 16.282 12.5976 17.3739 13.5002 17.3542L26.8364 17.0629H31.3091H32.4612C36.4909 17.0629 39.7576 20.3297 39.7576 24.3594V24.3594V27.2508C39.7576 27.8031 40.2053 28.2508 40.7576 28.2508H52.1758C52.728 28.2508 53.1758 27.8031 53.1758 27.2508V22.9739C53.1758 21.0526 54.7333 19.4951 56.6545 19.4951V19.4951H63.8059C64.5223 19.4951 65.103 20.0758 65.103 20.7922V20.7922C65.103 22.225 66.2645 23.3865 67.6973 23.3865H76.0242C77.1288 23.3865 78.0242 22.4911 78.0242 21.3865V7.87509C78.0242 6.77052 77.1288 5.87509 76.0242 5.87509H67.0487C65.9742 5.87509 65.103 6.74622 65.103 7.8208V7.8208C65.103 8.89539 64.2319 9.76652 63.1573 9.76652H55.6606V9.76652ZM53.6727 34.1422C53.6727 33.0377 52.7773 32.1422 51.6727 32.1422H41.7576C40.653 32.1422 39.7576 33.0377 39.7576 34.1422V85.1086C39.7576 86.2132 40.653 87.1086 41.7576 87.1086H51.6727C52.7773 87.1086 53.6727 86.2131 53.6727 85.1086V34.1422Z" fill="#183A5D"/>
<path d="M59.1394 22.9001C59.979 22.9001 62.1212 22.9001 62.1212 22.9001M59.1394 22.9001C58.0415 22.9001 57.1515 23.7712 57.1515 24.8458M59.1394 22.9001H59.0972C58.0226 22.9001 57.1515 23.7712 57.1515 24.8458V24.8458M59.1394 22.9001H62.1212M29.5 1.49724L28.8242 4.9779M29.5 1.49724L26.9461 1.90163C24.5805 2.27622 22.3207 3.14647 20.3148 4.45534L14.4121 8.307L6.46061 14.6308L0.821014 19.7262M29.5 1.49724L42 1H53.9817M28.8242 4.9779V4.9779C25.5602 5.56717 22.4886 6.94192 19.8745 8.9835L18 10.4475L12.7732 15.6454C12.1331 16.282 12.5976 17.3739 13.5002 17.3542L26.8364 17.0629M28.8242 4.9779L41.5 4.5H51H51.1218C52.6817 4.5 53.9182 5.8158 53.8215 7.37264L53.796 7.78247C53.7292 8.85773 54.5833 9.76652 55.6606 9.76652V9.76652H63.1573C64.2319 9.76652 65.103 8.89539 65.103 7.8208V7.8208C65.103 6.74622 65.9742 5.87509 67.0487 5.87509H76.0242C77.1288 5.87509 78.0242 6.77052 78.0242 7.87509V21.3865C78.0242 22.4911 77.1288 23.3865 76.0242 23.3865H67.6973C66.2645 23.3865 65.103 22.225 65.103 20.7922V20.7922C65.103 20.0758 64.5223 19.4951 63.8059 19.4951H56.6545V19.4951C54.7333 19.4951 53.1758 21.0526 53.1758 22.9739V27.2508C53.1758 27.8031 52.728 28.2508 52.1758 28.2508H40.7576C40.2053 28.2508 39.7576 27.8031 39.7576 27.2508V24.3594V24.3594C39.7576 20.3297 36.4909 17.0629 32.4612 17.0629H31.3091H26.8364M26.8364 17.0629V20.9544M26.8364 20.9544H19.8788H13.6481M26.8364 20.9544H31.8061M62.1212 22.9001V22.9001C62.9446 22.9001 63.6121 23.5676 63.6121 24.391V25.3006C63.6121 26.124 64.2796 26.7915 65.103 26.7915V26.7915H78.0242M76.5333 1.49724H76.6493C79.6044 1.49724 82 3.89283 82 6.84795V6.84795M76.5333 1.49724H65.9851M76.5333 1.49724C79.5525 1.49724 82 3.89283 82 6.84795M52.1818 91H40.7515M52.1818 91C54.9265 91 57.1515 88.8222 57.1515 86.1357M52.1818 91H52.2872C54.9737 91 57.1515 88.8222 57.1515 86.1357V86.1357M40.7515 91C38.0068 91 35.7818 88.8222 35.7818 86.1357M40.7515 91H40.6461C37.9596 91 35.7818 88.8222 35.7818 86.1357V86.1357M35.7818 86.1357V24.8458M35.7818 24.8458C35.7818 22.6966 34.0018 20.9544 31.8061 20.9544M35.7818 24.8458V24.8458C35.7818 22.6966 34.0396 20.9544 31.8904 20.9544H31.8061M13.6481 20.9544C10.2287 20.9544 6.85623 21.7336 3.79783 23.2304M13.6481 20.9544V20.9544C10.2413 20.9544 6.85778 21.7329 3.79783 23.2304V23.2304M3.79783 23.2304C3.6045 23.325 3.37207 23.297 3.20796 23.1593M3.79783 23.2304V23.2304C3.60476 23.3249 3.37263 23.2975 3.20796 23.1593V23.1593M3.20796 23.1593L0.848337 21.1797M0.848337 21.1797C0.396713 20.8008 0.383936 20.1211 0.821014 19.7262M0.848337 21.1797V21.1797C0.400335 20.8038 0.387103 20.1182 0.821014 19.7262V19.7262M53.9817 1C55.1834 1 56.1576 2.45077 56.1576 3.627M53.9817 1L54.0813 1.02278C55.2961 1.30037 56.1576 2.38093 56.1576 3.627V3.627M56.1576 3.627C56.1576 4.86859 57.1859 5.87509 58.4544 5.87509M56.1576 3.627V3.627C56.1576 4.86859 57.1641 5.87509 58.4057 5.87509H58.4544M58.4544 5.87509H58.6424H61.4296M61.4296 5.87509C62.3605 5.87509 63.1152 5.13646 63.1152 4.22531M61.4296 5.87509H61.4654C62.3765 5.87509 63.1152 5.13646 63.1152 4.22531V4.22531M63.1152 4.22531C63.1152 3.16522 63.7745 2.21193 64.7801 1.81822M63.1152 4.22531V4.22531C63.1152 3.16667 63.7638 2.21615 64.7496 1.8302L64.7801 1.81822M64.7801 1.81822L65.2424 1.63723M65.2424 1.63723C65.4786 1.54475 65.7307 1.49724 65.9851 1.49724M65.2424 1.63723V1.63723C65.4787 1.54472 65.7314 1.49724 65.9851 1.49724V1.49724M82 6.84795V23.3865M82 23.3865C82 25.5357 80.22 26.7915 78.0242 26.7915M82 23.3865V23.3865C82 25.4547 80.1902 27.0565 78.1374 26.8054L78.0242 26.7915M57.1515 24.8458V86.1357M41.7576 87.1086H51.6727C52.7773 87.1086 53.6727 86.2131 53.6727 85.1086V34.1422C53.6727 33.0377 52.7773 32.1422 51.6727 32.1422H41.7576C40.653 32.1422 39.7576 33.0377 39.7576 34.1422V85.1086C39.7576 86.2132 40.653 87.1086 41.7576 87.1086Z" stroke="#183A5D"/>
</g>
<defs>
<clipPath id="clip0_370_940">
<rect width="83" height="92" fill="white"/>
</clipPath>
</defs>
</svg>
