<svg width="32" height="32" viewBox="0 0 32 32" fill="none" xmlns="http://www.w3.org/2000/svg">
<g clip-path="url(#clip0_147_52)">
<circle cx="16" cy="16" r="15" stroke="#084A83" stroke-width="2"/>
<path fill-rule="evenodd" clip-rule="evenodd" d="M19.2 12.6545C19.2 10.9432 17.7648 9.55152 16 9.55152C14.2352 9.55152 12.8 10.9432 12.8 12.6545C12.8 14.3659 14.2352 15.7576 16 15.7576C17.7648 15.7576 19.2 14.3659 19.2 12.6545ZM24 23.5152H20V21.9636H22.2272C21.5664 19.0266 19.028 17.3091 16 17.3091C12.972 17.3091 10.4336 19.0266 9.7728 21.9636H12V23.5152H8C8 19.9816 10.0664 17.3463 12.9936 16.2796C11.9008 15.4271 11.2 14.1207 11.2 12.6545C11.2 10.0837 13.3488 8 16 8C18.6512 8 20.8 10.0837 20.8 12.6545C20.8 14.1207 20.0992 15.4271 19.0064 16.2796C21.9336 17.3463 24 19.9816 24 23.5152ZM17.9312 19.4478L19.0624 20.5456L16 23.5152L13.7376 21.3213L14.8688 20.2236L16 21.3213L17.9312 19.4478Z" fill="#084A83"/>
</g>
<defs>
<clipPath id="clip0_147_52">
<rect width="32" height="32" fill="white"/>
</clipPath>
</defs>
</svg>
