<svg width="60" height="60" viewBox="0 0 60 60" fill="none" xmlns="http://www.w3.org/2000/svg">
<path d="M46.3161 0L40.3566 5.95934L44.2189 9.8216L20.9222 33.1182L14.8148 27.0108L3.75803 38.0677C-1.25268 43.0784 -1.25268 51.2313 3.75803 56.2419C6.26326 58.7473 9.55412 60 12.8451 60C16.1361 60 19.4271 58.7474 21.9323 56.2419L32.9892 45.185L26.8818 39.0777L50.1785 15.7812L54.0406 19.6434L59.9999 13.6839L46.3161 0ZM27.9499 45.1852L19.4126 53.7224C15.7914 57.3436 9.89912 57.3437 6.27768 53.7224C2.65646 50.1011 2.65646 44.2087 6.27768 40.5874L14.8148 32.0502L18.4026 35.6379L24.3621 41.5973L27.9499 45.1852ZM24.3621 36.5579L23.442 35.6379L46.7385 12.3412L47.6587 13.2614L24.3621 36.5579ZM49.7181 10.2816L46.7385 7.30195L45.3958 5.95934L46.316 5.03918L54.9604 13.6838L54.0404 14.6038L49.7181 10.2816Z" fill="#082D53"/>
<path d="M55 13.5L46.5 5L45.5 6L54 14.5L55 13.5Z" stroke="#F9DA75"/>
</svg>
