<svg width="37" height="38" viewBox="0 0 37 38" fill="none" xmlns="http://www.w3.org/2000/svg">
<g clip-path="url(#clip0_349_587)">
<circle cx="18.5" cy="19" r="17.5" stroke="white" stroke-width="2"/>
<path fill-rule="evenodd" clip-rule="evenodd" d="M22.2 15.1318C22.2 13.1531 20.5406 11.5439 18.5 11.5439C16.4594 11.5439 14.8 13.1531 14.8 15.1318C14.8 17.1105 16.4594 18.7197 18.5 18.7197C20.5406 18.7197 22.2 17.1105 22.2 15.1318ZM27.75 27.6894H23.125V25.8955H25.7002C24.9361 22.4995 22.0011 20.5136 18.5 20.5136C14.9989 20.5136 12.0639 22.4995 11.2998 25.8955H13.875V27.6894H9.25C9.25 23.6037 11.6393 20.5567 15.0239 19.3233C13.7603 18.3376 12.95 16.8271 12.95 15.1318C12.95 12.1593 15.4345 9.75 18.5 9.75C21.5654 9.75 24.05 12.1593 24.05 15.1318C24.05 16.8271 23.2397 18.3376 21.9761 19.3233C25.3607 20.5567 27.75 23.6037 27.75 27.6894ZM20.733 22.9865L22.0409 24.2558L18.5 27.6894L15.8841 25.1528L17.192 23.8835L18.5 25.1528L20.733 22.9865Z" fill="white"/>
</g>
<defs>
<clipPath id="clip0_349_587">
<rect width="37" height="37" fill="white" transform="translate(0 0.5)"/>
</clipPath>
</defs>
</svg>
