<svg width="34" height="34" viewBox="0 0 34 34" fill="none" xmlns="http://www.w3.org/2000/svg">
<g clip-path="url(#clip0_349_556)">
<circle cx="17" cy="17" r="16" stroke="#185488"/>
<path fill-rule="evenodd" clip-rule="evenodd" d="M13.9022 9.59205C12.6813 9.64713 11.6231 9.94563 10.7686 10.7965C9.91115 11.6519 9.61636 12.7143 9.56113 13.9225C9.5268 14.6766 9.32606 20.3737 9.90816 21.8678C10.3007 22.8757 11.0738 23.6507 12.091 24.0445C12.5656 24.2291 13.1075 24.3541 13.9022 24.3906C20.5479 24.6913 23.0113 24.5276 24.0501 21.8678C24.2345 21.3943 24.3613 20.853 24.3964 20.0602C24.7001 13.3975 24.3472 11.9534 23.1889 10.7965C22.2703 9.88012 21.1897 9.25631 13.9022 9.59205ZM13.9634 23.0506C13.2358 23.0179 12.841 22.8966 12.5776 22.7946C11.9149 22.5371 11.4171 22.0414 11.1612 21.3825C10.7179 20.2473 10.8649 14.8554 10.9044 13.9829C10.9432 13.1283 11.1164 12.3472 11.7194 11.7443C12.4657 10.9998 13.4298 10.635 19.9948 10.9313C20.8516 10.97 21.6344 11.1428 22.2389 11.7443C22.9852 12.4887 23.3554 13.4603 23.0539 20.0001C23.021 20.7259 22.8994 21.1197 22.7971 21.3825C22.1218 23.1133 20.568 23.3536 13.9634 23.0506ZM20.0672 13.0172C20.0672 13.51 20.468 13.9108 20.9628 13.9108C21.4576 13.9108 21.8591 13.51 21.8591 13.0172C21.8591 12.5244 21.4576 12.124 20.9628 12.124C20.468 12.124 20.0672 12.5244 20.0672 13.0172ZM13.147 16.9909C13.147 19.1021 14.8627 20.8138 16.9791 20.8138C19.0956 20.8138 20.8113 19.1021 20.8113 16.9909C20.8113 14.8797 19.0956 13.1692 16.9791 13.1692C14.8627 13.1692 13.147 14.8797 13.147 16.9909ZM14.4918 16.9909C14.4918 15.6212 15.6052 14.5099 16.9791 14.5099C18.353 14.5099 19.4665 15.6212 19.4665 16.9909C19.4665 18.3614 18.353 19.4731 16.9791 19.4731C15.6052 19.4731 14.4918 18.3614 14.4918 16.9909Z" fill="#185488"/>
</g>
<defs>
<clipPath id="clip0_349_556">
<rect width="33" height="33" fill="white" transform="translate(0.5 0.5)"/>
</clipPath>
</defs>
</svg>
