<svg width="105" height="107" viewBox="0 0 105 107" fill="none" xmlns="http://www.w3.org/2000/svg">
<g clip-path="url(#clip0_582_881)">
<g clip-path="url(#clip1_582_881)">
<path d="M60.9214 49.6469L48.4857 61.2379L6.21234 15.8841L9.33712 7.50347L18.648 4.29307L60.9214 49.6469Z" fill="#F9DA75"/>
<path fill-rule="evenodd" clip-rule="evenodd" d="M49.7717 33.2848L24.3467 6.00702C23.2 4.77673 21.5895 4.08422 19.9078 4.09819L10.852 4.17346C8.25886 4.19502 6.11258 6.19553 5.90898 8.78075L5.19799 17.8089C5.06595 19.4855 5.64367 21.1406 6.7904 22.3709L32.2154 49.6486C33.1196 50.6187 34.3721 51.1898 35.6973 51.2364L37.3324 51.2939C38.1275 51.3218 38.879 51.6645 39.4215 52.2466L40.9708 53.9087C41.8202 54.82 42.1772 56.0854 41.9293 57.3063C41.6402 58.7307 42.0567 60.207 43.0477 61.2702L45.9005 64.3309L48.4607 61.9445L46.8046 60.1677C45.9005 59.1976 45.4187 57.9082 45.4653 56.5829L45.5082 55.3618C45.5455 54.3016 45.1601 53.27 44.4367 52.494L41.2415 49.0659C40.5182 48.2899 39.5162 47.8329 38.456 47.7957L37.2349 47.7527C35.9096 47.7062 34.6571 47.135 33.753 46.165L11.1532 21.9183C9.93455 20.6109 9.26219 18.8868 9.27394 17.0995L9.30223 12.7974C9.32113 9.92379 11.7526 7.65745 14.6204 7.84039L18.9139 8.11427C20.6976 8.22805 22.3703 9.01982 23.5889 10.3273L46.1887 34.5739C47.0929 35.5439 47.5746 36.8334 47.5281 38.1587L47.4851 39.3798C47.4479 40.44 47.8333 41.4716 48.5566 42.2476L51.7519 45.6757C52.4752 46.4517 53.4772 46.9086 54.5374 46.9459L56.0488 46.999C57.1882 47.0391 58.2649 47.5301 59.0423 48.3641C59.6897 49.0588 59.6515 50.1468 58.9568 50.7943L53.9968 55.4174L56.7241 58.3435L57.0898 58.0026C57.4938 57.626 58.1266 57.6483 58.5032 58.0523L82.7081 84.021C83.372 84.7332 84.2489 85.2109 85.2074 85.3824L86.1917 85.5585L88.3734 85.4373C89.4372 85.3781 90.4524 85.8876 91.0408 86.7758L91.7706 87.8773L95.782 95.3451C96.1993 96.1219 96.4028 96.9955 96.3719 97.8768C96.3538 98.3918 96.2848 98.9038 96.1661 99.4053L95.9292 100.405L98.3156 102.966L98.4847 102.808C99.5394 101.825 100.118 100.435 100.073 98.9935L100.037 97.8363C99.9977 96.595 99.6702 95.3798 99.0801 94.2869L94.3309 85.4909L93.1675 83.8205C92.6278 83.0457 91.7549 82.5701 90.8112 82.5369L85.9502 82.3661L60.912 55.5033C60.6191 55.1891 60.6364 54.6969 60.9506 54.404L62.5762 52.8889C64.1922 51.3826 64.2812 48.8515 62.7749 47.2355L60.604 44.9064C59.613 43.8432 58.1696 43.324 56.7284 43.5124C55.4931 43.6739 54.2559 43.2289 53.4065 42.3176L51.8572 40.6555C51.3147 40.0735 51.0257 39.2998 51.0536 38.5046L51.1111 36.8696C51.1577 35.5443 50.6759 34.2548 49.7717 33.2848Z" fill="#183A5D"/>
<path d="M48.4607 61.9445L46.8046 60.1677C45.9005 59.1976 45.4187 57.9082 45.4653 56.5829L45.5082 55.3618C45.5455 54.3016 45.1601 53.27 44.4367 52.494L41.2415 49.0659C40.5182 48.2899 39.5162 47.8329 38.456 47.7957L37.2349 47.7528C35.9096 47.7062 34.6572 47.135 33.753 46.165L11.1532 21.9183C9.93455 20.6109 9.26219 18.8868 9.27394 17.0995L9.30223 12.7974C9.32113 9.92378 11.7526 7.65745 14.6204 7.84039L18.9139 8.11427C20.6976 8.22805 22.3703 9.01982 23.5889 10.3273L46.1887 34.5739C47.0929 35.5439 47.5746 36.8334 47.5281 38.1587L47.4851 39.3798C47.4479 40.44 47.8333 41.4716 48.5566 42.2476L51.7519 45.6757C52.4752 46.4517 53.4772 46.9086 54.5374 46.9459L56.0488 46.999C57.1881 47.0391 58.2649 47.5301 59.0423 48.3641V48.3641C59.6897 49.0588 59.6515 50.1468 58.9568 50.7943L53.9968 55.4174M48.4607 61.9445L45.9005 64.3309L43.0477 61.2702M48.4607 61.9445L53.9968 55.4174M62.7749 47.2355V47.2355C64.2812 48.8515 64.1922 51.3826 62.5762 52.8889V52.8889M62.7749 47.2355L60.604 44.9064M62.7749 47.2355C64.2812 48.8515 64.1922 51.3826 62.5762 52.8889M85.9502 82.3661L90.8112 82.5369C91.7549 82.5701 92.6278 83.0457 93.1675 83.8205L94.3309 85.4909M85.9502 82.3661L90.8112 82.5369C91.7549 82.5701 92.6278 83.0457 93.1675 83.8205L94.3309 85.4909M85.9502 82.3661L60.912 55.5033M94.3309 85.4909L99.0801 94.2869C99.6702 95.3798 99.9977 96.595 100.037 97.8363L100.073 98.9935C100.118 100.435 99.5394 101.825 98.4847 102.808L98.3156 102.966M94.3309 85.4909L99.0801 94.2869C99.6702 95.3798 99.9977 96.595 100.037 97.8363L100.073 98.9935C100.118 100.435 99.5394 101.825 98.4847 102.808L98.3156 102.966M98.3156 102.966L95.9292 100.405M95.9292 100.405L96.1661 99.4053C96.2848 98.9038 96.3538 98.3918 96.3719 97.8768V97.8768C96.4028 96.9955 96.1993 96.1219 95.782 95.3451L91.7706 87.8773M95.9292 100.405L96.1661 99.4053C96.2848 98.9038 96.3538 98.3918 96.3719 97.8768C96.4028 96.9955 96.1993 96.1219 95.782 95.3451L91.7706 87.8773M91.7706 87.8773L91.0408 86.7758C90.4524 85.8876 89.4372 85.3781 88.3734 85.4373L86.1917 85.5585M91.7706 87.8773L91.0408 86.7758C90.4524 85.8876 89.4372 85.3781 88.3734 85.4373L86.1917 85.5585M53.9968 55.4174L56.7241 58.3435L57.0898 58.0026M82.7081 84.021V84.021C83.372 84.7332 84.2489 85.2109 85.2074 85.3824L86.1917 85.5585M82.7081 84.021C83.372 84.7332 84.2489 85.2109 85.2074 85.3824L86.1917 85.5585M82.7081 84.021L58.5032 58.0523M24.3467 6.00702L49.7717 33.2848M24.3467 6.00702C23.2 4.77673 21.5895 4.08422 19.9078 4.09819M24.3467 6.00702V6.00702C23.2 4.77674 21.5895 4.08422 19.9078 4.09819V4.09819M49.7717 33.2848C50.6759 34.2548 51.1577 35.5443 51.1111 36.8696M49.7717 33.2848V33.2848C50.6759 34.2548 51.1577 35.5443 51.1111 36.8696V36.8696M51.1111 36.8696L51.0536 38.5046M51.0536 38.5046C51.0257 39.2998 51.3147 40.0735 51.8572 40.6555M51.0536 38.5046V38.5046C51.0257 39.2998 51.3147 40.0735 51.8572 40.6555V40.6555M51.8572 40.6555L53.4065 42.3176M53.4065 42.3176C54.2559 43.2289 55.4931 43.6739 56.7284 43.5124M53.4065 42.3176V42.3176C54.2559 43.2289 55.4931 43.6739 56.7284 43.5124V43.5124M56.7284 43.5124C58.1696 43.324 59.613 43.8432 60.604 44.9064M56.7284 43.5124V43.5124C58.1696 43.324 59.613 43.8432 60.604 44.9064V44.9064M62.5762 52.8889L60.9506 54.404M60.9506 54.404C60.6364 54.6969 60.6191 55.1891 60.912 55.5033M60.9506 54.404V54.404C60.6364 54.6969 60.6191 55.1891 60.912 55.5033V55.5033M58.5032 58.0523C58.1266 57.6483 57.4938 57.626 57.0898 58.0026M58.5032 58.0523V58.0523C58.1266 57.6483 57.4938 57.626 57.0898 58.0026V58.0026M43.0477 61.2702C42.0567 60.207 41.6402 58.7307 41.9293 57.3063M43.0477 61.2702V61.2702C42.0567 60.207 41.6402 58.7307 41.9293 57.3063V57.3063M41.9293 57.3063C42.1772 56.0854 41.8202 54.82 40.9708 53.9087M41.9293 57.3063V57.3063C42.1772 56.0855 41.8202 54.82 40.9708 53.9087V53.9087M40.9708 53.9087L39.4215 52.2466M39.4215 52.2466C38.879 51.6645 38.1275 51.3218 37.3324 51.2939M39.4215 52.2466V52.2466C38.879 51.6645 38.1275 51.3218 37.3324 51.2939V51.2939M37.3324 51.2939L35.6973 51.2364M35.6973 51.2364C34.3721 51.1898 33.1196 50.6187 32.2154 49.6486M35.6973 51.2364V51.2364C34.3721 51.1898 33.1196 50.6187 32.2154 49.6486V49.6486M32.2154 49.6486L6.7904 22.3709M6.7904 22.3709C5.64367 21.1406 5.06595 19.4855 5.19799 17.8089M6.7904 22.3709V22.3709C5.64368 21.1406 5.06595 19.4855 5.19799 17.8089V17.8089M5.19799 17.8089L5.90898 8.78075M5.90898 8.78075C6.11258 6.19553 8.25886 4.19502 10.852 4.17346M5.90898 8.78075V8.78075C6.11257 6.19553 8.25886 4.19502 10.852 4.17346V4.17346M10.852 4.17346L19.9078 4.09819" stroke="#183A5D"/>
<path d="M52.4977 62.283L50.2869 64.3436C48.9941 65.5486 46.9692 65.4774 45.7642 64.1846C45.463 63.8614 45.4808 63.3552 45.804 63.0539L53.9969 55.4175L56.7242 58.3435L56.3585 58.6844C55.9545 59.061 55.9322 59.6938 56.3088 60.0978L80.5137 86.0665C81.1776 86.7787 81.5925 87.6871 81.6963 88.6552L81.8028 89.6495L81.5287 91.8173C81.395 92.8742 81.8319 93.9228 82.6766 94.5721L83.7241 95.3774L90.8918 99.9033C91.6374 100.374 92.4946 100.639 93.3758 100.669C93.8908 100.688 94.4064 100.655 94.915 100.572L95.9294 100.405L98.3157 102.966L98.1467 103.123C97.0919 104.106 95.6642 104.586 94.2299 104.44L93.0781 104.322C91.8426 104.196 90.6534 103.784 89.6047 103.119L81.1638 97.7638L79.5793 96.486C78.8442 95.8932 78.4312 94.989 78.4643 94.0453L78.6352 89.1844L53.597 62.3216C53.3041 62.0074 52.8119 61.9901 52.4977 62.283Z" fill="#183A5D"/>
<path d="M78.6352 89.1844L53.597 62.3216C53.3041 62.0074 52.8119 61.9901 52.4977 62.283L50.2869 64.3436C48.9941 65.5486 46.9692 65.4774 45.7642 64.1846V64.1846C45.463 63.8614 45.4808 63.3552 45.804 63.0539L53.9969 55.4175L56.7242 58.3435L56.3585 58.6844C55.9545 59.061 55.9322 59.6938 56.3088 60.0978L80.5137 86.0665M78.6352 89.1844L78.4643 94.0453C78.4312 94.989 78.8442 95.8932 79.5793 96.486L81.1638 97.7638M78.6352 89.1844L78.4643 94.0453C78.4312 94.989 78.8442 95.8932 79.5793 96.486L81.1638 97.7638M81.1638 97.7638L89.6047 103.119C90.6534 103.784 91.8426 104.196 93.0781 104.322L94.2299 104.44C95.6642 104.586 97.0919 104.106 98.1467 103.123L98.3157 102.966M81.1638 97.7638L89.6047 103.119C90.6534 103.784 91.8426 104.196 93.0781 104.322L94.2299 104.44C95.6642 104.586 97.0919 104.106 98.1467 103.123L98.3157 102.966M98.3157 102.966L95.9294 100.405M95.9294 100.405L94.915 100.572C94.4064 100.655 93.8908 100.688 93.3758 100.669V100.669C92.4946 100.639 91.6374 100.374 90.8918 99.9033L83.7241 95.3774M95.9294 100.405L94.915 100.572C94.4064 100.655 93.8908 100.688 93.3758 100.669C92.4946 100.639 91.6374 100.374 90.8918 99.9033L83.7241 95.3774M83.7241 95.3774L82.6766 94.5721C81.8319 93.9228 81.395 92.8742 81.5287 91.8173L81.8028 89.6495M83.7241 95.3774L82.6766 94.5721C81.8319 93.9228 81.395 92.8742 81.5287 91.8173L81.8028 89.6495M80.5137 86.0665V86.0665C81.1776 86.7787 81.5925 87.6871 81.6963 88.6552L81.8028 89.6495M80.5137 86.0665C81.1776 86.7787 81.5925 87.6871 81.6963 88.6552L81.8028 89.6495" stroke="#183A5D"/>
<path d="M40.6512 42.5664L42.1142 41.2027C42.5182 40.8261 42.5404 40.1934 42.1639 39.7894L20.3454 16.381C19.9688 15.977 19.336 15.9547 18.932 16.3313L17.469 17.6949C17.065 18.0715 17.0428 18.7043 17.4193 19.1083L39.2378 42.5167C39.6144 42.9207 40.2472 42.9429 40.6512 42.5664Z" fill="#183A5D" stroke="#183A5D"/>
<path d="M51.7955 67.7221L52.4774 68.4536C52.8539 68.8577 52.8317 69.4904 52.4277 69.867L49.099 72.9696C48.2318 73.7779 47.9219 75.0212 48.3084 76.142L49.278 78.9543L49.8521 81.9127C50.0669 83.0196 50.0929 84.1548 49.9291 85.2704L49.7169 86.7156C49.4097 88.8072 48.5038 90.7652 47.1085 92.3533C46.3258 93.2442 45.4336 94.0327 44.4532 94.7L40.493 97.3954L36.8904 99.3883C35.6889 100.053 34.4094 100.565 33.0812 100.913L31.4803 101.333C29.1402 101.946 26.707 102.122 24.3029 101.852C23.6773 101.782 23.066 101.617 22.4901 101.362L21.1527 100.772C20.4124 100.445 20.0107 99.6371 20.1971 98.8497C20.2582 98.5917 20.3943 98.3576 20.5882 98.1769L29.4347 89.9312C29.8387 89.5547 30.4715 89.5769 30.8481 89.9809L31.5299 90.7124C31.9064 91.1164 31.8842 91.7492 31.4802 92.1258L25.3498 97.8398C25.0596 98.1103 24.8888 98.4849 24.8748 98.8814C24.873 98.9323 24.9074 98.9773 24.957 98.9891L25.3789 99.089C26.2034 99.2843 27.0566 99.328 27.8968 99.2182L28.6228 99.1233C30.1288 98.9264 31.6037 98.5394 33.0124 97.9718L34.5089 97.3687C36.3997 96.6067 38.2224 95.6855 39.9573 94.615L42.7222 92.9089C43.4735 92.4453 44.1304 91.8437 44.6581 91.1359L45.7071 89.729C46.6797 88.4245 47.2315 86.8544 47.2886 85.2281L47.2979 84.9652C47.3324 83.982 47.2553 82.998 47.0679 82.0322L46.6094 79.6695C46.5046 79.1291 46.3244 78.6062 46.0742 78.116L45.9842 77.9396C45.2174 76.4376 45.0099 74.7118 45.3985 73.0708C45.5477 72.4406 45.8801 71.8687 46.3539 71.4272L48.1877 69.7179L50.3822 67.6725C50.7862 67.2959 51.419 67.3181 51.7955 67.7221Z" fill="#183A5D" stroke="#183A5D"/>
<path d="M39.5223 54.5548L38.8405 53.8233C38.464 53.4193 37.8312 53.3971 37.4272 53.7736L34.1652 56.8141C33.2947 57.6255 32.0269 57.8456 30.9338 57.3752L28.2175 56.2062L25.3224 55.4147C24.2363 55.1177 23.1077 55.0063 21.9844 55.0852L20.529 55.1874C18.4461 55.3337 16.4511 56.0842 14.7882 57.347C13.8522 58.0578 13.0109 58.8852 12.2845 59.8092L9.35774 63.5322L7.15562 66.9457C6.41457 68.0943 5.82079 69.3316 5.38823 70.6283L4.87793 72.1581C4.11487 74.4456 3.78168 76.8545 3.89519 79.2633C3.92452 79.8857 4.04792 80.5001 4.2612 81.0855L4.76833 82.4776C5.04261 83.2305 5.81197 83.6835 6.60343 83.5581C6.86691 83.5164 7.11191 83.3969 7.30705 83.215L16.7746 74.3906L16.8501 74.3201C17.7364 73.494 19.0712 73.3772 20.0876 74.0366L30.9968 85.7408C31.7499 86.5488 31.7055 87.8144 30.8975 88.5675L29.8002 89.5902L31.8457 91.7848L33.6745 90.0802C35.2905 88.574 35.3794 86.0429 33.8732 84.4269L22.1178 71.8148C20.3257 69.8922 17.3144 69.7863 15.3917 71.5784L14.7291 72.196L7.94607 78.5183C7.657 78.7878 7.27215 78.9303 6.8773 78.9143C6.8274 78.9122 6.78573 78.8755 6.77741 78.8263L6.70581 78.4024C6.56472 77.5672 6.57655 76.7133 6.74073 75.8823L6.87857 75.1846C7.17166 73.7011 7.65267 72.2609 8.30995 70.899L8.97406 69.523C9.86839 67.6699 10.9199 65.8969 12.1171 64.2235L13.9352 61.6823C14.4545 60.9565 15.1078 60.3366 15.86 59.8561L17.263 58.9599C18.6426 58.0786 20.2593 57.6418 21.8949 57.7084L22.1226 57.7176C23.1032 57.7575 24.076 57.9083 25.0227 58.1672L27.337 58.7999C27.8659 58.9445 28.372 59.1621 28.8408 59.4464L29.035 59.5642C30.4613 60.4292 32.1481 60.7606 33.7957 60.4995C34.436 60.3981 35.0315 60.1077 35.5057 59.6657L37.3103 57.9837L39.4727 55.9682C39.8767 55.5916 39.8989 54.9588 39.5223 54.5548Z" fill="#183A5D"/>
<path d="M14.7291 72.196L16.7746 74.3906M14.7291 72.196L7.94607 78.5183C7.657 78.7878 7.27215 78.9303 6.8773 78.9143V78.9143C6.8274 78.9122 6.78573 78.8755 6.77741 78.8263L6.70581 78.4024C6.56472 77.5672 6.57655 76.7133 6.74073 75.8823L6.87857 75.1846C7.17167 73.7011 7.65267 72.2609 8.30995 70.899L8.97407 69.523C9.86839 67.6699 10.9199 65.8969 12.1171 64.2235L13.9352 61.6823C14.4545 60.9565 15.1078 60.3366 15.86 59.8561L17.263 58.9599C18.6426 58.0786 20.2593 57.6418 21.8949 57.7084L22.1226 57.7176C23.1032 57.7575 24.076 57.9083 25.0227 58.1672L27.337 58.7999C27.8659 58.9445 28.372 59.1621 28.8408 59.4464L29.035 59.5642C30.4613 60.4292 32.1481 60.7606 33.7957 60.4995V60.4995C34.436 60.3981 35.0315 60.1077 35.5057 59.6657L37.3103 57.9837L39.4727 55.9682C39.8767 55.5916 39.8989 54.9588 39.5223 54.5548L38.8405 53.8233C38.464 53.4193 37.8312 53.3971 37.4272 53.7736L34.1652 56.8141C33.2947 57.6255 32.0269 57.8456 30.9338 57.3752L28.2175 56.2062L25.3224 55.4147C24.2363 55.1177 23.1077 55.0063 21.9844 55.0852L20.529 55.1874C18.4461 55.3337 16.4511 56.0842 14.7882 57.347V57.347C13.8522 58.0578 13.0109 58.8852 12.2845 59.8092L9.35774 63.5322L7.15562 66.9457C6.41457 68.0943 5.82079 69.3316 5.38823 70.6283L4.87793 72.1581C4.11487 74.4456 3.78168 76.8545 3.89519 79.2633V79.2633C3.92452 79.8857 4.04792 80.5001 4.2612 81.0855L4.76833 82.4776C5.04262 83.2305 5.81197 83.6835 6.60343 83.5581V83.5581C6.86691 83.5164 7.11191 83.3969 7.30705 83.215L16.7746 74.3906M14.7291 72.196L15.3917 71.5784C17.3144 69.7863 20.3257 69.8922 22.1178 71.8148V71.8148L33.8732 84.4269V84.4269C35.3794 86.0429 35.2905 88.574 33.6745 90.0802L31.8457 91.7848L29.8002 89.5902L30.8975 88.5675C31.7055 87.8144 31.75 86.5488 30.9968 85.7408L20.0876 74.0366V74.0366C19.0712 73.3772 17.7364 73.494 16.8501 74.3201L16.7746 74.3906" stroke="#183A5D"/>
<path d="M66.4323 53.6213L67.4551 54.7186C67.8316 55.1226 68.4644 55.1448 68.8684 54.7683L77.4679 46.7529C78.2815 45.9945 79.3742 45.6091 80.4836 45.6893L82.939 45.8668C86.4188 46.1184 89.8968 45.3532 92.9497 43.6644L94.5954 42.754C96.3713 41.7716 97.9124 40.4148 99.1119 38.7777L100.145 37.3672C102.396 34.2954 103.614 30.589 103.625 26.781L103.626 26.483C103.635 23.3327 102.817 20.2352 101.254 17.5001L100.56 16.285C99.7291 14.8309 98.6993 13.5 97.5005 12.3306L96.9769 11.8199C93.6443 8.56922 89.182 6.73617 84.5267 6.70556L83.7943 6.70074C80.9094 6.68177 78.0622 7.35651 75.4926 8.66812L74.2577 9.29842C71.2639 10.8266 68.7577 13.1625 67.0231 16.0417L66.6861 16.6011C64.9575 19.4702 64.0638 22.7647 64.1055 26.1141L64.1342 28.4227C64.1024 29.3277 63.7124 30.1829 63.05 30.8003L62.6215 31.1997L56.7694 36.6543C56.3654 37.0309 56.3431 37.6637 56.7197 38.0677L57.7424 39.1649C58.119 39.5689 58.7518 39.5912 59.1558 39.2146L65.7394 33.0782L66.2494 32.6028C67.0733 31.8349 67.4589 30.706 67.2769 29.5945L67.164 27.5614C67.095 26.3216 67.1707 25.078 67.3894 23.8557L67.6336 22.4907C67.8365 21.3565 68.2553 20.2718 68.8673 19.2955L70.0538 17.4028C71.3664 15.3089 73.2486 13.6325 75.4799 12.5701L77.2578 11.7236C79.7547 10.5347 82.5013 9.96472 85.2652 10.0619C87.1365 10.1277 88.9548 10.7008 90.5257 11.72L91.6872 12.4736C93.8903 13.9031 95.7077 15.8529 96.9789 18.151L97.9314 19.8729C98.6602 21.1903 99.1345 22.633 99.3297 24.1258L99.5876 26.0986C99.9508 28.876 99.3309 31.6928 97.8354 34.0612L97.0351 35.3286C95.6414 37.5358 93.671 39.3202 91.3368 40.4889C88.4795 41.9196 85.3089 42.6104 82.1155 42.4982L79.1587 42.3942C77.8335 42.3476 76.544 42.8294 75.5739 43.7336L66.482 52.208C66.078 52.5845 66.0557 53.2173 66.4323 53.6213Z" fill="#183A5D" stroke="#183A5D"/>
<path fill-rule="evenodd" clip-rule="evenodd" d="M89.7199 20.4117L88.5981 19.2082C87.6692 18.2115 86.4287 17.5607 85.0807 17.3628L84.9172 17.3388C84.3064 17.2491 83.6854 17.2542 83.0762 17.3539L80.7557 17.7338C78.4012 18.1192 76.4987 19.863 75.9103 22.1752L75.3847 24.2405C75.0251 25.6536 75.1924 27.1493 75.8553 28.448L76.0996 28.9266C76.353 29.4232 76.6745 29.882 77.0546 30.2898L79.0511 32.4317C79.6051 33.0261 80.2741 33.5018 81.0175 33.8299L81.2659 33.9396C82.6232 34.5386 84.1544 34.6136 85.5638 34.1499L87.828 33.4049C89.3313 32.9104 90.5783 31.8419 91.2975 30.4322L91.8159 29.416C92.4728 28.1286 92.6428 26.6474 92.2948 25.2446L91.9693 23.9324C91.7238 22.9427 91.2301 22.032 90.5349 21.2861L89.7199 20.4117ZM77.4503 24.261C77.9199 21.6361 80.0657 19.636 82.7171 19.3519C84.5949 19.1506 86.4579 19.8453 87.7456 21.2268L88.2569 21.7754L88.6244 22.1696C89.9922 23.6371 90.5361 25.6911 90.0738 27.6432C89.5156 30.0002 87.5949 31.7905 85.2046 32.1818C83.2248 32.5058 81.214 31.819 79.8462 30.3515L78.9674 29.4087C77.6797 28.0272 77.1177 26.1201 77.4503 24.261Z" fill="#183A5D"/>
<path d="M88.2569 21.7754L87.7456 21.2268C86.4579 19.8453 84.5949 19.1506 82.7171 19.3519V19.3519C80.0657 19.636 77.9199 21.6361 77.4503 24.261V24.261C77.1177 26.1201 77.6797 28.0272 78.9674 29.4087L79.8462 30.3515C81.214 31.819 83.2248 32.5058 85.2046 32.1818V32.1818C87.5949 31.7905 89.5156 30.0002 90.0738 27.6432V27.6432C90.5361 25.6911 89.9922 23.6371 88.6244 22.1696L88.2569 21.7754ZM88.2569 21.7754L89.7199 20.4117M89.7199 20.4117L88.5981 19.2082M89.7199 20.4117L90.5349 21.2861M88.5981 19.2082C87.6692 18.2115 86.4287 17.5607 85.0807 17.3628M88.5981 19.2082V19.2082C87.6692 18.2115 86.4287 17.5607 85.0807 17.3628V17.3628M90.5349 21.2861C91.2301 22.032 91.7238 22.9427 91.9693 23.9324M90.5349 21.2861V21.2861C91.2301 22.032 91.7238 22.9427 91.9693 23.9324V23.9324M91.9693 23.9324L92.2948 25.2446M92.2948 25.2446C92.6428 26.6474 92.4728 28.1286 91.8159 29.416M92.2948 25.2446V25.2446C92.6428 26.6474 92.4728 28.1286 91.8159 29.416V29.416M91.8159 29.416L91.2975 30.4322M91.2975 30.4322C90.5783 31.8419 89.3313 32.9104 87.828 33.4049M91.2975 30.4322V30.4322C90.5783 31.8419 89.3313 32.9104 87.828 33.4049V33.4049M87.828 33.4049L85.5638 34.1499M85.5638 34.1499C84.1544 34.6136 82.6232 34.5386 81.2659 33.9396M85.5638 34.1499V34.1499C84.1544 34.6136 82.6232 34.5386 81.2659 33.9396V33.9396M81.2659 33.9396L81.0175 33.8299M81.0175 33.8299C80.2741 33.5018 79.6051 33.0261 79.0511 32.4317M81.0175 33.8299V33.8299C80.2741 33.5018 79.6051 33.0261 79.0511 32.4317V32.4317M79.0511 32.4317L77.0546 30.2898M77.0546 30.2898C76.6745 29.882 76.353 29.4232 76.0996 28.9266M77.0546 30.2898V30.2898C76.6745 29.882 76.353 29.4232 76.0996 28.9266V28.9266M76.0996 28.9266L75.8553 28.448M75.8553 28.448C75.1924 27.1493 75.0251 25.6536 75.3847 24.2405M75.8553 28.448V28.448C75.1924 27.1493 75.0251 25.6536 75.3847 24.2405V24.2405M75.3847 24.2405L75.9103 22.1752M75.9103 22.1752C76.4987 19.863 78.4012 18.1192 80.7557 17.7338M75.9103 22.1752V22.1752C76.4987 19.863 78.4012 18.1192 80.7557 17.7338V17.7338M80.7557 17.7338L83.0762 17.3539M83.0762 17.3539C83.6854 17.2542 84.3064 17.2491 84.9172 17.3388M83.0762 17.3539V17.3539C83.6854 17.2542 84.3064 17.2491 84.9172 17.3388V17.3388M84.9172 17.3388L85.0807 17.3628" stroke="#183A5D"/>
</g>
</g>
<defs>
<clipPath id="clip0_582_881">
<rect width="105" height="107" fill="white"/>
</clipPath>
<clipPath id="clip1_582_881">
<rect width="119.678" height="135.613" fill="white" transform="translate(144.01 61.0582) rotate(137.013)"/>
</clipPath>
</defs>
</svg>
