<svg width="37" height="38" viewBox="0 0 37 38" fill="none" xmlns="http://www.w3.org/2000/svg">
<g clip-path="url(#clip0_349_582)">
<circle cx="18.5" cy="19" r="17.5" stroke="white" stroke-width="2"/>
<path d="M10.9082 19.957L8.84766 19.459L9.63867 12.2812H17.4609V14.4199H11.7773L11.4062 17.7402C11.6081 17.6165 11.901 17.4928 12.2852 17.3691C12.6758 17.2389 13.1152 17.1738 13.6035 17.1738C14.2806 17.1738 14.8861 17.2845 15.4199 17.5059C15.9538 17.7207 16.4062 18.0332 16.7773 18.4434C17.1549 18.8535 17.4382 19.3548 17.627 19.9473C17.8223 20.5332 17.9199 21.1973 17.9199 21.9395C17.9199 22.5905 17.8223 23.2025 17.627 23.7754C17.4382 24.3418 17.1484 24.8464 16.7578 25.2891C16.3672 25.7253 15.8757 26.0703 15.2832 26.3242C14.6908 26.5716 13.9941 26.6953 13.1934 26.6953C12.5879 26.6953 12.0052 26.6074 11.4453 26.4316C10.8919 26.2493 10.3939 25.9857 9.95117 25.6406C9.50846 25.2891 9.15365 24.8594 8.88672 24.3516C8.6263 23.8438 8.48307 23.2611 8.45703 22.6035H11.0059C11.0514 23.0397 11.1686 23.4108 11.3574 23.7168C11.5462 24.0228 11.7936 24.2572 12.0996 24.4199C12.4121 24.5827 12.7734 24.6641 13.1836 24.6641C13.5547 24.6641 13.8737 24.5957 14.1406 24.459C14.4141 24.3158 14.6387 24.1172 14.8145 23.8633C14.9902 23.6094 15.1204 23.3099 15.2051 22.9648C15.2897 22.6198 15.332 22.2422 15.332 21.832C15.332 21.4349 15.2832 21.0736 15.1855 20.748C15.0879 20.416 14.9382 20.1296 14.7363 19.8887C14.5345 19.6478 14.2806 19.4622 13.9746 19.332C13.6751 19.2018 13.3236 19.1367 12.9199 19.1367C12.3796 19.1367 11.9629 19.2181 11.6699 19.3809C11.3835 19.5436 11.1296 19.7357 10.9082 19.957ZM28.6895 18.1699V20.5625C28.6895 21.6562 28.5788 22.5905 28.3574 23.3652C28.1361 24.14 27.8171 24.7747 27.4004 25.2695C26.9837 25.7578 26.4857 26.1191 25.9062 26.3535C25.3268 26.5814 24.6823 26.6953 23.9727 26.6953C23.4062 26.6953 22.8789 26.6237 22.3906 26.4805C21.9023 26.3307 21.4629 26.1029 21.0723 25.7969C20.6882 25.4844 20.3561 25.0872 20.0762 24.6055C19.8027 24.1237 19.5911 23.5475 19.4414 22.877C19.2982 22.2064 19.2266 21.4349 19.2266 20.5625V18.1699C19.2266 17.0762 19.3372 16.1452 19.5586 15.377C19.7865 14.6087 20.1087 13.9805 20.5254 13.4922C20.9421 13.0039 21.4401 12.6491 22.0195 12.4277C22.599 12.1999 23.2435 12.0859 23.9531 12.0859C24.526 12.0859 25.0534 12.1576 25.5352 12.3008C26.0234 12.444 26.4596 12.6686 26.8438 12.9746C27.2344 13.2741 27.5664 13.6647 27.8398 14.1465C28.1133 14.6217 28.3216 15.1947 28.4648 15.8652C28.6146 16.5293 28.6895 17.2975 28.6895 18.1699ZM26.1113 20.9141V17.8086C26.1113 17.2617 26.0788 16.7865 26.0137 16.3828C25.9551 15.9727 25.8672 15.6243 25.75 15.3379C25.6328 15.0514 25.4863 14.8203 25.3105 14.6445C25.1348 14.4622 24.9329 14.3288 24.7051 14.2441C24.4772 14.1595 24.2266 14.1172 23.9531 14.1172C23.6146 14.1172 23.3118 14.1855 23.0449 14.3223C22.778 14.4525 22.5534 14.6608 22.3711 14.9473C22.1888 15.2337 22.0488 15.6146 21.9512 16.0898C21.86 16.5586 21.8145 17.1315 21.8145 17.8086V20.9141C21.8145 21.4609 21.8438 21.9395 21.9023 22.3496C21.9674 22.7598 22.0586 23.1113 22.1758 23.4043C22.2995 23.6973 22.446 23.9382 22.6152 24.127C22.791 24.3092 22.9928 24.446 23.2207 24.5371C23.4486 24.6217 23.6992 24.6641 23.9727 24.6641C24.3177 24.6641 24.6204 24.5957 24.8809 24.459C25.1478 24.3223 25.3724 24.1074 25.5547 23.8145C25.737 23.515 25.8737 23.1276 25.9648 22.6523C26.0625 22.1706 26.1113 21.5911 26.1113 20.9141Z" fill="white"/>
</g>
<defs>
<clipPath id="clip0_349_582">
<rect width="37" height="37" fill="white" transform="translate(0 0.5)"/>
</clipPath>
</defs>
</svg>
