<svg width="32" height="33" viewBox="0 0 32 33" fill="none" xmlns="http://www.w3.org/2000/svg">
<circle cx="16" cy="16" r="15" stroke="#084A83" stroke-width="2"/>
<path d="M18.7082 10.2586L20.5697 11.9169H18.7082V10.2586ZM22.3066 22.0788C21.9262 22.0788 21.6165 22.3945 21.6165 22.7865V23.5845H11.3767V9.41551H17.3314V12.6212C17.3314 13.0133 17.6411 13.329 18.0215 13.329H21.6199V17.5755C21.6199 17.9676 21.9296 18.2833 22.3099 18.2833C22.6903 18.2833 23 17.9676 23 17.5755V12.5241C23 12.3194 22.9125 12.1216 22.761 11.9898L18.4726 8.17347C18.348 8.06245 18.1864 8 18.0215 8H10.6901C10.3097 8 10 8.31571 10 8.70776V24.2922C10 24.6843 10.3097 25 10.6901 25H22.3099C22.6903 25 23 24.6843 23 24.2922V22.7865C22.9966 22.3945 22.6869 22.0788 22.3066 22.0788Z" fill="#084A83"/>
<path d="M18.8792 13.752H13.6426C13.2774 13.752 12.98 14.0305 12.98 14.3764C12.98 14.7224 13.2774 15.0009 13.6426 15.0009H18.8824C19.2477 15.0009 19.5451 14.7224 19.5451 14.3764C19.5451 14.0305 19.2445 13.752 18.8792 13.752Z" fill="#084A83"/>
<path d="M18.8792 16.8286H13.6426C13.2774 16.8286 12.98 17.1072 12.98 17.4531C12.98 17.799 13.2774 18.0776 13.6426 18.0776H18.8824C19.2477 18.0776 19.5451 17.799 19.5451 17.4531C19.5419 17.1102 19.2445 16.8286 18.8792 16.8286Z" fill="#084A83"/>
<path d="M24.949 18.5688C24.9167 18.226 24.5934 17.9719 24.2314 18.0025C22.738 18.128 21.3189 19.6739 20.5884 20.6137L20.1585 20.1515C19.9161 19.8913 19.4991 19.8668 19.2243 20.0964C18.9496 20.326 18.9237 20.7209 19.1661 20.978L20.1585 22.0433C20.5464 22.4076 20.9731 22.3403 21.2155 21.9607C21.6487 21.2841 23.1776 19.3464 24.3478 19.2484C24.713 19.2147 24.9813 18.9117 24.949 18.5688Z" fill="#084A83"/>
</svg>
