<svg width="47" height="46" viewBox="0 0 47 46" fill="none" xmlns="http://www.w3.org/2000/svg">
<circle cx="24" cy="23" r="23" fill="#F9DA75"/>
<path d="M24.5007 14.7706C28.3036 14.7706 31.3978 17.8648 31.3978 21.6684C31.3978 22.8781 31.0773 24.0698 30.4706 25.1177L24.5 35.4634L18.5286 25.117C17.9227 24.0705 17.6021 22.8781 17.6021 21.6684C17.6021 17.8648 20.6971 14.7706 24.5007 14.7706ZM24.5007 24.3501C25.9799 24.3501 27.1824 23.1469 27.1824 21.6684C27.1824 20.19 25.9792 18.9868 24.5007 18.9868C23.0215 18.9868 21.8183 20.19 21.8183 21.6684C21.8183 23.1469 23.0215 24.3501 24.5007 24.3501ZM24.5007 14.0044C20.268 14.0044 16.8367 17.4364 16.8367 21.6684C16.8367 23.0664 17.2126 24.3724 17.8659 25.5008L24.5 36.9965L31.134 25.5008C31.7874 24.3724 32.1633 23.0664 32.1633 21.6684C32.1633 17.4364 28.7327 14.0044 24.5007 14.0044ZM24.5007 23.5839C23.4427 23.5839 22.5845 22.7264 22.5845 21.6684C22.5845 20.6111 23.4427 19.753 24.5007 19.753C25.5587 19.753 26.4162 20.6111 26.4162 21.6684C26.4162 22.7264 25.5587 23.5839 24.5007 23.5839Z" fill="black"/>
</svg>
