<svg width="111" height="134" viewBox="0 0 111 134" fill="none" xmlns="http://www.w3.org/2000/svg">
<g clip-path="url(#clip0_370_928)">
<g clip-path="url(#clip1_370_928)">
<path d="M84.0722 24.8196L81.047 25.8673L80.6889 22.6859L80.6432 20.8837L80.7537 19.7711L86.2517 23.2385L84.0722 24.8196Z" fill="#183A5D"/>
<path d="M20.7076 117.807L14.8316 88.6823L31.7314 65.646L44.3085 74.7601L37.4651 89.3605L41.6943 92.0276L54.5234 78.2466L69.0132 86.2026L52.4767 112.424L20.7076 117.807Z" fill="#F9DA75"/>
<path fill-rule="evenodd" clip-rule="evenodd" d="M80.1882 18.9836L80.1746 18.8148L83.6971 21.1965L87.3642 23.349L87.0352 23.496L80.7802 26.2903L80.1882 18.9836Z" fill="#183A5D"/>
<path d="M76.5372 29.0243L73.2642 26.9602L46.1314 69.983C45.8368 70.4501 45.6422 70.8567 45.1751 70.5621L35.675 64.8906L35.4033 64.7276C32.7299 63.1235 29.2734 63.8343 27.4498 66.3631L27.175 66.7441L15.7845 85.4596C13.6111 88.7977 12.8546 92.8632 13.6819 96.7597L17.2965 113.783C18.3143 118.576 22.9793 121.674 27.7919 120.753L46.1721 117.236C50.2515 116.455 53.8247 114.018 56.0403 110.505L68.675 89.8579C69.7843 87.9348 69.1441 85.4773 67.2375 84.3399L65.4561 83.2771L56.5914 77.7619C56.1243 77.4673 55.9844 76.8498 56.279 76.3826L83.4118 33.3598L52.7685 80.08L64.6102 87.5481C65.0774 87.8427 65.2172 88.4603 64.9226 88.9274L54.434 105.559C51.5807 110.083 46.9525 113.195 41.6861 114.13L26.8453 116.767C24.2226 117.232 21.6951 115.56 21.098 112.964L17.8931 99.0301C16.7587 94.0979 17.639 88.9168 20.3387 84.636L31.0868 67.5934C31.3823 67.1249 32.0023 66.9858 32.4696 67.2832L43.8551 74.5297L46.7372 76.2763L76.5372 29.0243Z" fill="#183A5D"/>
<path d="M83.4118 33.3598L80.0309 31.2277L50.231 78.4797L45.2666 86.3514C44.4827 87.5944 43.3388 88.5818 41.9971 89.1811C41.4091 89.4438 40.7345 89.0383 40.6992 88.3952C40.6156 86.8724 41.0077 85.3612 41.8213 84.0712L46.7372 76.2763L43.8551 74.5297L40.8952 79.223C38.8099 82.5296 37.5571 86.2923 37.2441 90.189C37.0495 92.6123 39.7055 94.2175 41.7604 92.9184L41.8758 92.8455C44.9873 90.8786 47.6209 88.2423 49.5845 85.1286L52.7685 80.08L83.4118 33.3598Z" fill="#183A5D"/>
<path d="M76.8655 14.2662C76.8826 13.4969 77.7258 13.0343 78.3837 13.4333L92.7018 22.1159C93.35 22.509 93.3422 23.4521 92.6877 23.8344L80.0309 31.2277L83.4118 33.3598L97.3548 25.7566C99.3775 24.6536 99.4536 21.7769 97.4921 20.5685L77.7084 8.38092C75.7449 7.17131 73.2076 8.53725 73.1363 10.8423L73.2642 26.9602L76.5372 29.0243L76.8655 14.2662Z" fill="#183A5D"/>
<path d="M80.0309 31.2277L92.6877 23.8344C93.3422 23.4521 93.35 22.509 92.7018 22.1159L78.3837 13.4333C77.7258 13.0343 76.8826 13.4969 76.8655 14.2662L76.5372 29.0243M80.0309 31.2277L83.4118 33.3598M80.0309 31.2277L50.231 78.4797L45.2666 86.3514C44.4827 87.5944 43.3388 88.5818 41.9971 89.1811V89.1811C41.4091 89.4438 40.7345 89.0383 40.6992 88.3952V88.3952C40.6156 86.8724 41.0077 85.3612 41.8213 84.0712L46.7372 76.2763M76.5372 29.0243L73.2642 26.9602M76.5372 29.0243L46.7372 76.2763M73.2642 26.9602L73.1363 10.8423M73.2642 26.9602L46.1314 69.983M83.4118 33.3598L52.7685 80.08M83.4118 33.3598L97.3548 25.7566M83.4118 33.3598L56.279 76.3826M45.1751 70.5621L35.675 64.8906L35.4033 64.7276C32.7299 63.1235 29.2734 63.8343 27.4498 66.3631L27.175 66.7441L15.7845 85.4596M45.1751 70.5621C45.6422 70.8567 45.8368 70.4501 46.1314 69.983M45.1751 70.5621L46.1314 69.983M46.7372 76.2763L43.8551 74.5297M52.7685 80.08L64.6102 87.5481C65.0774 87.8427 65.2172 88.4603 64.9226 88.9274L54.434 105.559C51.5807 110.083 46.9525 113.195 41.6861 114.13L26.8453 116.767C24.2226 117.232 21.6951 115.56 21.098 112.964L17.8931 99.0301C16.7587 94.0979 17.639 88.9169 20.3387 84.636L31.0868 67.5934C31.3823 67.1249 32.0023 66.9858 32.4696 67.2832L43.8551 74.5297M52.7685 80.08L49.5845 85.1286C47.6209 88.2423 44.9873 90.8786 41.8758 92.8455L41.7605 92.9184C39.7055 94.2175 37.0495 92.6123 37.2441 90.189V90.189C37.5571 86.2923 38.8099 82.5296 40.8952 79.223L43.8551 74.5297M73.1363 10.8423C73.2076 8.53725 75.7449 7.17131 77.7084 8.38092M73.1363 10.8423V10.8423C73.2077 8.53725 75.7449 7.17131 77.7084 8.38092V8.38092M77.7084 8.38092L97.4921 20.5685M97.4921 20.5685C99.4536 21.7769 99.3775 24.6536 97.3548 25.7566M97.4921 20.5685V20.5685C99.4536 21.7769 99.3775 24.6536 97.3548 25.7566V25.7566M56.279 76.3826C55.9844 76.8498 56.1243 77.4673 56.5914 77.7619M56.279 76.3826V76.3826C55.9844 76.8498 56.1243 77.4673 56.5914 77.7619V77.7619M56.5914 77.7619L65.4561 83.2771L67.2375 84.3399C69.1441 85.4773 69.7843 87.9348 68.675 89.8579V89.8579L56.0403 110.505M56.0403 110.505C53.8247 114.018 50.2515 116.455 46.1721 117.236M56.0403 110.505V110.505C53.8247 114.018 50.2515 116.455 46.1721 117.236V117.236M46.1721 117.236L27.7919 120.753M27.7919 120.753C22.9793 121.674 18.3143 118.576 17.2965 113.783M27.7919 120.753V120.753C22.9793 121.674 18.3143 118.576 17.2965 113.783V113.783M17.2965 113.783L13.6819 96.7597M13.6819 96.7597C12.8546 92.8632 13.6111 88.7977 15.7845 85.4596M13.6819 96.7597V96.7597C12.8546 92.8632 13.6111 88.7977 15.7845 85.4596V85.4596M87.3642 23.349L80.7802 26.2903M87.3642 23.349L83.6971 21.1965M87.3642 23.349L87.0352 23.496M80.1746 18.8148L80.7802 26.2903M80.1746 18.8148L83.6971 21.1965M80.1746 18.8148L80.1882 18.9836M80.7802 26.2903L80.1882 18.9836M80.7802 26.2903L87.0352 23.496M83.6971 21.1965L83.5027 21.5048M83.6971 21.1965L87.0352 23.496M83.6971 21.1965L80.1882 18.9836M87.0352 23.496L82.2476 25.3919C81.6397 25.6327 80.968 25.2348 80.8871 24.5859L80.1882 18.9836" stroke="#183A5D"/>
</g>
</g>
<defs>
<clipPath id="clip0_370_928">
<rect width="51" height="126" fill="white" transform="translate(43.1377 133.781) rotate(-147.762)"/>
</clipPath>
<clipPath id="clip1_370_928">
<rect width="88" height="115" fill="white" transform="translate(12 7)"/>
</clipPath>
</defs>
</svg>
