<svg width="33" height="33" viewBox="0 0 33 33" fill="none" xmlns="http://www.w3.org/2000/svg">
<g clip-path="url(#clip0_71_283)">
<circle cx="16.5" cy="16.5" r="16" stroke="#D9D9D9"/>
<path fill-rule="evenodd" clip-rule="evenodd" d="M13.4022 9.09205C12.1813 9.14713 11.1231 9.44563 10.2686 10.2965C9.41115 11.1519 9.11636 12.2143 9.06113 13.4225C9.0268 14.1766 8.82606 19.8737 9.40816 21.3678C9.8007 22.3757 10.5738 23.1507 11.591 23.5445C12.0656 23.7291 12.6075 23.8541 13.4022 23.8906C20.0479 24.1913 22.5113 24.0276 23.5501 21.3678C23.7345 20.8943 23.8613 20.353 23.8964 19.5602C24.2001 12.8975 23.8472 11.4534 22.6889 10.2965C21.7703 9.38012 20.6897 8.75631 13.4022 9.09205ZM13.4634 22.5506C12.7358 22.5179 12.341 22.3966 12.0776 22.2946C11.4149 22.0371 10.9171 21.5414 10.6612 20.8825C10.2179 19.7473 10.3649 14.3554 10.4044 13.4829C10.4432 12.6283 10.6164 11.8472 11.2194 11.2443C11.9657 10.4998 12.9298 10.135 19.4948 10.4313C20.3516 10.47 21.1344 10.6428 21.7389 11.2443C22.4852 11.9887 22.8554 12.9603 22.5539 19.5001C22.521 20.2259 22.3994 20.6197 22.2971 20.8825C21.6218 22.6133 20.068 22.8536 13.4634 22.5506ZM19.5672 12.5172C19.5672 13.01 19.968 13.4108 20.4628 13.4108C20.9576 13.4108 21.3591 13.01 21.3591 12.5172C21.3591 12.0244 20.9576 11.624 20.4628 11.624C19.968 11.624 19.5672 12.0244 19.5672 12.5172ZM12.647 16.4909C12.647 18.6021 14.3627 20.3138 16.4791 20.3138C18.5956 20.3138 20.3113 18.6021 20.3113 16.4909C20.3113 14.3797 18.5956 12.6692 16.4791 12.6692C14.3627 12.6692 12.647 14.3797 12.647 16.4909ZM13.9918 16.4909C13.9918 15.1212 15.1052 14.0099 16.4791 14.0099C17.853 14.0099 18.9665 15.1212 18.9665 16.4909C18.9665 17.8614 17.853 18.9731 16.4791 18.9731C15.1052 18.9731 13.9918 17.8614 13.9918 16.4909Z" fill="#D9D9D9"/>
</g>
<defs>
<clipPath id="clip0_71_283">
<rect width="33" height="33" fill="white"/>
</clipPath>
</defs>
</svg>
