<svg width="15" height="15" viewBox="0 0 15 15" fill="none" xmlns="http://www.w3.org/2000/svg">
<path fill-rule="evenodd" clip-rule="evenodd" d="M4.40224 0.0920466C3.18133 0.147134 2.12311 0.445631 1.26862 1.29651C0.411146 2.15186 0.116356 3.21427 0.0611313 4.42248C0.0268023 5.17658 -0.173936 10.8737 0.408162 12.3678C0.800705 13.3757 1.57383 14.1507 2.59101 14.5445C3.06564 14.7291 3.60746 14.8541 4.40224 14.8906C11.0479 15.1913 13.5113 15.0276 14.5501 12.3678C14.7345 11.8943 14.8613 11.353 14.8964 10.5602C15.2001 3.89752 14.8472 2.45335 13.6889 1.29651C12.7703 0.380118 11.6897 -0.24369 4.40224 0.0920466ZM4.46342 13.5506C3.7358 13.5179 3.34102 13.3966 3.07759 13.2946C2.41489 13.0371 1.91713 12.5414 1.66115 11.8825C1.21786 10.7473 1.36489 5.35537 1.40444 4.4829C1.44325 3.62829 1.61638 2.84724 2.21937 2.24426C2.96565 1.49983 3.92983 1.13499 10.4948 1.43128C11.3516 1.46998 12.1344 1.64276 12.7389 2.24426C13.4852 2.98869 13.8554 3.96029 13.5539 10.5001C13.521 11.2259 13.3994 11.6197 13.2971 11.8825C12.6218 13.6133 11.068 13.8536 4.46342 13.5506ZM10.5672 3.51721C10.5672 4.01002 10.968 4.41076 11.4628 4.41076C11.9576 4.41076 12.3591 4.01002 12.3591 3.51721C12.3591 3.0244 11.9576 2.62402 11.4628 2.62402C10.968 2.62402 10.5672 3.0244 10.5672 3.51721ZM3.647 7.49095C3.647 9.60214 5.3627 11.3138 7.47915 11.3138C9.59559 11.3138 11.3113 9.60214 11.3113 7.49095C11.3113 5.37975 9.59559 3.66918 7.47915 3.66918C5.3627 3.66918 3.647 5.37975 3.647 7.49095ZM4.9918 7.49095C4.9918 6.1212 6.10525 5.00988 7.47915 5.00988C8.85305 5.00988 9.9665 6.1212 9.9665 7.49095C9.9665 8.86144 8.85305 9.97312 7.47915 9.97312C6.10525 9.97312 4.9918 8.86144 4.9918 7.49095Z" fill="white"/>
</svg>
