<svg width="15" height="15" viewBox="0 0 15 15" fill="none" xmlns="http://www.w3.org/2000/svg">
<path d="M13.4933 0.00134523H1.25583C1.0981 -0.00621033 0.940454 0.0181158 0.791927 0.0729452C0.643399 0.127775 0.506908 0.21202 0.390253 0.320853C0.273607 0.429697 0.179089 0.561 0.112127 0.707237C0.0451643 0.853483 0.00705833 1.01179 0 1.17311V13.7157C0.00924 14.0533 0.144521 14.3746 0.378061 14.6133C0.6116 14.8522 0.925687 14.9905 1.25583 15H13.4933C13.8143 14.9854 14.1168 14.8427 14.3362 14.6026C14.5556 14.3626 14.6742 14.0442 14.6667 13.7157V1.17311C14.6693 1.0161 14.6405 0.860195 14.5822 0.714952C14.5238 0.569718 14.4369 0.438208 14.327 0.328484C14.2172 0.218769 14.0866 0.133165 13.9432 0.0769104C13.7999 0.0206562 13.6468 -0.00505731 13.4933 0.00134523ZM4.58333 12.5065H2.4475V5.82272H4.58333V12.5065ZM3.56583 4.81028C3.41679 4.8156 3.26828 4.78933 3.12965 4.73314C2.991 4.67695 2.86522 4.59205 2.7602 4.48377C2.65518 4.37549 2.57318 4.24617 2.51938 4.10394C2.46556 3.9617 2.44109 3.80963 2.4475 3.65726C2.44091 3.50324 2.46587 3.34953 2.52079 3.20596C2.57571 3.06239 2.65936 2.93214 2.76638 2.82358C2.87341 2.71501 3.00144 2.63052 3.14227 2.57553C3.28311 2.52053 3.43362 2.49625 3.58417 2.50424C3.73321 2.49894 3.88172 2.52519 4.02035 2.58138C4.159 2.63757 4.28478 2.72247 4.3898 2.83075C4.49482 2.93903 4.57682 3.06835 4.63062 3.21058C4.68444 3.35282 4.70891 3.50489 4.7025 3.65726C4.70909 3.81128 4.68413 3.965 4.62921 4.10856C4.5743 4.25213 4.49064 4.38238 4.38362 4.49094C4.27659 4.59951 4.14856 4.684 4.00773 4.73899C3.86689 4.79399 3.71638 4.81827 3.56583 4.81028ZM12.2283 12.5065H10.0833V8.85056C10.0833 7.97877 9.78083 7.37882 9.02 7.37882C8.78368 7.38089 8.55369 7.45766 8.36174 7.59865C8.1697 7.73963 8.02505 7.9379 7.9475 8.16625C7.88792 8.33742 7.86298 8.51919 7.87417 8.70058V12.5065H5.76583V5.82272H7.87417V6.76013C8.06163 6.40794 8.34057 6.11566 8.68028 5.91543C9.02 5.71529 9.4072 5.61506 9.79917 5.62583C11.1833 5.62583 12.2283 6.56327 12.2283 8.55996V12.5065Z" fill="white"/>
</svg>
