<svg width="277" height="68" viewBox="0 0 277 68" fill="none" xmlns="http://www.w3.org/2000/svg">
<g clip-path="url(#clip0_511_881)">
<g clip-path="url(#clip1_511_881)">
<path d="M25.2002 10L43.0848 12.5789L49.431 38.3684L41.931 57.7105L25.2002 59V10Z" fill="#185488"/>
<path d="M38.1904 1C39.4846 1.07597 40.2938 1.33124 41.4663 1.86373C41.8337 2.02991 42.201 2.19609 42.5795 2.36731C42.9567 2.54327 43.3338 2.71924 43.7224 2.90054C44.297 3.15789 44.297 3.15789 44.8832 3.42043C47.7182 4.7212 47.7182 4.7212 48.5799 6.0095C48.4337 8.26564 47.386 10.0275 46.3625 12.0019C45.8467 13.4047 45.8603 14.0842 46.294 15.5025C46.7788 16.3033 46.7788 16.3033 47.4132 16.9502C47.6131 17.1719 47.8129 17.3936 48.0189 17.6221C48.6876 18.2639 49.0945 18.5376 50.0324 18.5477C51.7434 18.3863 53.1617 18.0515 54.747 17.3774C56.1806 16.7716 57.2886 16.3348 58.8663 16.6416C60.3217 18.2692 60.8931 20.297 61.6284 22.3137C61.7718 22.6894 61.9152 23.0651 62.063 23.4521C62.1966 23.8161 62.3301 24.18 62.4678 24.5549C62.5902 24.8853 62.7126 25.2157 62.8387 25.5561C63.0927 26.6706 63.0535 27.3353 62.6761 28.413C61.2953 29.2439 59.9141 29.8158 58.4228 30.4213C58.0113 30.5887 57.5998 30.7561 57.1757 30.9286C56.7833 31.0823 56.391 31.236 55.9867 31.3943C55.0047 31.7379 55.0047 31.7379 54.6756 32.5899C54.2045 35.7375 54.2045 35.7375 55.195 38.5986C56.014 39.1074 56.8255 39.4506 57.7234 39.8045C58.5508 40.2199 59.3762 40.6393 60.1998 41.0624C60.8975 41.404 61.5957 41.7447 62.2951 42.0829C62.5791 44.7062 61.6006 46.5336 60.4379 48.8466C60.2625 49.2086 60.0872 49.5706 59.9066 49.9435C58.6056 52.5952 58.6056 52.5952 57.7234 53.4744C55.3618 53.7446 53.7892 52.752 51.7483 51.6945C50.3071 51.126 49.3544 51.0096 47.818 51.1961C46.1596 52.2176 44.9441 53.5535 44.4606 55.4442C44.8526 57.2776 45.5199 58.9351 46.2583 60.6565C46.6658 61.8023 46.8555 62.5293 46.675 63.7269C45.8202 64.7909 44.9231 65.1796 43.654 65.6418C43.2881 65.7752 42.9222 65.9086 42.5453 66.046C42.1637 66.1813 41.7821 66.3167 41.389 66.4561C41.0103 66.5959 40.6317 66.7356 40.2416 66.8796C36.8477 68.1 36.8477 68.1 35.2457 67.9038C33.6566 66.7354 33.3016 64.6871 32.7076 62.8933C31.9908 60.8478 31.9908 60.8478 30.293 59.55C29.7901 59.4246 29.2872 59.2993 28.769 59.1702C28.769 57.1653 28.769 55.1604 28.769 53.0947C29.3034 53.0007 29.8377 52.9068 30.3882 52.8099C36.0245 51.661 40.973 49.5465 44.3892 44.7409C47.155 40.1423 48.2463 35.4842 47.1751 30.1454C45.6595 24.8081 42.7364 20.6078 37.9125 17.7808C34.9727 16.3787 31.9822 15.9157 28.769 15.5025C28.769 13.3723 28.769 11.242 28.769 9.04725C29.724 8.98545 30.6789 8.92365 31.6338 8.86184C32.743 8.63378 32.9946 8.36764 33.7218 7.52838C34.1382 6.84718 34.1382 6.84718 34.4867 6.10146C34.6188 5.83274 34.7509 5.56401 34.887 5.28714C35.0881 4.86937 35.0881 4.86937 35.2933 4.44316C36.9262 1.08892 36.9262 1.08892 38.1904 1Z" fill="white"/>
<path d="M29.0771 18C33.4125 18 36.6419 19.2742 39.893 22.4478C42.8982 25.9108 44.2506 30.1644 44.1528 34.8582C43.6753 39.7234 41.66 43.438 38.2302 46.5507C35.3613 48.8646 32.6737 49.4413 29.0771 49.4413C29.0771 39.0657 29.0771 28.6901 29.0771 18Z" fill="#808080"/>
<path d="M27.1385 9C27.1385 25.5 27.1385 42 27.1385 59C19.7527 59 13.1994 57.0991 7.83989 52.2454C7.5595 51.9744 7.2791 51.7034 6.99021 51.4242C6.72254 51.1806 6.45486 50.9369 6.17908 50.6859C4.5159 49.077 4.5159 49.077 4.54878 47.6837C4.93427 46.8788 4.93427 46.8788 5.34545 46.5C6.24279 46.4491 7.1418 46.4229 8.04067 46.4068C8.59588 46.3943 9.15109 46.3817 9.7063 46.3691C10.5843 46.3511 11.4622 46.3343 12.3403 46.3194C13.1859 46.3043 14.0312 46.2848 14.8767 46.2647C15.3844 46.2552 15.8921 46.2458 16.4152 46.236C17.7506 46.2072 17.7506 46.2072 18.9147 45.3636C19.3319 44.6794 19.3319 44.6794 19.3259 43.8485C18.9915 42.8067 18.9915 42.8067 18.0923 41.9545C16.7996 41.7796 15.7229 41.7258 14.4318 41.7533C14.0723 41.7521 13.7129 41.7508 13.3426 41.7496C11.8043 41.7446 10.2664 41.7616 8.72823 41.7764C7.6053 41.7842 6.48285 41.7808 5.35991 41.777C5.0125 41.7844 4.66509 41.7918 4.30715 41.7995C1.90071 41.7897 1.90071 41.7897 0.586968 40.6917C0 39.6818 0 39.6818 0.0513986 38.4744C0.411189 37.4091 0.411189 37.4091 1.23357 36.6515C2.38774 36.5722 3.50462 36.5375 4.6596 36.5346C5.35964 36.5251 6.05968 36.5155 6.75972 36.5058C7.86415 36.4949 8.96856 36.4858 10.073 36.4787C11.1384 36.4705 12.2036 36.4555 13.2689 36.4399C13.5975 36.4399 13.9261 36.4398 14.2646 36.4398C16.1351 36.4093 17.4111 36.2763 18.9147 35.1364C19.456 34.0213 19.456 34.0213 18.957 32.9946C18.1281 31.9531 18.1281 31.9531 16.5128 31.8863C15.8539 31.8836 15.1949 31.8903 14.5362 31.9048C14.1868 31.9036 13.8375 31.9024 13.4776 31.9011C11.9831 31.8961 10.4891 31.913 8.99476 31.9279C7.90345 31.9357 6.81263 31.9324 5.72131 31.9285C5.38501 31.9359 5.04872 31.9434 4.70223 31.951C2.93269 31.9436 2.25314 31.8662 0.798887 30.8417C0 29.8333 0 29.8333 0 28.6496C0.41849 27.5413 0.674133 27.1429 1.64476 26.4242C2.83743 26.3078 3.94637 26.2572 5.13986 26.257C5.48201 26.252 5.82415 26.247 6.17667 26.2419C7.27024 26.2264 8.36367 26.2182 9.45734 26.2112C10.551 26.2022 11.6445 26.1915 12.738 26.1764C13.4185 26.1672 14.099 26.1616 14.7795 26.1599C16.3689 26.14 17.1506 26.1187 18.5035 25.2879C18.7777 24.1677 18.7777 24.1677 18.5035 23.0152C16.9408 21.8872 15.6817 21.726 13.7282 21.685C13.2154 21.6715 12.7026 21.6581 12.1742 21.6443C11.6423 21.6357 11.1104 21.6272 10.5624 21.6184C10.0226 21.6054 9.4827 21.5925 8.92649 21.5792C7.59578 21.548 6.26519 21.5218 4.93427 21.5C4.43955 19.3486 4.43955 19.3486 5.19126 18.2566C6.19377 17.3088 7.19569 16.3637 8.22378 15.4394C8.54896 15.1215 8.54896 15.1215 8.88071 14.7972C13.6992 10.4649 20.6978 9 27.1385 9Z" fill="white"/>
</g>
<path d="M80.6934 22.4062H85.1582L91.7324 41.1973L98.3066 22.4062H102.771L93.5254 48H89.9395L80.6934 22.4062ZM78.2852 22.4062H82.7324L83.541 40.7227V48H78.2852V22.4062ZM100.732 22.4062H105.197V48H99.9238V40.7227L100.732 22.4062ZM119.77 43.7109V35.2383C119.77 34.6289 119.67 34.1074 119.471 33.6738C119.271 33.2285 118.961 32.8828 118.539 32.6367C118.129 32.3906 117.596 32.2676 116.939 32.2676C116.377 32.2676 115.891 32.3672 115.48 32.5664C115.07 32.7539 114.754 33.0293 114.531 33.3926C114.309 33.7441 114.197 34.1602 114.197 34.6406H109.135C109.135 33.832 109.322 33.0645 109.697 32.3379C110.072 31.6113 110.617 30.9727 111.332 30.4219C112.047 29.8594 112.896 29.4199 113.881 29.1035C114.877 28.7871 115.99 28.6289 117.221 28.6289C118.697 28.6289 120.01 28.875 121.158 29.3672C122.307 29.8594 123.209 30.5977 123.865 31.582C124.533 32.5664 124.867 33.7969 124.867 35.2734V43.4121C124.867 44.4551 124.932 45.3105 125.061 45.9785C125.189 46.6348 125.377 47.209 125.623 47.7012V48H120.508C120.262 47.4844 120.074 46.8398 119.945 46.0664C119.828 45.2812 119.77 44.4961 119.77 43.7109ZM120.438 36.416L120.473 39.2812H117.643C116.975 39.2812 116.395 39.3574 115.902 39.5098C115.41 39.6621 115.006 39.8789 114.689 40.1602C114.373 40.4297 114.139 40.7461 113.986 41.1094C113.846 41.4727 113.775 41.8711 113.775 42.3047C113.775 42.7383 113.875 43.1309 114.074 43.4824C114.273 43.8223 114.561 44.0918 114.936 44.291C115.311 44.4785 115.75 44.5723 116.254 44.5723C117.016 44.5723 117.678 44.4199 118.24 44.1152C118.803 43.8105 119.236 43.4355 119.541 42.9902C119.857 42.5449 120.021 42.123 120.033 41.7246L121.369 43.8691C121.182 44.3496 120.924 44.8477 120.596 45.3633C120.279 45.8789 119.875 46.3652 119.383 46.8223C118.891 47.2676 118.299 47.6367 117.607 47.9297C116.916 48.2109 116.096 48.3516 115.146 48.3516C113.939 48.3516 112.844 48.1113 111.859 47.6309C110.887 47.1387 110.113 46.4648 109.539 45.6094C108.977 44.7422 108.695 43.7578 108.695 42.6562C108.695 41.6602 108.883 40.7754 109.258 40.002C109.633 39.2285 110.184 38.5781 110.91 38.0508C111.648 37.5117 112.568 37.1074 113.67 36.8379C114.771 36.5566 116.049 36.416 117.502 36.416H120.438ZM120.895 21.0879L123.812 21.2812C123.812 22.1367 123.643 22.916 123.303 23.6191C122.963 24.3105 122.494 24.8672 121.896 25.2891C121.299 25.6992 120.613 25.9043 119.84 25.9043C119.277 25.9043 118.791 25.8281 118.381 25.6758C117.982 25.5234 117.613 25.3477 117.273 25.1484C116.934 24.9375 116.582 24.7559 116.219 24.6035C115.867 24.4512 115.463 24.375 115.006 24.375C114.596 24.375 114.244 24.5215 113.951 24.8145C113.67 25.1074 113.529 25.5293 113.529 26.0801L110.594 25.9219C110.594 25.0781 110.764 24.3047 111.104 23.6016C111.443 22.8984 111.912 22.3359 112.51 21.9141C113.107 21.4805 113.787 21.2637 114.549 21.2637C115.029 21.2637 115.469 21.3457 115.867 21.5098C116.266 21.6621 116.646 21.8379 117.01 22.0371C117.385 22.2363 117.766 22.4121 118.152 22.5645C118.539 22.7168 118.949 22.793 119.383 22.793C119.793 22.793 120.145 22.6465 120.438 22.3535C120.742 22.0488 120.895 21.627 120.895 21.0879ZM127.961 38.6836V38.3145C127.961 36.9199 128.16 35.6367 128.559 34.4648C128.957 33.2812 129.537 32.2559 130.299 31.3887C131.061 30.5215 131.998 29.8477 133.111 29.3672C134.225 28.875 135.502 28.6289 136.943 28.6289C138.385 28.6289 139.668 28.875 140.793 29.3672C141.918 29.8477 142.861 30.5215 143.623 31.3887C144.396 32.2559 144.982 33.2812 145.381 34.4648C145.779 35.6367 145.979 36.9199 145.979 38.3145V38.6836C145.979 40.0664 145.779 41.3496 145.381 42.5332C144.982 43.7051 144.396 44.7305 143.623 45.6094C142.861 46.4766 141.924 47.1504 140.811 47.6309C139.697 48.1113 138.42 48.3516 136.979 48.3516C135.537 48.3516 134.254 48.1113 133.129 47.6309C132.016 47.1504 131.072 46.4766 130.299 45.6094C129.537 44.7305 128.957 43.7051 128.559 42.5332C128.16 41.3496 127.961 40.0664 127.961 38.6836ZM133.023 38.3145V38.6836C133.023 39.4805 133.094 40.2246 133.234 40.916C133.375 41.6074 133.598 42.2168 133.902 42.7441C134.219 43.2598 134.629 43.6641 135.133 43.957C135.637 44.25 136.252 44.3965 136.979 44.3965C137.682 44.3965 138.285 44.25 138.789 43.957C139.293 43.6641 139.697 43.2598 140.002 42.7441C140.307 42.2168 140.529 41.6074 140.67 40.916C140.822 40.2246 140.898 39.4805 140.898 38.6836V38.3145C140.898 37.541 140.822 36.8145 140.67 36.1348C140.529 35.4434 140.301 34.834 139.984 34.3066C139.68 33.7676 139.275 33.3457 138.771 33.041C138.268 32.7363 137.658 32.584 136.943 32.584C136.229 32.584 135.619 32.7363 135.115 33.041C134.623 33.3457 134.219 33.7676 133.902 34.3066C133.598 34.834 133.375 35.4434 133.234 36.1348C133.094 36.8145 133.023 37.541 133.023 38.3145ZM163.012 33.041V48H157.949V28.9805H162.695L163.012 33.041ZM162.273 37.8223H160.902C160.902 36.416 161.084 35.1504 161.447 34.0254C161.811 32.8887 162.32 31.9219 162.977 31.125C163.633 30.3164 164.412 29.7012 165.314 29.2793C166.229 28.8457 167.248 28.6289 168.373 28.6289C169.264 28.6289 170.078 28.7578 170.816 29.0156C171.555 29.2734 172.188 29.6836 172.715 30.2461C173.254 30.8086 173.664 31.5527 173.945 32.4785C174.238 33.4043 174.385 34.5352 174.385 35.8711V48H169.287V35.8535C169.287 35.0098 169.17 34.3535 168.936 33.8848C168.701 33.416 168.355 33.0879 167.898 32.9004C167.453 32.7012 166.902 32.6016 166.246 32.6016C165.566 32.6016 164.975 32.7363 164.471 33.0059C163.979 33.2754 163.568 33.6504 163.24 34.1309C162.924 34.5996 162.684 35.1504 162.52 35.7832C162.355 36.416 162.273 37.0957 162.273 37.8223ZM188.5 43.7109V35.2383C188.5 34.6289 188.4 34.1074 188.201 33.6738C188.002 33.2285 187.691 32.8828 187.27 32.6367C186.859 32.3906 186.326 32.2676 185.67 32.2676C185.107 32.2676 184.621 32.3672 184.211 32.5664C183.801 32.7539 183.484 33.0293 183.262 33.3926C183.039 33.7441 182.928 34.1602 182.928 34.6406H177.865C177.865 33.832 178.053 33.0645 178.428 32.3379C178.803 31.6113 179.348 30.9727 180.062 30.4219C180.777 29.8594 181.627 29.4199 182.611 29.1035C183.607 28.7871 184.721 28.6289 185.951 28.6289C187.428 28.6289 188.74 28.875 189.889 29.3672C191.037 29.8594 191.939 30.5977 192.596 31.582C193.264 32.5664 193.598 33.7969 193.598 35.2734V43.4121C193.598 44.4551 193.662 45.3105 193.791 45.9785C193.92 46.6348 194.107 47.209 194.354 47.7012V48H189.238C188.992 47.4844 188.805 46.8398 188.676 46.0664C188.559 45.2812 188.5 44.4961 188.5 43.7109ZM189.168 36.416L189.203 39.2812H186.373C185.705 39.2812 185.125 39.3574 184.633 39.5098C184.141 39.6621 183.736 39.8789 183.42 40.1602C183.104 40.4297 182.869 40.7461 182.717 41.1094C182.576 41.4727 182.506 41.8711 182.506 42.3047C182.506 42.7383 182.605 43.1309 182.805 43.4824C183.004 43.8223 183.291 44.0918 183.666 44.291C184.041 44.4785 184.48 44.5723 184.984 44.5723C185.746 44.5723 186.408 44.4199 186.971 44.1152C187.533 43.8105 187.967 43.4355 188.271 42.9902C188.588 42.5449 188.752 42.123 188.764 41.7246L190.1 43.8691C189.912 44.3496 189.654 44.8477 189.326 45.3633C189.01 45.8789 188.605 46.3652 188.113 46.8223C187.621 47.2676 187.029 47.6367 186.338 47.9297C185.646 48.2109 184.826 48.3516 183.877 48.3516C182.67 48.3516 181.574 48.1113 180.59 47.6309C179.617 47.1387 178.844 46.4648 178.27 45.6094C177.707 44.7422 177.426 43.7578 177.426 42.6562C177.426 41.6602 177.613 40.7754 177.988 40.002C178.363 39.2285 178.914 38.5781 179.641 38.0508C180.379 37.5117 181.299 37.1074 182.4 36.8379C183.502 36.5566 184.779 36.416 186.232 36.416H189.168ZM211.527 33.1289V48H206.465V28.9805H211.229L211.527 33.1289ZM217.258 28.8574L217.17 33.5508C216.924 33.5156 216.625 33.4863 216.273 33.4629C215.934 33.4277 215.623 33.4102 215.342 33.4102C214.627 33.4102 214.006 33.5039 213.479 33.6914C212.963 33.8672 212.529 34.1309 212.178 34.4824C211.838 34.834 211.58 35.2617 211.404 35.7656C211.24 36.2695 211.146 36.8438 211.123 37.4883L210.104 37.1719C210.104 35.9414 210.227 34.8105 210.473 33.7793C210.719 32.7363 211.076 31.8281 211.545 31.0547C212.025 30.2812 212.611 29.6836 213.303 29.2617C213.994 28.8398 214.785 28.6289 215.676 28.6289C215.957 28.6289 216.244 28.6523 216.537 28.6992C216.83 28.7344 217.07 28.7871 217.258 28.8574ZM218.312 38.6836V38.3145C218.312 36.9199 218.512 35.6367 218.91 34.4648C219.309 33.2812 219.889 32.2559 220.65 31.3887C221.412 30.5215 222.35 29.8477 223.463 29.3672C224.576 28.875 225.854 28.6289 227.295 28.6289C228.736 28.6289 230.02 28.875 231.145 29.3672C232.27 29.8477 233.213 30.5215 233.975 31.3887C234.748 32.2559 235.334 33.2812 235.732 34.4648C236.131 35.6367 236.33 36.9199 236.33 38.3145V38.6836C236.33 40.0664 236.131 41.3496 235.732 42.5332C235.334 43.7051 234.748 44.7305 233.975 45.6094C233.213 46.4766 232.275 47.1504 231.162 47.6309C230.049 48.1113 228.771 48.3516 227.33 48.3516C225.889 48.3516 224.605 48.1113 223.48 47.6309C222.367 47.1504 221.424 46.4766 220.65 45.6094C219.889 44.7305 219.309 43.7051 218.91 42.5332C218.512 41.3496 218.312 40.0664 218.312 38.6836ZM223.375 38.3145V38.6836C223.375 39.4805 223.445 40.2246 223.586 40.916C223.727 41.6074 223.949 42.2168 224.254 42.7441C224.57 43.2598 224.98 43.6641 225.484 43.957C225.988 44.25 226.604 44.3965 227.33 44.3965C228.033 44.3965 228.637 44.25 229.141 43.957C229.645 43.6641 230.049 43.2598 230.354 42.7441C230.658 42.2168 230.881 41.6074 231.021 40.916C231.174 40.2246 231.25 39.4805 231.25 38.6836V38.3145C231.25 37.541 231.174 36.8145 231.021 36.1348C230.881 35.4434 230.652 34.834 230.336 34.3066C230.031 33.7676 229.627 33.3457 229.123 33.041C228.619 32.7363 228.01 32.584 227.295 32.584C226.58 32.584 225.971 32.7363 225.467 33.041C224.975 33.3457 224.57 33.7676 224.254 34.3066C223.949 34.834 223.727 35.4434 223.586 36.1348C223.445 36.8145 223.375 37.541 223.375 38.3145ZM250.674 43.8516V21H255.771V48H251.184L250.674 43.8516ZM238.65 38.7188V38.3496C238.65 36.8965 238.814 35.5781 239.143 34.3945C239.471 33.1992 239.951 32.1738 240.584 31.3184C241.217 30.4629 241.996 29.8008 242.922 29.332C243.848 28.8633 244.902 28.6289 246.086 28.6289C247.199 28.6289 248.172 28.8633 249.004 29.332C249.848 29.8008 250.562 30.4688 251.148 31.3359C251.746 32.1914 252.227 33.2051 252.59 34.377C252.953 35.5371 253.217 36.8086 253.381 38.1914V39C253.217 40.3242 252.953 41.5547 252.59 42.6914C252.227 43.8281 251.746 44.8242 251.148 45.6797C250.562 46.5234 249.848 47.1797 249.004 47.6484C248.16 48.1172 247.176 48.3516 246.051 48.3516C244.867 48.3516 243.812 48.1113 242.887 47.6309C241.973 47.1504 241.199 46.4766 240.566 45.6094C239.945 44.7422 239.471 43.7227 239.143 42.5508C238.814 41.3789 238.65 40.1016 238.65 38.7188ZM243.713 38.3496V38.7188C243.713 39.5039 243.771 40.2363 243.889 40.916C244.018 41.5957 244.223 42.1992 244.504 42.7266C244.797 43.2422 245.172 43.6465 245.629 43.9395C246.098 44.2207 246.666 44.3613 247.334 44.3613C248.201 44.3613 248.916 44.168 249.479 43.7812C250.041 43.3828 250.469 42.8379 250.762 42.1465C251.066 41.4551 251.242 40.6582 251.289 39.7559V37.4531C251.254 36.7148 251.148 36.0527 250.973 35.4668C250.809 34.8691 250.562 34.3594 250.234 33.9375C249.918 33.5156 249.52 33.1875 249.039 32.9531C248.57 32.7188 248.014 32.6016 247.369 32.6016C246.713 32.6016 246.15 32.7539 245.682 33.0586C245.213 33.3516 244.832 33.7559 244.539 34.2715C244.258 34.7871 244.047 35.3965 243.906 36.0996C243.777 36.791 243.713 37.541 243.713 38.3496ZM269.992 43.7109V35.2383C269.992 34.6289 269.893 34.1074 269.693 33.6738C269.494 33.2285 269.184 32.8828 268.762 32.6367C268.352 32.3906 267.818 32.2676 267.162 32.2676C266.6 32.2676 266.113 32.3672 265.703 32.5664C265.293 32.7539 264.977 33.0293 264.754 33.3926C264.531 33.7441 264.42 34.1602 264.42 34.6406H259.357C259.357 33.832 259.545 33.0645 259.92 32.3379C260.295 31.6113 260.84 30.9727 261.555 30.4219C262.27 29.8594 263.119 29.4199 264.104 29.1035C265.1 28.7871 266.213 28.6289 267.443 28.6289C268.92 28.6289 270.232 28.875 271.381 29.3672C272.529 29.8594 273.432 30.5977 274.088 31.582C274.756 32.5664 275.09 33.7969 275.09 35.2734V43.4121C275.09 44.4551 275.154 45.3105 275.283 45.9785C275.412 46.6348 275.6 47.209 275.846 47.7012V48H270.73C270.484 47.4844 270.297 46.8398 270.168 46.0664C270.051 45.2812 269.992 44.4961 269.992 43.7109ZM270.66 36.416L270.695 39.2812H267.865C267.197 39.2812 266.617 39.3574 266.125 39.5098C265.633 39.6621 265.229 39.8789 264.912 40.1602C264.596 40.4297 264.361 40.7461 264.209 41.1094C264.068 41.4727 263.998 41.8711 263.998 42.3047C263.998 42.7383 264.098 43.1309 264.297 43.4824C264.496 43.8223 264.783 44.0918 265.158 44.291C265.533 44.4785 265.973 44.5723 266.477 44.5723C267.238 44.5723 267.9 44.4199 268.463 44.1152C269.025 43.8105 269.459 43.4355 269.764 42.9902C270.08 42.5449 270.244 42.123 270.256 41.7246L271.592 43.8691C271.404 44.3496 271.146 44.8477 270.818 45.3633C270.502 45.8789 270.098 46.3652 269.605 46.8223C269.113 47.2676 268.521 47.6367 267.83 47.9297C267.139 48.2109 266.318 48.3516 265.369 48.3516C264.162 48.3516 263.066 48.1113 262.082 47.6309C261.109 47.1387 260.336 46.4648 259.762 45.6094C259.199 44.7422 258.918 43.7578 258.918 42.6562C258.918 41.6602 259.105 40.7754 259.48 40.002C259.855 39.2285 260.406 38.5781 261.133 38.0508C261.871 37.5117 262.791 37.1074 263.893 36.8379C264.994 36.5566 266.271 36.416 267.725 36.416H270.66Z" fill="white"/>
</g>
<defs>
<clipPath id="clip0_511_881">
<rect width="277" height="68" fill="white"/>
</clipPath>
<clipPath id="clip1_511_881">
<rect width="63" height="67" fill="white" transform="translate(0 1)"/>
</clipPath>
</defs>
</svg>
