<svg width="275" height="70" viewBox="0 0 275 70" fill="none" xmlns="http://www.w3.org/2000/svg">
<g clip-path="url(#clip0_71_297)">
<path d="M80.6934 25.4062H85.1582L91.7324 44.1973L98.3066 25.4062H102.771L93.5254 51H89.9395L80.6934 25.4062ZM78.2852 25.4062H82.7324L83.541 43.7227V51H78.2852V25.4062ZM100.732 25.4062H105.197V51H99.9238V43.7227L100.732 25.4062ZM119.77 46.7109V38.2383C119.77 37.6289 119.67 37.1074 119.471 36.6738C119.271 36.2285 118.961 35.8828 118.539 35.6367C118.129 35.3906 117.596 35.2676 116.939 35.2676C116.377 35.2676 115.891 35.3672 115.48 35.5664C115.07 35.7539 114.754 36.0293 114.531 36.3926C114.309 36.7441 114.197 37.1602 114.197 37.6406H109.135C109.135 36.832 109.322 36.0645 109.697 35.3379C110.072 34.6113 110.617 33.9727 111.332 33.4219C112.047 32.8594 112.896 32.4199 113.881 32.1035C114.877 31.7871 115.99 31.6289 117.221 31.6289C118.697 31.6289 120.01 31.875 121.158 32.3672C122.307 32.8594 123.209 33.5977 123.865 34.582C124.533 35.5664 124.867 36.7969 124.867 38.2734V46.4121C124.867 47.4551 124.932 48.3105 125.061 48.9785C125.189 49.6348 125.377 50.209 125.623 50.7012V51H120.508C120.262 50.4844 120.074 49.8398 119.945 49.0664C119.828 48.2812 119.77 47.4961 119.77 46.7109ZM120.438 39.416L120.473 42.2812H117.643C116.975 42.2812 116.395 42.3574 115.902 42.5098C115.41 42.6621 115.006 42.8789 114.689 43.1602C114.373 43.4297 114.139 43.7461 113.986 44.1094C113.846 44.4727 113.775 44.8711 113.775 45.3047C113.775 45.7383 113.875 46.1309 114.074 46.4824C114.273 46.8223 114.561 47.0918 114.936 47.291C115.311 47.4785 115.75 47.5723 116.254 47.5723C117.016 47.5723 117.678 47.4199 118.24 47.1152C118.803 46.8105 119.236 46.4355 119.541 45.9902C119.857 45.5449 120.021 45.123 120.033 44.7246L121.369 46.8691C121.182 47.3496 120.924 47.8477 120.596 48.3633C120.279 48.8789 119.875 49.3652 119.383 49.8223C118.891 50.2676 118.299 50.6367 117.607 50.9297C116.916 51.2109 116.096 51.3516 115.146 51.3516C113.939 51.3516 112.844 51.1113 111.859 50.6309C110.887 50.1387 110.113 49.4648 109.539 48.6094C108.977 47.7422 108.695 46.7578 108.695 45.6562C108.695 44.6602 108.883 43.7754 109.258 43.002C109.633 42.2285 110.184 41.5781 110.91 41.0508C111.648 40.5117 112.568 40.1074 113.67 39.8379C114.771 39.5566 116.049 39.416 117.502 39.416H120.438ZM120.895 24.0879L123.812 24.2812C123.812 25.1367 123.643 25.916 123.303 26.6191C122.963 27.3105 122.494 27.8672 121.896 28.2891C121.299 28.6992 120.613 28.9043 119.84 28.9043C119.277 28.9043 118.791 28.8281 118.381 28.6758C117.982 28.5234 117.613 28.3477 117.273 28.1484C116.934 27.9375 116.582 27.7559 116.219 27.6035C115.867 27.4512 115.463 27.375 115.006 27.375C114.596 27.375 114.244 27.5215 113.951 27.8145C113.67 28.1074 113.529 28.5293 113.529 29.0801L110.594 28.9219C110.594 28.0781 110.764 27.3047 111.104 26.6016C111.443 25.8984 111.912 25.3359 112.51 24.9141C113.107 24.4805 113.787 24.2637 114.549 24.2637C115.029 24.2637 115.469 24.3457 115.867 24.5098C116.266 24.6621 116.646 24.8379 117.01 25.0371C117.385 25.2363 117.766 25.4121 118.152 25.5645C118.539 25.7168 118.949 25.793 119.383 25.793C119.793 25.793 120.145 25.6465 120.438 25.3535C120.742 25.0488 120.895 24.627 120.895 24.0879ZM127.961 41.6836V41.3145C127.961 39.9199 128.16 38.6367 128.559 37.4648C128.957 36.2812 129.537 35.2559 130.299 34.3887C131.061 33.5215 131.998 32.8477 133.111 32.3672C134.225 31.875 135.502 31.6289 136.943 31.6289C138.385 31.6289 139.668 31.875 140.793 32.3672C141.918 32.8477 142.861 33.5215 143.623 34.3887C144.396 35.2559 144.982 36.2812 145.381 37.4648C145.779 38.6367 145.979 39.9199 145.979 41.3145V41.6836C145.979 43.0664 145.779 44.3496 145.381 45.5332C144.982 46.7051 144.396 47.7305 143.623 48.6094C142.861 49.4766 141.924 50.1504 140.811 50.6309C139.697 51.1113 138.42 51.3516 136.979 51.3516C135.537 51.3516 134.254 51.1113 133.129 50.6309C132.016 50.1504 131.072 49.4766 130.299 48.6094C129.537 47.7305 128.957 46.7051 128.559 45.5332C128.16 44.3496 127.961 43.0664 127.961 41.6836ZM133.023 41.3145V41.6836C133.023 42.4805 133.094 43.2246 133.234 43.916C133.375 44.6074 133.598 45.2168 133.902 45.7441C134.219 46.2598 134.629 46.6641 135.133 46.957C135.637 47.25 136.252 47.3965 136.979 47.3965C137.682 47.3965 138.285 47.25 138.789 46.957C139.293 46.6641 139.697 46.2598 140.002 45.7441C140.307 45.2168 140.529 44.6074 140.67 43.916C140.822 43.2246 140.898 42.4805 140.898 41.6836V41.3145C140.898 40.541 140.822 39.8145 140.67 39.1348C140.529 38.4434 140.301 37.834 139.984 37.3066C139.68 36.7676 139.275 36.3457 138.771 36.041C138.268 35.7363 137.658 35.584 136.943 35.584C136.229 35.584 135.619 35.7363 135.115 36.041C134.623 36.3457 134.219 36.7676 133.902 37.3066C133.598 37.834 133.375 38.4434 133.234 39.1348C133.094 39.8145 133.023 40.541 133.023 41.3145ZM163.012 36.041V51H157.949V31.9805H162.695L163.012 36.041ZM162.273 40.8223H160.902C160.902 39.416 161.084 38.1504 161.447 37.0254C161.811 35.8887 162.32 34.9219 162.977 34.125C163.633 33.3164 164.412 32.7012 165.314 32.2793C166.229 31.8457 167.248 31.6289 168.373 31.6289C169.264 31.6289 170.078 31.7578 170.816 32.0156C171.555 32.2734 172.188 32.6836 172.715 33.2461C173.254 33.8086 173.664 34.5527 173.945 35.4785C174.238 36.4043 174.385 37.5352 174.385 38.8711V51H169.287V38.8535C169.287 38.0098 169.17 37.3535 168.936 36.8848C168.701 36.416 168.355 36.0879 167.898 35.9004C167.453 35.7012 166.902 35.6016 166.246 35.6016C165.566 35.6016 164.975 35.7363 164.471 36.0059C163.979 36.2754 163.568 36.6504 163.24 37.1309C162.924 37.5996 162.684 38.1504 162.52 38.7832C162.355 39.416 162.273 40.0957 162.273 40.8223ZM188.5 46.7109V38.2383C188.5 37.6289 188.4 37.1074 188.201 36.6738C188.002 36.2285 187.691 35.8828 187.27 35.6367C186.859 35.3906 186.326 35.2676 185.67 35.2676C185.107 35.2676 184.621 35.3672 184.211 35.5664C183.801 35.7539 183.484 36.0293 183.262 36.3926C183.039 36.7441 182.928 37.1602 182.928 37.6406H177.865C177.865 36.832 178.053 36.0645 178.428 35.3379C178.803 34.6113 179.348 33.9727 180.062 33.4219C180.777 32.8594 181.627 32.4199 182.611 32.1035C183.607 31.7871 184.721 31.6289 185.951 31.6289C187.428 31.6289 188.74 31.875 189.889 32.3672C191.037 32.8594 191.939 33.5977 192.596 34.582C193.264 35.5664 193.598 36.7969 193.598 38.2734V46.4121C193.598 47.4551 193.662 48.3105 193.791 48.9785C193.92 49.6348 194.107 50.209 194.354 50.7012V51H189.238C188.992 50.4844 188.805 49.8398 188.676 49.0664C188.559 48.2812 188.5 47.4961 188.5 46.7109ZM189.168 39.416L189.203 42.2812H186.373C185.705 42.2812 185.125 42.3574 184.633 42.5098C184.141 42.6621 183.736 42.8789 183.42 43.1602C183.104 43.4297 182.869 43.7461 182.717 44.1094C182.576 44.4727 182.506 44.8711 182.506 45.3047C182.506 45.7383 182.605 46.1309 182.805 46.4824C183.004 46.8223 183.291 47.0918 183.666 47.291C184.041 47.4785 184.48 47.5723 184.984 47.5723C185.746 47.5723 186.408 47.4199 186.971 47.1152C187.533 46.8105 187.967 46.4355 188.271 45.9902C188.588 45.5449 188.752 45.123 188.764 44.7246L190.1 46.8691C189.912 47.3496 189.654 47.8477 189.326 48.3633C189.01 48.8789 188.605 49.3652 188.113 49.8223C187.621 50.2676 187.029 50.6367 186.338 50.9297C185.646 51.2109 184.826 51.3516 183.877 51.3516C182.67 51.3516 181.574 51.1113 180.59 50.6309C179.617 50.1387 178.844 49.4648 178.27 48.6094C177.707 47.7422 177.426 46.7578 177.426 45.6562C177.426 44.6602 177.613 43.7754 177.988 43.002C178.363 42.2285 178.914 41.5781 179.641 41.0508C180.379 40.5117 181.299 40.1074 182.4 39.8379C183.502 39.5566 184.779 39.416 186.232 39.416H189.168ZM211.527 36.1289V51H206.465V31.9805H211.229L211.527 36.1289ZM217.258 31.8574L217.17 36.5508C216.924 36.5156 216.625 36.4863 216.273 36.4629C215.934 36.4277 215.623 36.4102 215.342 36.4102C214.627 36.4102 214.006 36.5039 213.479 36.6914C212.963 36.8672 212.529 37.1309 212.178 37.4824C211.838 37.834 211.58 38.2617 211.404 38.7656C211.24 39.2695 211.146 39.8438 211.123 40.4883L210.104 40.1719C210.104 38.9414 210.227 37.8105 210.473 36.7793C210.719 35.7363 211.076 34.8281 211.545 34.0547C212.025 33.2812 212.611 32.6836 213.303 32.2617C213.994 31.8398 214.785 31.6289 215.676 31.6289C215.957 31.6289 216.244 31.6523 216.537 31.6992C216.83 31.7344 217.07 31.7871 217.258 31.8574ZM218.312 41.6836V41.3145C218.312 39.9199 218.512 38.6367 218.91 37.4648C219.309 36.2812 219.889 35.2559 220.65 34.3887C221.412 33.5215 222.35 32.8477 223.463 32.3672C224.576 31.875 225.854 31.6289 227.295 31.6289C228.736 31.6289 230.02 31.875 231.145 32.3672C232.27 32.8477 233.213 33.5215 233.975 34.3887C234.748 35.2559 235.334 36.2812 235.732 37.4648C236.131 38.6367 236.33 39.9199 236.33 41.3145V41.6836C236.33 43.0664 236.131 44.3496 235.732 45.5332C235.334 46.7051 234.748 47.7305 233.975 48.6094C233.213 49.4766 232.275 50.1504 231.162 50.6309C230.049 51.1113 228.771 51.3516 227.33 51.3516C225.889 51.3516 224.605 51.1113 223.48 50.6309C222.367 50.1504 221.424 49.4766 220.65 48.6094C219.889 47.7305 219.309 46.7051 218.91 45.5332C218.512 44.3496 218.312 43.0664 218.312 41.6836ZM223.375 41.3145V41.6836C223.375 42.4805 223.445 43.2246 223.586 43.916C223.727 44.6074 223.949 45.2168 224.254 45.7441C224.57 46.2598 224.98 46.6641 225.484 46.957C225.988 47.25 226.604 47.3965 227.33 47.3965C228.033 47.3965 228.637 47.25 229.141 46.957C229.645 46.6641 230.049 46.2598 230.354 45.7441C230.658 45.2168 230.881 44.6074 231.021 43.916C231.174 43.2246 231.25 42.4805 231.25 41.6836V41.3145C231.25 40.541 231.174 39.8145 231.021 39.1348C230.881 38.4434 230.652 37.834 230.336 37.3066C230.031 36.7676 229.627 36.3457 229.123 36.041C228.619 35.7363 228.01 35.584 227.295 35.584C226.58 35.584 225.971 35.7363 225.467 36.041C224.975 36.3457 224.57 36.7676 224.254 37.3066C223.949 37.834 223.727 38.4434 223.586 39.1348C223.445 39.8145 223.375 40.541 223.375 41.3145ZM250.674 46.8516V24H255.771V51H251.184L250.674 46.8516ZM238.65 41.7188V41.3496C238.65 39.8965 238.814 38.5781 239.143 37.3945C239.471 36.1992 239.951 35.1738 240.584 34.3184C241.217 33.4629 241.996 32.8008 242.922 32.332C243.848 31.8633 244.902 31.6289 246.086 31.6289C247.199 31.6289 248.172 31.8633 249.004 32.332C249.848 32.8008 250.562 33.4688 251.148 34.3359C251.746 35.1914 252.227 36.2051 252.59 37.377C252.953 38.5371 253.217 39.8086 253.381 41.1914V42C253.217 43.3242 252.953 44.5547 252.59 45.6914C252.227 46.8281 251.746 47.8242 251.148 48.6797C250.562 49.5234 249.848 50.1797 249.004 50.6484C248.16 51.1172 247.176 51.3516 246.051 51.3516C244.867 51.3516 243.812 51.1113 242.887 50.6309C241.973 50.1504 241.199 49.4766 240.566 48.6094C239.945 47.7422 239.471 46.7227 239.143 45.5508C238.814 44.3789 238.65 43.1016 238.65 41.7188ZM243.713 41.3496V41.7188C243.713 42.5039 243.771 43.2363 243.889 43.916C244.018 44.5957 244.223 45.1992 244.504 45.7266C244.797 46.2422 245.172 46.6465 245.629 46.9395C246.098 47.2207 246.666 47.3613 247.334 47.3613C248.201 47.3613 248.916 47.168 249.479 46.7812C250.041 46.3828 250.469 45.8379 250.762 45.1465C251.066 44.4551 251.242 43.6582 251.289 42.7559V40.4531C251.254 39.7148 251.148 39.0527 250.973 38.4668C250.809 37.8691 250.562 37.3594 250.234 36.9375C249.918 36.5156 249.52 36.1875 249.039 35.9531C248.57 35.7188 248.014 35.6016 247.369 35.6016C246.713 35.6016 246.15 35.7539 245.682 36.0586C245.213 36.3516 244.832 36.7559 244.539 37.2715C244.258 37.7871 244.047 38.3965 243.906 39.0996C243.777 39.791 243.713 40.541 243.713 41.3496ZM269.992 46.7109V38.2383C269.992 37.6289 269.893 37.1074 269.693 36.6738C269.494 36.2285 269.184 35.8828 268.762 35.6367C268.352 35.3906 267.818 35.2676 267.162 35.2676C266.6 35.2676 266.113 35.3672 265.703 35.5664C265.293 35.7539 264.977 36.0293 264.754 36.3926C264.531 36.7441 264.42 37.1602 264.42 37.6406H259.357C259.357 36.832 259.545 36.0645 259.92 35.3379C260.295 34.6113 260.84 33.9727 261.555 33.4219C262.27 32.8594 263.119 32.4199 264.104 32.1035C265.1 31.7871 266.213 31.6289 267.443 31.6289C268.92 31.6289 270.232 31.875 271.381 32.3672C272.529 32.8594 273.432 33.5977 274.088 34.582C274.756 35.5664 275.09 36.7969 275.09 38.2734V46.4121C275.09 47.4551 275.154 48.3105 275.283 48.9785C275.412 49.6348 275.6 50.209 275.846 50.7012V51H270.73C270.484 50.4844 270.297 49.8398 270.168 49.0664C270.051 48.2812 269.992 47.4961 269.992 46.7109ZM270.66 39.416L270.695 42.2812H267.865C267.197 42.2812 266.617 42.3574 266.125 42.5098C265.633 42.6621 265.229 42.8789 264.912 43.1602C264.596 43.4297 264.361 43.7461 264.209 44.1094C264.068 44.4727 263.998 44.8711 263.998 45.3047C263.998 45.7383 264.098 46.1309 264.297 46.4824C264.496 46.8223 264.783 47.0918 265.158 47.291C265.533 47.4785 265.973 47.5723 266.477 47.5723C267.238 47.5723 267.9 47.4199 268.463 47.1152C269.025 46.8105 269.459 46.4355 269.764 45.9902C270.08 45.5449 270.244 45.123 270.256 44.7246L271.592 46.8691C271.404 47.3496 271.146 47.8477 270.818 48.3633C270.502 48.8789 270.098 49.3652 269.605 49.8223C269.113 50.2676 268.521 50.6367 267.83 50.9297C267.139 51.2109 266.318 51.3516 265.369 51.3516C264.162 51.3516 263.066 51.1113 262.082 50.6309C261.109 50.1387 260.336 49.4648 259.762 48.6094C259.199 47.7422 258.918 46.7578 258.918 45.6562C258.918 44.6602 259.105 43.7754 259.48 43.002C259.855 42.2285 260.406 41.5781 261.133 41.0508C261.871 40.5117 262.791 40.1074 263.893 39.8379C264.994 39.5566 266.271 39.416 267.725 39.416H270.66Z" fill="#102043"/>
<g clip-path="url(#clip1_71_297)">
<path d="M32 10L50.4524 12.5789L57 38.3684L49.2619 57.7105L32 59V10Z" fill="#185488"/>
<path d="M45.4026 1C46.7379 1.07597 47.5728 1.33124 48.7825 1.86373C49.1615 2.02991 49.5405 2.19609 49.931 2.36731C50.3202 2.54327 50.7093 2.71924 51.1102 2.90054C51.7031 3.15789 51.7031 3.15789 52.3079 3.42043C55.2328 4.7212 55.2328 4.7212 56.1219 6.0095C55.971 8.26564 54.8901 10.0275 53.8341 12.0019C53.3019 13.4047 53.316 14.0842 53.7635 15.5025C54.2636 16.3033 54.2636 16.3033 54.9181 16.9502C55.1244 17.1719 55.3306 17.3936 55.5431 17.6221C56.233 18.2639 56.6528 18.5376 57.6205 18.5477C59.3858 18.3863 60.8491 18.0515 62.4848 17.3774C63.9639 16.7716 65.1071 16.3348 66.7349 16.6416C68.2364 18.2692 68.826 20.297 69.5847 22.3137C69.7326 22.6894 69.8806 23.0651 70.033 23.4521C70.1708 23.8161 70.3087 24.18 70.4507 24.5549C70.5769 24.8853 70.7032 25.2157 70.8334 25.5561C71.0954 26.6707 71.055 27.3353 70.6656 28.413C69.241 29.2439 67.8159 29.8158 66.2773 30.4213C65.8527 30.5887 65.4281 30.7561 64.9906 30.9286C64.5858 31.0823 64.1809 31.236 63.7638 31.3943C62.7506 31.7379 62.7506 31.7379 62.4111 32.5899C61.9251 35.7375 61.9251 35.7375 62.947 38.5986C63.792 39.1074 64.6293 39.4506 65.5557 39.8045C66.4094 40.2199 67.261 40.6393 68.1106 41.0624C68.8305 41.404 69.5509 41.7447 70.2725 42.0829C70.5655 44.7062 69.556 46.5336 68.3563 48.8466C68.1754 49.2086 67.9945 49.5706 67.8082 49.9435C66.4658 52.5952 66.4658 52.5952 65.5557 53.4744C63.1191 53.7446 61.4966 52.752 59.3909 51.6945C57.9039 51.126 56.921 51.0096 55.3358 51.1961C53.6247 52.2176 52.3707 53.5535 51.8718 55.4442C52.2763 57.2776 52.9648 58.9351 53.7266 60.6565C54.147 61.8023 54.3427 62.5293 54.1566 63.7269C53.2746 64.7909 52.349 65.1796 51.0396 65.6418C50.6621 65.7752 50.2846 65.9086 49.8957 66.046C49.502 66.1813 49.1083 66.3167 48.7027 66.4561C48.312 66.5959 47.9213 66.7356 47.5188 66.8796C44.0173 68.1 44.0173 68.1 42.3644 67.9038C40.7248 66.7354 40.3586 64.6871 39.7457 62.8933C39.0061 60.8478 39.0061 60.8478 37.2544 59.55C36.7356 59.4246 36.2167 59.2993 35.6821 59.1702C35.6821 57.1653 35.6821 55.1604 35.6821 53.0947C36.2334 53.0007 36.7847 52.9068 37.3527 52.8099C43.1679 51.661 48.2735 49.5465 51.7981 44.7409C54.6517 40.1423 55.7778 35.4842 54.6725 30.1454C53.1088 24.8081 50.0929 20.6078 45.1159 17.7808C42.0827 16.3787 38.9972 15.9157 35.6821 15.5025C35.6821 13.3723 35.6821 11.242 35.6821 9.04725C36.6674 8.98545 37.6526 8.92365 38.6379 8.86185C39.7822 8.63378 40.0419 8.36764 40.7921 7.52838C41.2217 6.84718 41.2217 6.84718 41.5813 6.10146C41.7176 5.83274 41.8539 5.56401 41.9943 5.28714C42.2018 4.86937 42.2018 4.86937 42.4135 4.44316C44.0983 1.08892 44.0983 1.08892 45.4026 1Z" fill="#102043"/>
<path d="M36 19C40.5997 19 44.026 20.2563 47.4753 23.3853C50.6637 26.7998 52.0985 30.9936 51.9948 35.6216C51.4882 40.4185 49.35 44.0809 45.7111 47.15C42.6673 49.4314 39.8158 50 36 50C36 39.77 36 29.54 36 19Z" fill="#808080"/>
<path d="M33.6852 10.1364C33.6852 26.342 33.6852 42.5476 33.6852 59.2443C26.1506 59.2443 19.4653 57.3773 13.9978 52.6103C13.7118 52.3441 13.4257 52.0779 13.131 51.8037C12.858 51.5644 12.5849 51.3251 12.3036 51.0785C10.6069 49.4983 10.6069 49.4983 10.6404 48.1299C11.0337 47.3393 11.0337 47.3393 11.4531 46.9673C12.3686 46.9173 13.2857 46.8916 14.2027 46.8758C14.7691 46.8635 15.3355 46.8512 15.9018 46.8387C16.7975 46.8211 17.6932 46.8046 18.5889 46.7899C19.4515 46.7751 20.3139 46.756 21.1764 46.7363C21.6943 46.7269 22.2123 46.7176 22.7459 46.708C24.1082 46.6798 24.1082 46.6798 25.2957 45.8512C25.7213 45.1792 25.7213 45.1792 25.7152 44.3631C25.3741 43.3399 25.3741 43.3399 24.4568 42.503C23.1381 42.3312 22.0396 42.2783 20.7225 42.3053C20.3558 42.3041 19.9892 42.3029 19.6114 42.3016C18.0421 42.2967 16.4733 42.3134 14.9041 42.328C13.7585 42.3356 12.6135 42.3324 11.4679 42.3286C11.1135 42.3359 10.7591 42.3432 10.3939 42.3507C7.939 42.341 7.939 42.341 6.59879 41.2626C6 40.2708 6 40.2708 6.05243 39.0849C6.41947 38.0386 6.41947 38.0386 7.25842 37.2945C8.43585 37.2166 9.57522 37.1825 10.7535 37.1797C11.4676 37.1704 12.1818 37.1609 12.8959 37.1514C14.0226 37.1407 15.1492 37.1318 16.276 37.1248C17.3628 37.1167 18.4494 37.102 19.5362 37.0867C19.8714 37.0867 20.2066 37.0866 20.552 37.0866C22.4602 37.0567 23.7619 36.926 25.2957 35.8064C25.8479 34.7113 25.8479 34.7113 25.339 33.7029C24.4933 32.68 24.4933 32.68 22.8455 32.6144C22.1733 32.6116 21.501 32.6183 20.829 32.6325C20.4726 32.6313 20.1163 32.6301 19.7491 32.6289C18.2245 32.624 16.7005 32.6406 15.176 32.6552C14.0627 32.6629 12.9499 32.6596 11.8366 32.6558C11.4935 32.6631 11.1504 32.6704 10.797 32.6779C8.99177 32.6706 8.29853 32.5946 6.81498 31.5884C6 30.598 6 30.598 6 29.4354C6.42692 28.3468 6.68771 27.9556 7.67789 27.2497C8.89459 27.1354 10.0259 27.0857 11.2434 27.0855C11.5924 27.0806 11.9415 27.0757 12.3011 27.0706C13.4167 27.0554 14.5322 27.0473 15.6479 27.0405C16.7635 27.0316 17.8791 27.0212 18.9946 27.0063C19.6888 26.9973 20.383 26.9917 21.0773 26.9901C22.6987 26.9706 23.4961 26.9497 24.8763 26.1336C25.156 25.0335 25.156 25.0335 24.8763 23.9015C23.2821 22.7937 21.9976 22.6353 20.0048 22.595C19.4817 22.5818 18.9585 22.5686 18.4195 22.555C17.8769 22.5466 17.3343 22.5382 16.7752 22.5296C16.2245 22.5169 15.6737 22.5042 15.1063 22.4911C13.7488 22.4604 12.3914 22.4347 11.0337 22.4133C10.529 20.3003 10.529 20.3003 11.2958 19.2278C12.3185 18.2969 13.3406 17.3687 14.3895 16.4609C14.7212 16.1487 14.7212 16.1487 15.0596 15.8302C19.9752 11.5752 27.1147 10.1364 33.6852 10.1364Z" fill="#102043"/>
</g>
</g>
<defs>
<clipPath id="clip0_71_297">
<rect width="275" height="70" fill="white"/>
</clipPath>
<clipPath id="clip1_71_297">
<rect width="65" height="67" fill="white" transform="translate(6 1)"/>
</clipPath>
</defs>
</svg>
