<svg width="282" height="67" viewBox="0 0 282 67" fill="none" xmlns="http://www.w3.org/2000/svg">
<g clip-path="url(#clip0_15_60)">
<g clip-path="url(#clip1_15_60)">
<path d="M26 9L44.4524 11.5789L51 37.3684L43.2619 56.7105L26 58V9Z" fill="white"/>
<path d="M39.4026 0C40.7378 0.0759733 41.5727 0.331244 42.7824 0.863732C43.1615 1.02991 43.5405 1.19609 43.931 1.36731C44.3201 1.54327 44.7092 1.71924 45.1102 1.90054C45.703 2.15789 45.703 2.15789 46.3078 2.42043C49.2328 3.7212 49.2328 3.7212 50.1219 5.0095C49.971 7.26564 48.89 9.02752 47.8341 11.0019C47.3018 12.4047 47.3159 13.0842 47.7634 14.5025C48.2635 15.3033 48.2635 15.3033 48.9181 15.9502C49.1243 16.1719 49.3305 16.3936 49.543 16.6221C50.233 17.2639 50.6527 17.5376 51.6204 17.5477C53.3858 17.3863 54.8491 17.0515 56.4847 16.3774C57.9638 15.7716 59.107 15.3348 60.7348 15.6416C62.2364 17.2692 62.8259 19.297 63.5846 21.3137C63.7326 21.6894 63.8805 22.0651 64.033 22.4521C64.1708 22.8161 64.3086 23.18 64.4506 23.5549C64.5769 23.8853 64.7032 24.2157 64.8333 24.5561C65.0954 25.6707 65.055 26.3353 64.6656 27.413C63.2409 28.2439 61.8158 28.8158 60.2773 29.4213C59.8527 29.5887 59.428 29.7561 58.9906 29.9286C58.5857 30.0823 58.1809 30.236 57.7637 30.3943C56.7506 30.7379 56.7506 30.7379 56.411 31.5899C55.925 34.7375 55.925 34.7375 56.9469 37.5986C57.7919 38.1074 58.6292 38.4506 59.5556 38.8045C60.4093 39.2199 61.2609 39.6393 62.1106 40.0624C62.8304 40.404 63.5508 40.7447 64.2725 41.0829C64.5654 43.7062 63.5559 45.5336 62.3563 47.8466C62.1754 48.2086 61.9945 48.5706 61.8081 48.9435C60.4658 51.5952 60.4658 51.5952 59.5556 52.4744C57.119 52.7446 55.4966 51.752 53.3908 50.6945C51.9039 50.126 50.9209 50.0096 49.3357 50.1961C47.6247 51.2176 46.3707 52.5535 45.8718 54.4442C46.2762 56.2776 46.9647 57.9351 47.7266 59.6565C48.147 60.8023 48.3426 61.5293 48.1565 62.7269C47.2745 63.7909 46.3489 64.1796 45.0395 64.6418C44.6621 64.7752 44.2846 64.9086 43.8956 65.046C43.5019 65.1813 43.1082 65.3167 42.7026 65.4561C42.3119 65.5959 41.9213 65.7356 41.5188 65.8796C38.0172 67.1 38.0172 67.1 36.3643 66.9038C34.7247 65.7354 34.3585 63.6871 33.7456 61.8933C33.0061 59.8478 33.0061 59.8478 31.2544 58.55C30.7355 58.4246 30.2166 58.2993 29.6821 58.1702C29.6821 56.1653 29.6821 54.1604 29.6821 52.0947C30.2334 52.0007 30.7846 51.9068 31.3526 51.8099C37.1679 50.661 42.2734 48.5465 45.7981 43.7409C48.6517 39.1423 49.7777 34.4842 48.6724 29.1454C47.1087 23.8081 44.0928 19.6078 39.1158 16.7808C36.0826 15.3787 32.9972 14.9157 29.6821 14.5025C29.6821 12.3723 29.6821 10.242 29.6821 8.04725C30.6673 7.98545 31.6526 7.92365 32.6378 7.86185C33.7822 7.63378 34.0418 7.36764 34.792 6.52838C35.2216 5.84718 35.2216 5.84718 35.5812 5.10146C35.7175 4.83274 35.8538 4.56401 35.9943 4.28714C36.2018 3.86937 36.2018 3.86937 36.4134 3.44316C38.0982 0.0889243 38.0982 0.0889243 39.4026 0Z" fill="#084A83"/>
<path d="M29.8066 17.9666C34.2797 17.9666 37.6116 19.2408 40.9659 22.4143C44.0665 25.8774 45.4618 30.1309 45.3609 34.8247C44.8682 39.69 42.7889 43.4045 39.2503 46.5173C36.2903 48.8312 33.5174 49.4079 29.8066 49.4079C29.8066 39.0323 29.8066 28.6566 29.8066 17.9666Z" fill="#808080"/>
<path d="M27.6852 9.13647C27.6852 25.3421 27.6852 41.5477 27.6852 58.2444C20.1506 58.2444 13.4653 56.3775 7.99783 51.6104C7.71179 51.3442 7.42575 51.0781 7.13103 50.8038C6.85797 50.5645 6.5849 50.3252 6.30356 50.0787C4.60687 48.4985 4.60687 48.4985 4.64041 47.13C5.03367 46.3395 5.03367 46.3395 5.45314 45.9674C6.36856 45.9175 7.28568 45.8917 8.20265 45.8759C8.76905 45.8636 9.33545 45.8513 9.90184 45.8388C10.7975 45.8212 11.6932 45.8047 12.5889 45.7901C13.4515 45.7753 14.3139 45.7561 15.1764 45.7364C15.6943 45.7271 16.2123 45.7177 16.7459 45.7081C18.1082 45.6799 18.1082 45.6799 19.2957 44.8513C19.7213 44.1793 19.7213 44.1793 19.7152 43.3632C19.3741 42.3401 19.3741 42.3401 18.4568 41.5031C17.1381 41.3313 16.0396 41.2784 14.7225 41.3054C14.3558 41.3042 13.9892 41.303 13.6114 41.3018C12.0421 41.2969 10.4733 41.3135 8.90406 41.3281C7.75851 41.3358 6.61345 41.3325 5.46789 41.3287C5.11348 41.336 4.75907 41.3433 4.39392 41.3508C1.939 41.3412 1.939 41.3412 0.598793 40.2627C0 39.2709 0 39.2709 0.0524341 38.0851C0.419473 37.0387 0.419473 37.0387 1.25842 36.2947C2.43585 36.2168 3.57522 36.1826 4.75348 36.1799C5.46762 36.1705 6.18176 36.161 6.8959 36.1515C8.02258 36.1408 9.14923 36.1319 10.276 36.1249C11.3628 36.1168 12.4494 36.1022 13.5362 36.0868C13.8714 36.0868 14.2066 36.0868 14.552 36.0867C16.4602 36.0568 17.7619 35.9261 19.2957 34.8065C19.8479 33.7114 19.8479 33.7114 19.339 32.703C18.4933 31.6801 18.4933 31.6801 16.8455 31.6145C16.1733 31.6118 15.501 31.6184 14.829 31.6327C14.4726 31.6314 14.1163 31.6302 13.7491 31.629C12.2245 31.6241 10.7005 31.6407 9.17596 31.6554C8.06267 31.663 6.94987 31.6597 5.83657 31.6559C5.4935 31.6632 5.15043 31.6705 4.79696 31.678C2.99177 31.6707 2.29853 31.5947 0.814981 30.5885C0 29.5981 0 29.5981 0 28.4355C0.426921 27.347 0.687714 26.9557 1.67789 26.2499C2.89459 26.1355 4.02588 26.0858 5.24341 26.0856C5.59245 26.0807 5.94148 26.0758 6.3011 26.0707C7.4167 26.0555 8.53216 26.0475 9.64787 26.0406C10.7635 26.0317 11.8791 26.0213 12.9946 26.0064C13.6888 25.9974 14.383 25.9918 15.0773 25.9902C16.6987 25.9707 17.4961 25.9498 18.8763 25.1338C19.156 24.0336 19.156 24.0336 18.8763 22.9016C17.2821 21.7938 15.9976 21.6355 14.0048 21.5951C13.4817 21.5819 12.9585 21.5687 12.4195 21.5552C11.8769 21.5468 11.3343 21.5384 10.7752 21.5297C10.2245 21.517 9.67374 21.5043 9.10632 21.4912C7.74881 21.4606 6.3914 21.4348 5.03367 21.4135C4.52899 19.3004 4.52899 19.3004 5.29584 18.228C6.31855 17.297 7.34065 16.3688 8.38945 15.461C8.72119 15.1488 8.72119 15.1488 9.05962 14.8303C13.9752 10.5753 21.1147 9.13647 27.6852 9.13647Z" fill="#084A83"/>
</g>
<path d="M83.6934 22.4062H88.1582L94.7324 41.1973L101.307 22.4062H105.771L96.5254 48H92.9395L83.6934 22.4062ZM81.2852 22.4062H85.7324L86.541 40.7227V48H81.2852V22.4062ZM103.732 22.4062H108.197V48H102.924V40.7227L103.732 22.4062ZM122.77 43.7109V35.2383C122.77 34.6289 122.67 34.1074 122.471 33.6738C122.271 33.2285 121.961 32.8828 121.539 32.6367C121.129 32.3906 120.596 32.2676 119.939 32.2676C119.377 32.2676 118.891 32.3672 118.48 32.5664C118.07 32.7539 117.754 33.0293 117.531 33.3926C117.309 33.7441 117.197 34.1602 117.197 34.6406H112.135C112.135 33.832 112.322 33.0645 112.697 32.3379C113.072 31.6113 113.617 30.9727 114.332 30.4219C115.047 29.8594 115.896 29.4199 116.881 29.1035C117.877 28.7871 118.99 28.6289 120.221 28.6289C121.697 28.6289 123.01 28.875 124.158 29.3672C125.307 29.8594 126.209 30.5977 126.865 31.582C127.533 32.5664 127.867 33.7969 127.867 35.2734V43.4121C127.867 44.4551 127.932 45.3105 128.061 45.9785C128.189 46.6348 128.377 47.209 128.623 47.7012V48H123.508C123.262 47.4844 123.074 46.8398 122.945 46.0664C122.828 45.2812 122.77 44.4961 122.77 43.7109ZM123.438 36.416L123.473 39.2812H120.643C119.975 39.2812 119.395 39.3574 118.902 39.5098C118.41 39.6621 118.006 39.8789 117.689 40.1602C117.373 40.4297 117.139 40.7461 116.986 41.1094C116.846 41.4727 116.775 41.8711 116.775 42.3047C116.775 42.7383 116.875 43.1309 117.074 43.4824C117.273 43.8223 117.561 44.0918 117.936 44.291C118.311 44.4785 118.75 44.5723 119.254 44.5723C120.016 44.5723 120.678 44.4199 121.24 44.1152C121.803 43.8105 122.236 43.4355 122.541 42.9902C122.857 42.5449 123.021 42.123 123.033 41.7246L124.369 43.8691C124.182 44.3496 123.924 44.8477 123.596 45.3633C123.279 45.8789 122.875 46.3652 122.383 46.8223C121.891 47.2676 121.299 47.6367 120.607 47.9297C119.916 48.2109 119.096 48.3516 118.146 48.3516C116.939 48.3516 115.844 48.1113 114.859 47.6309C113.887 47.1387 113.113 46.4648 112.539 45.6094C111.977 44.7422 111.695 43.7578 111.695 42.6562C111.695 41.6602 111.883 40.7754 112.258 40.002C112.633 39.2285 113.184 38.5781 113.91 38.0508C114.648 37.5117 115.568 37.1074 116.67 36.8379C117.771 36.5566 119.049 36.416 120.502 36.416H123.438ZM123.895 21.0879L126.812 21.2812C126.812 22.1367 126.643 22.916 126.303 23.6191C125.963 24.3105 125.494 24.8672 124.896 25.2891C124.299 25.6992 123.613 25.9043 122.84 25.9043C122.277 25.9043 121.791 25.8281 121.381 25.6758C120.982 25.5234 120.613 25.3477 120.273 25.1484C119.934 24.9375 119.582 24.7559 119.219 24.6035C118.867 24.4512 118.463 24.375 118.006 24.375C117.596 24.375 117.244 24.5215 116.951 24.8145C116.67 25.1074 116.529 25.5293 116.529 26.0801L113.594 25.9219C113.594 25.0781 113.764 24.3047 114.104 23.6016C114.443 22.8984 114.912 22.3359 115.51 21.9141C116.107 21.4805 116.787 21.2637 117.549 21.2637C118.029 21.2637 118.469 21.3457 118.867 21.5098C119.266 21.6621 119.646 21.8379 120.01 22.0371C120.385 22.2363 120.766 22.4121 121.152 22.5645C121.539 22.7168 121.949 22.793 122.383 22.793C122.793 22.793 123.145 22.6465 123.438 22.3535C123.742 22.0488 123.895 21.627 123.895 21.0879ZM130.961 38.6836V38.3145C130.961 36.9199 131.16 35.6367 131.559 34.4648C131.957 33.2812 132.537 32.2559 133.299 31.3887C134.061 30.5215 134.998 29.8477 136.111 29.3672C137.225 28.875 138.502 28.6289 139.943 28.6289C141.385 28.6289 142.668 28.875 143.793 29.3672C144.918 29.8477 145.861 30.5215 146.623 31.3887C147.396 32.2559 147.982 33.2812 148.381 34.4648C148.779 35.6367 148.979 36.9199 148.979 38.3145V38.6836C148.979 40.0664 148.779 41.3496 148.381 42.5332C147.982 43.7051 147.396 44.7305 146.623 45.6094C145.861 46.4766 144.924 47.1504 143.811 47.6309C142.697 48.1113 141.42 48.3516 139.979 48.3516C138.537 48.3516 137.254 48.1113 136.129 47.6309C135.016 47.1504 134.072 46.4766 133.299 45.6094C132.537 44.7305 131.957 43.7051 131.559 42.5332C131.16 41.3496 130.961 40.0664 130.961 38.6836ZM136.023 38.3145V38.6836C136.023 39.4805 136.094 40.2246 136.234 40.916C136.375 41.6074 136.598 42.2168 136.902 42.7441C137.219 43.2598 137.629 43.6641 138.133 43.957C138.637 44.25 139.252 44.3965 139.979 44.3965C140.682 44.3965 141.285 44.25 141.789 43.957C142.293 43.6641 142.697 43.2598 143.002 42.7441C143.307 42.2168 143.529 41.6074 143.67 40.916C143.822 40.2246 143.898 39.4805 143.898 38.6836V38.3145C143.898 37.541 143.822 36.8145 143.67 36.1348C143.529 35.4434 143.301 34.834 142.984 34.3066C142.68 33.7676 142.275 33.3457 141.771 33.041C141.268 32.7363 140.658 32.584 139.943 32.584C139.229 32.584 138.619 32.7363 138.115 33.041C137.623 33.3457 137.219 33.7676 136.902 34.3066C136.598 34.834 136.375 35.4434 136.234 36.1348C136.094 36.8145 136.023 37.541 136.023 38.3145ZM166.012 33.041V48H160.949V28.9805H165.695L166.012 33.041ZM165.273 37.8223H163.902C163.902 36.416 164.084 35.1504 164.447 34.0254C164.811 32.8887 165.32 31.9219 165.977 31.125C166.633 30.3164 167.412 29.7012 168.314 29.2793C169.229 28.8457 170.248 28.6289 171.373 28.6289C172.264 28.6289 173.078 28.7578 173.816 29.0156C174.555 29.2734 175.188 29.6836 175.715 30.2461C176.254 30.8086 176.664 31.5527 176.945 32.4785C177.238 33.4043 177.385 34.5352 177.385 35.8711V48H172.287V35.8535C172.287 35.0098 172.17 34.3535 171.936 33.8848C171.701 33.416 171.355 33.0879 170.898 32.9004C170.453 32.7012 169.902 32.6016 169.246 32.6016C168.566 32.6016 167.975 32.7363 167.471 33.0059C166.979 33.2754 166.568 33.6504 166.24 34.1309C165.924 34.5996 165.684 35.1504 165.52 35.7832C165.355 36.416 165.273 37.0957 165.273 37.8223ZM191.5 43.7109V35.2383C191.5 34.6289 191.4 34.1074 191.201 33.6738C191.002 33.2285 190.691 32.8828 190.27 32.6367C189.859 32.3906 189.326 32.2676 188.67 32.2676C188.107 32.2676 187.621 32.3672 187.211 32.5664C186.801 32.7539 186.484 33.0293 186.262 33.3926C186.039 33.7441 185.928 34.1602 185.928 34.6406H180.865C180.865 33.832 181.053 33.0645 181.428 32.3379C181.803 31.6113 182.348 30.9727 183.062 30.4219C183.777 29.8594 184.627 29.4199 185.611 29.1035C186.607 28.7871 187.721 28.6289 188.951 28.6289C190.428 28.6289 191.74 28.875 192.889 29.3672C194.037 29.8594 194.939 30.5977 195.596 31.582C196.264 32.5664 196.598 33.7969 196.598 35.2734V43.4121C196.598 44.4551 196.662 45.3105 196.791 45.9785C196.92 46.6348 197.107 47.209 197.354 47.7012V48H192.238C191.992 47.4844 191.805 46.8398 191.676 46.0664C191.559 45.2812 191.5 44.4961 191.5 43.7109ZM192.168 36.416L192.203 39.2812H189.373C188.705 39.2812 188.125 39.3574 187.633 39.5098C187.141 39.6621 186.736 39.8789 186.42 40.1602C186.104 40.4297 185.869 40.7461 185.717 41.1094C185.576 41.4727 185.506 41.8711 185.506 42.3047C185.506 42.7383 185.605 43.1309 185.805 43.4824C186.004 43.8223 186.291 44.0918 186.666 44.291C187.041 44.4785 187.48 44.5723 187.984 44.5723C188.746 44.5723 189.408 44.4199 189.971 44.1152C190.533 43.8105 190.967 43.4355 191.271 42.9902C191.588 42.5449 191.752 42.123 191.764 41.7246L193.1 43.8691C192.912 44.3496 192.654 44.8477 192.326 45.3633C192.01 45.8789 191.605 46.3652 191.113 46.8223C190.621 47.2676 190.029 47.6367 189.338 47.9297C188.646 48.2109 187.826 48.3516 186.877 48.3516C185.67 48.3516 184.574 48.1113 183.59 47.6309C182.617 47.1387 181.844 46.4648 181.27 45.6094C180.707 44.7422 180.426 43.7578 180.426 42.6562C180.426 41.6602 180.613 40.7754 180.988 40.002C181.363 39.2285 181.914 38.5781 182.641 38.0508C183.379 37.5117 184.299 37.1074 185.4 36.8379C186.502 36.5566 187.779 36.416 189.232 36.416H192.168ZM214.527 33.1289V48H209.465V28.9805H214.229L214.527 33.1289ZM220.258 28.8574L220.17 33.5508C219.924 33.5156 219.625 33.4863 219.273 33.4629C218.934 33.4277 218.623 33.4102 218.342 33.4102C217.627 33.4102 217.006 33.5039 216.479 33.6914C215.963 33.8672 215.529 34.1309 215.178 34.4824C214.838 34.834 214.58 35.2617 214.404 35.7656C214.24 36.2695 214.146 36.8438 214.123 37.4883L213.104 37.1719C213.104 35.9414 213.227 34.8105 213.473 33.7793C213.719 32.7363 214.076 31.8281 214.545 31.0547C215.025 30.2812 215.611 29.6836 216.303 29.2617C216.994 28.8398 217.785 28.6289 218.676 28.6289C218.957 28.6289 219.244 28.6523 219.537 28.6992C219.83 28.7344 220.07 28.7871 220.258 28.8574ZM221.312 38.6836V38.3145C221.312 36.9199 221.512 35.6367 221.91 34.4648C222.309 33.2812 222.889 32.2559 223.65 31.3887C224.412 30.5215 225.35 29.8477 226.463 29.3672C227.576 28.875 228.854 28.6289 230.295 28.6289C231.736 28.6289 233.02 28.875 234.145 29.3672C235.27 29.8477 236.213 30.5215 236.975 31.3887C237.748 32.2559 238.334 33.2812 238.732 34.4648C239.131 35.6367 239.33 36.9199 239.33 38.3145V38.6836C239.33 40.0664 239.131 41.3496 238.732 42.5332C238.334 43.7051 237.748 44.7305 236.975 45.6094C236.213 46.4766 235.275 47.1504 234.162 47.6309C233.049 48.1113 231.771 48.3516 230.33 48.3516C228.889 48.3516 227.605 48.1113 226.48 47.6309C225.367 47.1504 224.424 46.4766 223.65 45.6094C222.889 44.7305 222.309 43.7051 221.91 42.5332C221.512 41.3496 221.312 40.0664 221.312 38.6836ZM226.375 38.3145V38.6836C226.375 39.4805 226.445 40.2246 226.586 40.916C226.727 41.6074 226.949 42.2168 227.254 42.7441C227.57 43.2598 227.98 43.6641 228.484 43.957C228.988 44.25 229.604 44.3965 230.33 44.3965C231.033 44.3965 231.637 44.25 232.141 43.957C232.645 43.6641 233.049 43.2598 233.354 42.7441C233.658 42.2168 233.881 41.6074 234.021 40.916C234.174 40.2246 234.25 39.4805 234.25 38.6836V38.3145C234.25 37.541 234.174 36.8145 234.021 36.1348C233.881 35.4434 233.652 34.834 233.336 34.3066C233.031 33.7676 232.627 33.3457 232.123 33.041C231.619 32.7363 231.01 32.584 230.295 32.584C229.58 32.584 228.971 32.7363 228.467 33.041C227.975 33.3457 227.57 33.7676 227.254 34.3066C226.949 34.834 226.727 35.4434 226.586 36.1348C226.445 36.8145 226.375 37.541 226.375 38.3145ZM253.674 43.8516V21H258.771V48H254.184L253.674 43.8516ZM241.65 38.7188V38.3496C241.65 36.8965 241.814 35.5781 242.143 34.3945C242.471 33.1992 242.951 32.1738 243.584 31.3184C244.217 30.4629 244.996 29.8008 245.922 29.332C246.848 28.8633 247.902 28.6289 249.086 28.6289C250.199 28.6289 251.172 28.8633 252.004 29.332C252.848 29.8008 253.562 30.4688 254.148 31.3359C254.746 32.1914 255.227 33.2051 255.59 34.377C255.953 35.5371 256.217 36.8086 256.381 38.1914V39C256.217 40.3242 255.953 41.5547 255.59 42.6914C255.227 43.8281 254.746 44.8242 254.148 45.6797C253.562 46.5234 252.848 47.1797 252.004 47.6484C251.16 48.1172 250.176 48.3516 249.051 48.3516C247.867 48.3516 246.812 48.1113 245.887 47.6309C244.973 47.1504 244.199 46.4766 243.566 45.6094C242.945 44.7422 242.471 43.7227 242.143 42.5508C241.814 41.3789 241.65 40.1016 241.65 38.7188ZM246.713 38.3496V38.7188C246.713 39.5039 246.771 40.2363 246.889 40.916C247.018 41.5957 247.223 42.1992 247.504 42.7266C247.797 43.2422 248.172 43.6465 248.629 43.9395C249.098 44.2207 249.666 44.3613 250.334 44.3613C251.201 44.3613 251.916 44.168 252.479 43.7812C253.041 43.3828 253.469 42.8379 253.762 42.1465C254.066 41.4551 254.242 40.6582 254.289 39.7559V37.4531C254.254 36.7148 254.148 36.0527 253.973 35.4668C253.809 34.8691 253.562 34.3594 253.234 33.9375C252.918 33.5156 252.52 33.1875 252.039 32.9531C251.57 32.7188 251.014 32.6016 250.369 32.6016C249.713 32.6016 249.15 32.7539 248.682 33.0586C248.213 33.3516 247.832 33.7559 247.539 34.2715C247.258 34.7871 247.047 35.3965 246.906 36.0996C246.777 36.791 246.713 37.541 246.713 38.3496ZM272.992 43.7109V35.2383C272.992 34.6289 272.893 34.1074 272.693 33.6738C272.494 33.2285 272.184 32.8828 271.762 32.6367C271.352 32.3906 270.818 32.2676 270.162 32.2676C269.6 32.2676 269.113 32.3672 268.703 32.5664C268.293 32.7539 267.977 33.0293 267.754 33.3926C267.531 33.7441 267.42 34.1602 267.42 34.6406H262.357C262.357 33.832 262.545 33.0645 262.92 32.3379C263.295 31.6113 263.84 30.9727 264.555 30.4219C265.27 29.8594 266.119 29.4199 267.104 29.1035C268.1 28.7871 269.213 28.6289 270.443 28.6289C271.92 28.6289 273.232 28.875 274.381 29.3672C275.529 29.8594 276.432 30.5977 277.088 31.582C277.756 32.5664 278.09 33.7969 278.09 35.2734V43.4121C278.09 44.4551 278.154 45.3105 278.283 45.9785C278.412 46.6348 278.6 47.209 278.846 47.7012V48H273.73C273.484 47.4844 273.297 46.8398 273.168 46.0664C273.051 45.2812 272.992 44.4961 272.992 43.7109ZM273.66 36.416L273.695 39.2812H270.865C270.197 39.2812 269.617 39.3574 269.125 39.5098C268.633 39.6621 268.229 39.8789 267.912 40.1602C267.596 40.4297 267.361 40.7461 267.209 41.1094C267.068 41.4727 266.998 41.8711 266.998 42.3047C266.998 42.7383 267.098 43.1309 267.297 43.4824C267.496 43.8223 267.783 44.0918 268.158 44.291C268.533 44.4785 268.973 44.5723 269.477 44.5723C270.238 44.5723 270.9 44.4199 271.463 44.1152C272.025 43.8105 272.459 43.4355 272.764 42.9902C273.08 42.5449 273.244 42.123 273.256 41.7246L274.592 43.8691C274.404 44.3496 274.146 44.8477 273.818 45.3633C273.502 45.8789 273.098 46.3652 272.605 46.8223C272.113 47.2676 271.521 47.6367 270.83 47.9297C270.139 48.2109 269.318 48.3516 268.369 48.3516C267.162 48.3516 266.066 48.1113 265.082 47.6309C264.109 47.1387 263.336 46.4648 262.762 45.6094C262.199 44.7422 261.918 43.7578 261.918 42.6562C261.918 41.6602 262.105 40.7754 262.48 40.002C262.855 39.2285 263.406 38.5781 264.133 38.0508C264.871 37.5117 265.791 37.1074 266.893 36.8379C267.994 36.5566 269.271 36.416 270.725 36.416H273.66Z" fill="#1E1E1E"/>
</g>
<defs>
<clipPath id="clip0_15_60">
<rect width="282" height="67" fill="white"/>
</clipPath>
<clipPath id="clip1_15_60">
<rect width="65" height="67" fill="white"/>
</clipPath>
</defs>
</svg>
