<svg width="65" height="67" viewBox="0 0 65 67" fill="none" xmlns="http://www.w3.org/2000/svg">
<g clip-path="url(#clip0_1_343)">
<path d="M26 9L44.4524 11.5789L51 37.3684L43.2619 56.7105L26 58V9Z" fill="white"/>
<path d="M39.4026 0C40.7378 0.0759733 41.5727 0.331244 42.7824 0.863732C43.1615 1.02991 43.5405 1.19609 43.931 1.36731C44.3201 1.54327 44.7092 1.71924 45.1102 1.90054C45.703 2.15789 45.703 2.15789 46.3078 2.42043C49.2328 3.7212 49.2328 3.7212 50.1219 5.0095C49.971 7.26564 48.89 9.02752 47.8341 11.0019C47.3018 12.4047 47.3159 13.0842 47.7634 14.5025C48.2635 15.3033 48.2635 15.3033 48.9181 15.9502C49.1243 16.1719 49.3305 16.3936 49.543 16.6221C50.233 17.2639 50.6527 17.5376 51.6204 17.5477C53.3858 17.3863 54.8491 17.0515 56.4847 16.3774C57.9638 15.7716 59.107 15.3348 60.7348 15.6416C62.2364 17.2692 62.8259 19.297 63.5846 21.3137C63.7326 21.6894 63.8805 22.0651 64.033 22.4521C64.1708 22.8161 64.3086 23.18 64.4506 23.5549C64.5769 23.8853 64.7032 24.2157 64.8333 24.5561C65.0954 25.6707 65.055 26.3353 64.6656 27.413C63.2409 28.2439 61.8158 28.8158 60.2773 29.4213C59.8527 29.5887 59.428 29.7561 58.9906 29.9286C58.5857 30.0823 58.1809 30.236 57.7637 30.3943C56.7506 30.7379 56.7506 30.7379 56.411 31.5899C55.925 34.7375 55.925 34.7375 56.9469 37.5986C57.7919 38.1074 58.6292 38.4506 59.5556 38.8045C60.4093 39.2199 61.2609 39.6393 62.1106 40.0624C62.8304 40.404 63.5508 40.7447 64.2725 41.0829C64.5654 43.7062 63.5559 45.5336 62.3563 47.8466C62.1754 48.2086 61.9945 48.5706 61.8081 48.9435C60.4658 51.5952 60.4658 51.5952 59.5556 52.4744C57.119 52.7446 55.4966 51.752 53.3908 50.6945C51.9039 50.126 50.9209 50.0096 49.3357 50.1961C47.6247 51.2176 46.3707 52.5535 45.8718 54.4442C46.2762 56.2776 46.9647 57.9351 47.7266 59.6565C48.147 60.8023 48.3426 61.5293 48.1565 62.7269C47.2745 63.7909 46.3489 64.1796 45.0395 64.6418C44.6621 64.7752 44.2846 64.9086 43.8956 65.046C43.5019 65.1813 43.1082 65.3167 42.7026 65.4561C42.3119 65.5959 41.9213 65.7356 41.5188 65.8796C38.0172 67.1 38.0172 67.1 36.3643 66.9038C34.7247 65.7354 34.3585 63.6871 33.7456 61.8933C33.0061 59.8478 33.0061 59.8478 31.2544 58.55C30.7355 58.4246 30.2166 58.2993 29.6821 58.1702C29.6821 56.1653 29.6821 54.1604 29.6821 52.0947C30.2334 52.0007 30.7846 51.9068 31.3526 51.8099C37.1679 50.661 42.2734 48.5465 45.7981 43.7409C48.6517 39.1423 49.7777 34.4842 48.6724 29.1454C47.1087 23.8081 44.0928 19.6078 39.1158 16.7808C36.0826 15.3787 32.9972 14.9157 29.6821 14.5025C29.6821 12.3723 29.6821 10.242 29.6821 8.04725C30.6673 7.98545 31.6526 7.92365 32.6378 7.86185C33.7822 7.63378 34.0418 7.36764 34.792 6.52838C35.2216 5.84718 35.2216 5.84718 35.5812 5.10146C35.7175 4.83274 35.8538 4.56401 35.9943 4.28714C36.2018 3.86937 36.2018 3.86937 36.4134 3.44316C38.0982 0.0889243 38.0982 0.0889243 39.4026 0Z" fill="#084A83"/>
<path d="M29.8066 17.9666C34.2797 17.9666 37.6116 19.2408 40.9659 22.4143C44.0665 25.8774 45.4618 30.1309 45.3609 34.8247C44.8682 39.69 42.7889 43.4045 39.2503 46.5173C36.2903 48.8312 33.5174 49.4079 29.8066 49.4079C29.8066 39.0323 29.8066 28.6566 29.8066 17.9666Z" fill="#808080"/>
<path d="M27.6852 9.13647C27.6852 25.3421 27.6852 41.5477 27.6852 58.2444C20.1506 58.2444 13.4653 56.3775 7.99783 51.6104C7.71179 51.3442 7.42575 51.0781 7.13103 50.8038C6.85797 50.5645 6.5849 50.3252 6.30356 50.0787C4.60687 48.4985 4.60687 48.4985 4.64041 47.13C5.03367 46.3395 5.03367 46.3395 5.45314 45.9674C6.36856 45.9175 7.28568 45.8917 8.20265 45.8759C8.76905 45.8636 9.33545 45.8513 9.90184 45.8388C10.7975 45.8212 11.6932 45.8047 12.5889 45.7901C13.4515 45.7753 14.3139 45.7561 15.1764 45.7364C15.6943 45.7271 16.2123 45.7177 16.7459 45.7081C18.1082 45.6799 18.1082 45.6799 19.2957 44.8513C19.7213 44.1793 19.7213 44.1793 19.7152 43.3632C19.3741 42.3401 19.3741 42.3401 18.4568 41.5031C17.1381 41.3313 16.0396 41.2784 14.7225 41.3054C14.3558 41.3042 13.9892 41.303 13.6114 41.3018C12.0421 41.2969 10.4733 41.3135 8.90406 41.3281C7.75851 41.3358 6.61345 41.3325 5.46789 41.3287C5.11348 41.336 4.75907 41.3433 4.39392 41.3508C1.939 41.3412 1.939 41.3412 0.598793 40.2627C0 39.2709 0 39.2709 0.0524341 38.0851C0.419473 37.0387 0.419473 37.0387 1.25842 36.2947C2.43585 36.2168 3.57522 36.1826 4.75348 36.1799C5.46762 36.1705 6.18176 36.161 6.8959 36.1515C8.02258 36.1408 9.14923 36.1319 10.276 36.1249C11.3628 36.1168 12.4494 36.1022 13.5362 36.0868C13.8714 36.0868 14.2066 36.0868 14.552 36.0867C16.4602 36.0568 17.7619 35.9261 19.2957 34.8065C19.8479 33.7114 19.8479 33.7114 19.339 32.703C18.4933 31.6801 18.4933 31.6801 16.8455 31.6145C16.1733 31.6118 15.501 31.6184 14.829 31.6327C14.4726 31.6314 14.1163 31.6302 13.7491 31.629C12.2245 31.6241 10.7005 31.6407 9.17596 31.6554C8.06267 31.663 6.94987 31.6597 5.83657 31.6559C5.4935 31.6632 5.15043 31.6705 4.79696 31.678C2.99177 31.6707 2.29853 31.5947 0.814981 30.5885C0 29.5981 0 29.5981 0 28.4355C0.426921 27.347 0.687714 26.9557 1.67789 26.2499C2.89459 26.1355 4.02588 26.0858 5.24341 26.0856C5.59245 26.0807 5.94148 26.0758 6.3011 26.0707C7.4167 26.0555 8.53216 26.0475 9.64787 26.0406C10.7635 26.0317 11.8791 26.0213 12.9946 26.0064C13.6888 25.9974 14.383 25.9918 15.0773 25.9902C16.6987 25.9707 17.4961 25.9498 18.8763 25.1338C19.156 24.0336 19.156 24.0336 18.8763 22.9016C17.2821 21.7938 15.9976 21.6355 14.0048 21.5951C13.4817 21.5819 12.9585 21.5687 12.4195 21.5552C11.8769 21.5468 11.3343 21.5384 10.7752 21.5297C10.2245 21.517 9.67374 21.5043 9.10632 21.4912C7.74881 21.4606 6.3914 21.4348 5.03367 21.4135C4.52899 19.3004 4.52899 19.3004 5.29584 18.228C6.31855 17.297 7.34065 16.3688 8.38945 15.461C8.72119 15.1488 8.72119 15.1488 9.05962 14.8303C13.9752 10.5753 21.1147 9.13647 27.6852 9.13647Z" fill="#084A83"/>
</g>
<defs>
<clipPath id="clip0_1_343">
<rect width="65" height="67" fill="white"/>
</clipPath>
</defs>
</svg>
