<svg width="33" height="33" viewBox="0 0 33 33" fill="none" xmlns="http://www.w3.org/2000/svg">
<g clip-path="url(#clip0_71_289)">
<circle cx="16.5" cy="16.5" r="16" stroke="#D9D9D9"/>
<path fill-rule="evenodd" clip-rule="evenodd" d="M13.7175 24C19.3778 24 22.4738 18.2283 22.4738 13.2236C22.4738 13.0593 22.4737 12.8963 22.4647 12.7338C23.067 12.1985 23.5868 11.5338 24 10.7732C23.439 11.0797 22.8427 11.2806 22.233 11.3692C22.875 10.8957 23.3558 10.1518 23.586 9.27401C22.9815 9.71521 22.3207 10.0266 21.6315 10.1937C20.466 8.66884 18.5168 8.59496 17.277 10.0293C16.4783 10.9542 16.1385 12.3332 16.3868 13.6485C13.9125 13.4952 11.607 12.0572 10.044 9.6915C9.22725 11.4222 9.645 13.6353 10.9973 14.7466C10.5075 14.7291 10.0283 14.5668 9.6 14.2733V14.3214C9.60075 16.124 10.6335 17.6762 12.069 18.0334C11.616 18.1857 11.1405 18.2078 10.68 18.098C11.0827 19.6413 12.2385 20.6983 13.5547 20.7288C12.465 21.7829 11.1188 22.3552 9.73275 22.3534C9.48825 22.3525 9.24375 22.3349 9 22.2989C10.4078 23.4102 12.045 24 13.7175 23.9973" fill="#D9D9D9"/>
</g>
<defs>
<clipPath id="clip0_71_289">
<rect width="33" height="33" fill="white"/>
</clipPath>
</defs>
</svg>
