<svg width="15" height="15" viewBox="0 0 15 15" fill="none" xmlns="http://www.w3.org/2000/svg">
<path fill-rule="evenodd" clip-rule="evenodd" d="M4.7175 15C10.3778 15 13.4738 9.22826 13.4738 4.22365C13.4738 4.05935 13.4737 3.89629 13.4647 3.73383C14.067 3.19848 14.5868 2.53377 15 1.77321C14.439 2.07965 13.8427 2.28062 13.233 2.36922C13.875 1.89571 14.3558 1.1518 14.586 0.274012C13.9815 0.715214 13.3207 1.0266 12.6315 1.19367C11.466 -0.331165 9.51675 -0.405043 8.277 1.02933C7.47825 1.9542 7.1385 3.33316 7.38675 4.64846C4.9125 4.49524 2.607 3.0572 1.044 0.691497C0.22725 2.42215 0.645 4.63533 1.99725 5.74665C1.5075 5.72911 1.02825 5.56683 0.6 5.27331V5.32138C0.60075 7.12405 1.6335 8.67623 3.069 9.03343C2.616 9.18573 2.1405 9.20782 1.68 9.09798C2.08275 10.6413 3.2385 11.6983 4.55475 11.7288C3.465 12.7829 2.11875 13.3552 0.73275 13.3534C0.48825 13.3525 0.24375 13.3349 0 13.2989C1.40775 14.4102 3.045 15 4.7175 14.9973" fill="white"/>
</svg>
