<svg width="33" height="33" viewBox="0 0 33 33" fill="none" xmlns="http://www.w3.org/2000/svg">
<g clip-path="url(#clip0_71_286)">
<circle cx="16.5" cy="16.5" r="16" stroke="#D9D9D9"/>
<path fill-rule="evenodd" clip-rule="evenodd" d="M14.1896 18.8472V14.8388C15.9826 15.5084 17.3712 16.1552 19.0136 16.8526C17.659 17.4488 15.9826 18.1178 14.1896 18.8472ZM24.1819 12.8452C23.8726 12.5218 23.3455 12.2701 22.7843 12.1867C21.1347 11.9381 10.8439 11.9374 9.19524 12.1867C8.7452 12.2537 8.34445 12.4155 8.0002 12.667C6.54967 13.7355 7.0042 19.4655 7.35383 20.3937C7.50086 20.7954 7.69092 21.0852 7.93028 21.2754C8.23868 21.5268 8.66092 21.7 9.14592 21.7776C10.5041 22.0006 17.5012 22.1252 22.7556 21.8111C23.2397 21.7441 23.6682 21.5654 24.0062 21.3033C25.3473 20.239 25.2559 14.1872 24.1819 12.8452Z" fill="#D9D9D9"/>
</g>
<defs>
<clipPath id="clip0_71_286">
<rect width="33" height="33" fill="white"/>
</clipPath>
</defs>
</svg>
