<svg width="23" height="15" viewBox="0 0 23 15" fill="none" xmlns="http://www.w3.org/2000/svg">
<path fill-rule="evenodd" clip-rule="evenodd" d="M9.1867 10.2708V4.25818C11.4777 5.26256 13.2521 6.23282 15.3507 7.27889C13.6198 8.17322 11.4777 9.17669 9.1867 10.2708ZM21.9547 1.2678C21.5595 0.782704 20.8859 0.405095 20.1688 0.280081C18.061 -0.0928297 4.91163 -0.0938904 2.80503 0.280081C2.22997 0.380516 1.71791 0.623284 1.27803 1.00047C-0.575417 2.60322 0.00536611 11.1982 0.452119 12.5905C0.639983 13.1932 0.882843 13.6278 1.1887 13.9131C1.58276 14.2902 2.12229 14.5499 2.74201 14.6664C4.47747 15.0009 13.4182 15.1878 20.1321 14.7166C20.7507 14.6162 21.2983 14.3481 21.7301 13.9549C23.4438 12.3586 23.327 3.28086 21.9547 1.2678Z" fill="white"/>
</svg>
